<svg width="20" height="20" viewBox="0 0 20 20" fill="none" xmlns="http://www.w3.org/2000/svg">
<g clip-path="url(#clip0_1134_1411)">
<path d="M6.12586 6.27402C6.19531 6.59351 6.30181 6.80033 6.42606 6.92921C6.72163 8.98663 8.56836 10.74 10.0516 10.6667C11.9385 10.5741 13.2759 8.54057 13.5761 6.92921C13.7003 6.80111 13.8199 6.52714 13.8917 6.20534C13.972 5.83568 14.0584 5.27849 13.8362 4.9837C13.823 4.96826 13.7381 4.89032 13.7235 4.8772C13.9357 4.11165 14.4018 2.7457 13.2412 1.51788C12.6122 0.852656 11.7386 0.5185 10.9491 0.25457C8.61852 -0.524099 6.97321 0.56789 6.21383 2.38376C6.15904 2.51263 5.80482 3.32835 6.2339 4.8772C6.19222 4.90498 6.15441 4.94048 6.12277 4.9837C5.89974 5.27772 6.04483 5.90436 6.12586 6.27402Z" fill="#83DA40"/>
<path d="M18.1795 17.589C18.1146 16.1729 18.0344 13.9287 16.7973 12.0928C16.7973 12.0928 16.4446 11.612 15.6081 11.2925C15.6081 11.2925 13.7914 10.7392 12.9549 10.1411L12.5729 10.4027L12.6153 12.8861L10.3218 14.009C10.2716 14.1433 10.1435 14.232 10.0007 14.232C9.85796 14.232 9.72985 14.1433 9.67969 14.009L7.3869 12.8861C7.3869 12.8861 7.42934 10.4104 7.42857 10.4027C7.43397 10.4236 7.04579 10.1411 7.04579 10.1411C6.21079 10.7392 4.39338 11.2925 4.39338 11.2925C3.55683 11.612 3.20415 12.0928 3.20415 12.0928C1.96785 13.9287 1.88605 16.1729 1.82122 17.589C1.77646 18.5676 1.98174 18.9326 2.2395 19.0368C5.43906 20.3209 14.5601 20.3209 17.7604 19.0368C18.0197 18.9334 18.2234 18.5676 18.1795 17.589Z" fill="#83DA40"/>
</g>
<defs>
<clipPath id="clip0_1134_1411">
<rect width="20" height="20" fill="white"/>
</clipPath>
</defs>
</svg>
