<svg width="35" height="35" viewBox="0 0 35 35" fill="none" xmlns="http://www.w3.org/2000/svg">
<g clip-path="url(#clip0_1134_1408)">
<path fill-rule="evenodd" clip-rule="evenodd" d="M17.5 35C27.1649 35 35 27.1649 35 17.5C35 7.8351 27.1649 0 17.5 0C7.8351 0 0 7.8351 0 17.5C0 27.1649 7.8351 35 17.5 35ZM23.765 11.4191C25.1083 11.5402 25.865 12.3624 26.0309 13.6724C26.1471 14.5866 26.25 15.8956 26.25 17.3037C26.25 19.7761 26.0309 21.2055 26.0309 21.2055C25.8251 22.5103 25.1944 23.2187 23.8679 23.3685C22.3857 23.5364 19.0519 23.6135 17.5707 23.6135C16.0377 23.6135 12.9378 23.5491 11.3897 23.4203C10.0597 23.3093 9.1518 22.5663 8.9691 21.244C8.8361 20.2808 8.75 19.1362 8.75 17.3162C8.75 15.2904 8.82315 14.433 8.995 13.5177C9.23965 12.2115 9.863 11.5787 11.2868 11.4317C12.7806 11.2774 14.1925 11.2 17.352 11.2C18.8965 11.2 22.2268 11.2798 23.765 11.4191ZM15.6394 14.8355V19.8664L20.4295 17.325L15.6394 14.8355Z" fill="#83DA40"/>
</g>
<defs>
<clipPath id="clip0_1134_1408">
<rect width="35" height="35" fill="white"/>
</clipPath>
</defs>
</svg>
