<svg width="35" height="35" viewBox="0 0 35 35" fill="none" xmlns="http://www.w3.org/2000/svg">
<path fill-rule="evenodd" clip-rule="evenodd" d="M17.5 35C27.165 35 35 27.165 35 17.5C35 7.83502 27.165 0 17.5 0C7.83502 0 0 7.83502 0 17.5C0 27.165 7.83502 35 17.5 35ZM10.7835 19.7425C10.7835 19.7425 7.95261 21.3422 7.18494 22.7412C6.85828 23.3357 6.97203 24.0664 7.46553 24.5434L8.49103 25.5322C11.7443 28.6693 15.417 27.1247 18.6702 23.9876L24.6167 18.2536C27.87 15.1166 29.4718 11.5751 26.2186 8.43813L25.1931 7.44927C24.6996 6.9734 23.9418 6.86316 23.3247 7.17815C21.8739 7.91839 20.2149 10.6482 20.2149 10.6482C19.8497 11.2658 19.8089 12.0105 20.4599 12.3632C20.4599 12.3632 21.563 13.2502 21.7217 13.4758C22.4456 14.5063 22.4176 15.4608 21.4183 16.4244L16.7738 20.9029C15.7745 21.8665 14.7846 21.8935 13.716 21.1954C13.482 21.0424 12.5621 19.9788 12.5621 19.9788C12.197 19.351 11.424 19.3904 10.7835 19.7425Z" fill="#83DA40"/>
</svg>
