<svg width="14" height="10" viewBox="0 0 14 10" fill="none" xmlns="http://www.w3.org/2000/svg">
<path d="M13.8093 4.3568L9.64316 0.190641C9.38897 -0.063547 8.97673 -0.063547 8.72254 0.190641C8.4683 0.444881 8.4683 0.857019 8.72254 1.11126L11.7774 4.16615H0.650963C0.291475 4.16615 0 4.45762 0 4.81711C0 5.17655 0.291475 5.46808 0.650963 5.46808H11.7774L8.72264 8.52297C8.4684 8.77721 8.4684 9.18935 8.72264 9.44359C8.84971 9.5706 9.01636 9.63424 9.18295 9.63424C9.34955 9.63424 9.51614 9.5706 9.64326 9.44359L13.8093 5.27742C14.0636 5.02318 14.0636 4.61104 13.8093 4.3568Z" fill="#83DA40"/>
</svg>
