<svg width="35" height="35" viewBox="0 0 35 35" fill="none" xmlns="http://www.w3.org/2000/svg">
<g clip-path="url(#clip0_1134_1406)">
<path fill-rule="evenodd" clip-rule="evenodd" d="M17.5 35C27.165 35 35 27.165 35 17.5C35 7.83503 27.165 0 17.5 0C7.83503 0 0 7.83503 0 17.5C0 27.165 7.83503 35 17.5 35ZM24.4169 10.1475C22.616 8.34435 20.2209 7.35095 17.6691 7.35C12.4116 7.35 8.13211 11.6288 8.13022 16.8883C8.12959 18.5695 8.56881 20.2106 9.40338 21.6569L8.05 26.6L13.1067 25.2737C14.4999 26.0338 16.0687 26.4342 17.665 26.4348H17.6688C22.926 26.4348 27.2055 22.1554 27.2077 16.8962C27.2093 14.347 26.2181 11.9506 24.4169 10.1475ZM22.018 18.8856C21.7796 18.7662 20.608 18.1898 20.3893 18.1102C20.171 18.0306 20.0118 17.9908 19.853 18.2296C19.6942 18.4683 19.2374 19.0049 19.0983 19.1641C18.9592 19.3232 18.8201 19.343 18.582 19.2236C18.5431 19.2041 18.4899 19.1811 18.4243 19.1526C18.0887 19.007 17.4267 18.7199 16.6653 18.0405C15.9567 17.4084 15.4784 16.6279 15.3393 16.3895C15.2002 16.1508 15.3243 16.0219 15.4437 15.9032C15.5152 15.8318 15.5974 15.7317 15.6795 15.6317C15.7205 15.5818 15.7615 15.5319 15.8011 15.4856C15.9021 15.3676 15.946 15.2781 16.0056 15.1567C16.0162 15.1349 16.0274 15.1122 16.0395 15.088C16.1191 14.9289 16.0793 14.7898 16.0198 14.6704C15.98 14.5907 15.7541 14.0408 15.5493 13.5423C15.4474 13.2944 15.3508 13.0592 15.2849 12.9007C15.114 12.4905 14.9409 12.4915 14.802 12.4923C14.7835 12.4925 14.7657 12.4926 14.7485 12.4917C14.6097 12.4847 14.4506 12.4835 14.2918 12.4835C14.1329 12.4835 13.8748 12.543 13.6561 12.7817C13.6421 12.7971 13.6263 12.8139 13.6092 12.8322C13.3608 13.0973 12.8219 13.6727 12.8219 14.7701C12.8219 15.9404 13.6717 17.0712 13.7943 17.2344L13.7953 17.2355C13.803 17.2459 13.8168 17.2658 13.8367 17.2942C14.1212 17.7024 15.6315 19.8692 17.8668 20.8345C18.4356 21.0802 18.8793 21.2266 19.2256 21.3364C19.7966 21.5179 20.3161 21.4924 20.727 21.431C21.185 21.3625 22.137 20.8545 22.3356 20.2978C22.5343 19.7412 22.5343 19.2637 22.4748 19.1644C22.4267 19.084 22.3141 19.0295 22.1472 18.9488C22.1072 18.9295 22.064 18.9086 22.018 18.8856Z" fill="#83DA40"/>
</g>
<defs>
<clipPath id="clip0_1134_1406">
<rect width="35" height="35" fill="white"/>
</clipPath>
</defs>
</svg>
