<svg width="290" height="64" viewBox="0 0 290 64" fill="none" xmlns="http://www.w3.org/2000/svg">
<path d="M75 38.6545V26.677C75 23.9967 75.6195 23.2911 78.7844 23.2911H84.4392V26.677H78.7844V29.3259H80.2633C82.4237 29.3259 83.9534 29.8249 84.8524 30.8231C85.5919 31.6523 85.9616 32.7118 85.9616 34.0017C85.9616 35.3377 85.5629 36.4279 84.7654 37.2725C83.8809 38.1938 82.3367 38.6545 80.1328 38.6545H75ZM78.7844 35.545H80.0893C80.8868 35.545 81.445 35.3684 81.764 35.0152C82.0105 34.7234 82.1337 34.3626 82.1337 33.9326C82.1337 33.4412 81.9887 33.0573 81.6988 32.7809C81.3943 32.5045 80.8578 32.3663 80.0893 32.3663H78.7844V35.545Z" fill="#202125"/>
<path d="M100.875 29.0903L94.4395 38.6545H91.533V23.2638H94.8547V32.828L101.291 23.2638H104.197V38.6545H100.875V29.0903Z" fill="#202125"/>
<path d="M114.599 38.9183C112.26 38.9183 110.523 37.9949 109.388 36.148L111.194 33.7515C112.246 34.9974 113.332 35.6203 114.454 35.6203C115.035 35.6203 115.519 35.4884 115.907 35.2246C116.294 34.9461 116.488 34.5357 116.488 33.9933C116.488 33.5096 116.294 33.1285 115.907 32.85C115.519 32.5715 114.959 32.4323 114.225 32.4323H112.896V29.1343H114.142C114.668 29.1343 115.097 29.0097 115.429 28.7605C115.761 28.5113 115.928 28.1669 115.928 27.7271C115.928 27.2581 115.782 26.9063 115.492 26.6718C115.215 26.4226 114.827 26.298 114.329 26.298C113.332 26.298 112.474 26.833 111.755 27.903L109.845 25.5285C110.343 24.7663 111.028 24.158 111.9 23.7036C112.786 23.2345 113.741 23 114.765 23C116.121 23 117.208 23.3884 118.024 24.1653C118.841 24.9275 119.249 25.9829 119.249 27.3314C119.249 28.6652 118.64 29.7572 117.422 30.6074V30.6733C119.014 31.201 119.81 32.4249 119.81 34.3451C119.81 35.7083 119.284 36.8149 118.232 37.6651C117.18 38.5006 115.969 38.9183 114.599 38.9183Z" fill="#202125"/>
<path d="M137.556 38.6545H134.234V32.4543H128.94V38.6545H125.619V23.2638H128.94V29.1563H134.234V23.2638H137.556V38.6545Z" fill="#202125"/>
<path d="M152.812 38.6545H143.989V23.2638H152.605V26.5618H147.311V29.2662H151.982V32.5642H147.311V35.3565H152.812V38.6545Z" fill="#202125"/>
<path d="M168.701 33.518V38.2399C167.382 38.7466 166.294 39 165.439 39C163.177 39 161.307 38.2322 159.828 36.6966C159.132 35.9596 158.588 35.0996 158.196 34.1169C157.819 33.1187 157.631 32.1129 157.631 31.0995C157.631 30.0399 157.827 29.0111 158.218 28.013C158.624 27.0148 159.161 26.1549 159.828 25.4332C161.307 23.8362 163.134 23.0377 165.308 23.0377C166.367 23.0377 167.498 23.2987 168.701 23.8208V28.5888C167.846 27.4678 166.751 26.9073 165.417 26.9073C164.388 26.9073 163.518 27.2452 162.807 27.9208C161.966 28.75 161.546 29.8019 161.546 31.0764C161.546 32.2895 161.937 33.2877 162.72 34.0708C163.431 34.7772 164.33 35.1303 165.417 35.1303C166.679 35.1303 167.773 34.5929 168.701 33.518Z" fill="#202125"/>
<path d="M186.82 38.6545H180.773V23.2911H186.385C187.82 23.2911 188.878 23.6903 189.56 24.4888C190.154 25.1798 190.452 26.1396 190.452 27.368C190.452 28.0437 190.314 28.6733 190.038 29.2568C189.748 29.8249 189.357 30.2242 188.864 30.4545C189.676 30.5467 190.336 30.8538 190.843 31.3759C191.496 32.0362 191.822 32.9729 191.822 34.186C191.822 35.4451 191.467 36.4509 190.756 37.2034C189.872 38.1708 188.559 38.6545 186.82 38.6545ZM184.536 26.3545V29.3489H185.232C185.899 29.3489 186.377 29.1877 186.667 28.8652C186.899 28.6195 187.015 28.2817 187.015 27.8517C187.015 27.4371 186.899 27.0916 186.667 26.8152C186.377 26.5081 185.899 26.3545 185.232 26.3545H184.536ZM184.536 32.3202V35.545H185.384C186.602 35.545 187.378 35.3377 187.711 34.923C187.914 34.6774 188.016 34.3472 188.016 33.9326C188.016 33.4566 187.893 33.088 187.646 32.827C187.327 32.4892 186.551 32.3202 185.319 32.3202H184.536Z" fill="#202125"/>
<path d="M215.976 38.6545H212.654V26.5618H207.568V38.6545H204.246V23.2638H212.654C215.177 23.2638 215.976 23.9967 215.976 26.5618V38.6545Z" fill="#202125"/>
<path d="M233.895 38.6545H230.573V26.5618H227.376L227.065 29.4641C226.774 32.1318 226.359 34.1765 225.819 35.5984C225.293 37.0055 224.649 37.9216 223.888 38.3467C223.141 38.7718 222.165 38.8744 220.961 38.6545L221.023 35.1366C221.328 35.1953 221.577 35.1953 221.771 35.1366C221.978 35.0633 222.2 34.8801 222.435 34.587C222.67 34.2792 222.885 33.8174 223.079 33.2018C223.508 31.8826 223.833 29.596 224.054 26.342C224.054 24.6947 224.898 23.2638 227.376 23.2638H233.895V38.6545Z" fill="#202125"/>
<path d="M243.661 38.6545H240.339V23.2638H243.661V29.1563H245.488C245.847 27.3094 246.657 25.8289 247.917 24.715C249.176 23.5717 250.747 23 252.629 23C254.871 23 256.684 23.7256 258.068 25.1767C259.453 26.5985 260.145 28.526 260.145 30.9592C260.145 33.2751 259.446 35.1879 258.048 36.6977C256.65 38.1781 254.844 38.9183 252.629 38.9183C250.802 38.9183 249.218 38.3394 247.875 37.1814C246.533 36.0234 245.716 34.4477 245.425 32.4543H243.661V38.6545ZM248.851 30.9592C248.851 32.2784 249.231 33.385 249.993 34.2792C250.754 35.1733 251.667 35.6203 252.733 35.6203C254.02 35.6203 254.989 35.2026 255.639 34.3671C256.29 33.5316 256.615 32.3956 256.615 30.9592C256.615 29.552 256.262 28.4234 255.556 27.5732C254.851 26.7231 253.909 26.298 252.733 26.298C251.612 26.298 250.685 26.7304 249.951 27.5952C249.218 28.46 248.851 29.5813 248.851 30.9592Z" fill="#202125"/>
<path d="M275.614 33.518V38.2399C274.294 38.7466 273.207 39 272.351 39C270.09 39 268.219 38.2322 266.74 36.6966C266.044 35.9596 265.5 35.0996 265.109 34.1169C264.732 33.1187 264.543 32.1129 264.543 31.0995C264.543 30.0399 264.739 29.0111 265.131 28.013C265.537 27.0148 266.073 26.1549 266.74 25.4332C268.219 23.8362 270.046 23.0377 272.221 23.0377C273.279 23.0377 274.41 23.2987 275.614 23.8208V28.5888C274.758 27.4678 273.664 26.9073 272.33 26.9073C271.3 26.9073 270.43 27.2452 269.72 27.9208C268.879 28.75 268.458 29.8019 268.458 31.0764C268.458 32.2895 268.85 33.2877 269.633 34.0708C270.343 34.7772 271.242 35.1303 272.33 35.1303C273.591 35.1303 274.686 34.5929 275.614 33.518Z" fill="#202125"/>
<path d="M290 38.6545H281.177V23.2638H289.792V26.5618H284.498V29.2662H289.17V32.5642H284.498V35.3565H290V38.6545Z" fill="#202125"/>
<path fill-rule="evenodd" clip-rule="evenodd" d="M47.226 17.0051L55.7473 17.0051C60.4698 17.0051 63.8006 20.3213 63.8006 24.9488L63.8006 39.1677C63.8006 43.9051 60.1618 46.9946 55.7472 46.9946L7.83 46.9946C4.27088 46.9946 -3.16763e-05 43.5961 -2.76686e-05 39.1677L-2.7049e-05 24.9488C-2.68585e-05 20.5753 3.55913 17.0051 7.83 17.0051L16.4265 17.0051L16.4265 21.3786L7.83 21.3786C5.87252 21.3786 4.27089 22.9852 4.27089 24.9488L4.27088 39.1677C4.27088 41.0215 6.05733 42.7104 7.83 42.7104L55.7472 42.7104C57.5952 42.7104 59.5459 41.0215 59.5459 39.1677L59.5459 24.9488C59.5459 22.9989 57.6979 21.3786 55.7473 21.3786L47.226 21.3786L47.226 17.0051Z" fill="#202125"/>
<path d="M16.4265 17.0051L16.4265 21.3786L47.226 21.3786L47.226 17.0051L16.4265 17.0051Z" fill="#202125"/>
<path fill-rule="evenodd" clip-rule="evenodd" d="M46.8483 47.0011L46.8483 55.9215C46.8483 60.6588 43.5425 64 38.9294 64L24.7548 64C20.0322 64 16.9522 60.3499 16.9522 55.9215L16.9522 7.8545C16.9522 4.28425 20.3402 2.32466e-06 24.7548 1.93751e-06L38.9294 6.94456e-07C43.2893 4.12681e-06 46.8483 3.57028 46.8483 7.8545L46.8483 16.9927L42.4885 16.9927L42.4885 7.8545C42.4885 5.8909 40.8869 4.28426 38.9294 4.28426L24.7548 4.28425C22.9068 4.28425 21.2231 6.07629 21.2231 7.8545L21.2231 55.9215C21.2231 57.7752 22.9068 59.732 24.7548 59.732L38.9294 59.732C40.8732 59.732 42.4885 57.8782 42.4885 55.9215L42.4885 47.0011L46.8483 47.0011Z" fill="#0CDBCE"/>
<g filter="url(#filter0_dddd_1134_1433)">
<path d="M55.3759 34.2395L55.3759 29.866L25.4609 29.866L25.4609 34.2395L55.3759 34.2395Z" fill="#83DA40"/>
</g>
<defs>
<filter id="filter0_dddd_1134_1433" x="1.46094" y="5.86597" width="77.915" height="52.3735" filterUnits="userSpaceOnUse" color-interpolation-filters="sRGB">
<feFlood flood-opacity="0" result="BackgroundImageFix"/>
<feColorMatrix in="SourceAlpha" type="matrix" values="0 0 0 0 0 0 0 0 0 0 0 0 0 0 0 0 0 0 127 0" result="hardAlpha"/>
<feOffset dx="4" dy="4"/>
<feGaussianBlur stdDeviation="10"/>
<feComposite in2="hardAlpha" operator="out"/>
<feColorMatrix type="matrix" values="0 0 0 0 0.580392 0 0 0 0 0.945098 0 0 0 0 0.294118 0 0 0 0.25 0"/>
<feBlend mode="normal" in2="BackgroundImageFix" result="effect1_dropShadow_1134_1433"/>
<feColorMatrix in="SourceAlpha" type="matrix" values="0 0 0 0 0 0 0 0 0 0 0 0 0 0 0 0 0 0 127 0" result="hardAlpha"/>
<feOffset dx="-4" dy="-4"/>
<feGaussianBlur stdDeviation="10"/>
<feComposite in2="hardAlpha" operator="out"/>
<feColorMatrix type="matrix" values="0 0 0 0 0.580392 0 0 0 0 0.945098 0 0 0 0 0.294118 0 0 0 0.25 0"/>
<feBlend mode="normal" in2="effect1_dropShadow_1134_1433" result="effect2_dropShadow_1134_1433"/>
<feColorMatrix in="SourceAlpha" type="matrix" values="0 0 0 0 0 0 0 0 0 0 0 0 0 0 0 0 0 0 127 0" result="hardAlpha"/>
<feOffset dx="2" dy="2"/>
<feGaussianBlur stdDeviation="10"/>
<feComposite in2="hardAlpha" operator="out"/>
<feColorMatrix type="matrix" values="0 0 0 0 0.580392 0 0 0 0 0.945098 0 0 0 0 0.294118 0 0 0 0.25 0"/>
<feBlend mode="normal" in2="effect2_dropShadow_1134_1433" result="effect3_dropShadow_1134_1433"/>
<feColorMatrix in="SourceAlpha" type="matrix" values="0 0 0 0 0 0 0 0 0 0 0 0 0 0 0 0 0 0 127 0" result="hardAlpha"/>
<feOffset dx="-2" dy="-2"/>
<feGaussianBlur stdDeviation="10"/>
<feComposite in2="hardAlpha" operator="out"/>
<feColorMatrix type="matrix" values="0 0 0 0 0.580392 0 0 0 0 0.945098 0 0 0 0 0.294118 0 0 0 0.25 0"/>
<feBlend mode="normal" in2="effect3_dropShadow_1134_1433" result="effect4_dropShadow_1134_1433"/>
<feBlend mode="normal" in="SourceGraphic" in2="effect4_dropShadow_1134_1433" result="shape"/>
</filter>
</defs>
</svg>
