<svg width="35" height="35" viewBox="0 0 35 35" fill="none" xmlns="http://www.w3.org/2000/svg">
<circle cx="17.5" cy="17.5" r="17.5" fill="#83DA40"/>
<path d="M7.18494 22.7412C7.95261 21.3422 10.7835 19.7425 10.7835 19.7425C11.424 19.3904 12.197 19.351 12.5621 19.9788C12.5621 19.9788 13.482 21.0424 13.716 21.1954C14.7846 21.8935 15.7745 21.8665 16.7738 20.9029L19.0961 18.6637L21.4183 16.4244C22.4176 15.4608 22.4456 14.5063 21.7217 13.4758C21.563 13.2502 20.4599 12.3632 20.4599 12.3632C19.8089 12.0105 19.8497 11.2658 20.2149 10.6482C20.2149 10.6482 21.8739 7.91839 23.3247 7.17815C23.9418 6.86316 24.6996 6.9734 25.1931 7.44927L26.2186 8.43813C29.4718 11.5751 27.87 15.1166 24.6167 18.2536L21.6435 21.1206L18.6702 23.9876C15.417 27.1247 11.7443 28.6693 8.49103 25.5322L7.46553 24.5434C6.97202 24.0664 6.85828 23.3357 7.18494 22.7412Z" fill="white"/>
</svg>
