<svg width="268" height="110" viewBox="0 0 268 110" fill="none" xmlns="http://www.w3.org/2000/svg">
<path d="M85.7122 53.076V43.3084C85.7122 41.1226 86.2374 40.5472 88.9207 40.5472H93.7151V43.3084H88.9207V45.4686H90.1747C92.0064 45.4686 93.3033 45.8755 94.0655 46.6895C94.6925 47.3657 95.0059 48.2298 95.0059 49.2817C95.0059 50.3711 94.6679 51.2603 93.9917 51.949C93.2419 52.7003 91.9326 53.076 90.064 53.076H85.7122ZM88.9207 50.5402H90.0271C90.7033 50.5402 91.1766 50.3962 91.447 50.1082C91.656 49.8702 91.7605 49.576 91.7605 49.2253C91.7605 48.8246 91.6376 48.5115 91.3917 48.2861C91.1335 48.0607 90.6787 47.948 90.0271 47.948H88.9207V50.5402Z" fill="white"/>
<path d="M107.651 45.2764L102.194 53.076H99.7297V40.525H102.546V48.3246L108.003 40.525H110.467V53.076H107.651V45.2764Z" fill="white"/>
<path d="M119.286 53.2912C117.303 53.2912 115.83 52.5381 114.868 51.032L116.399 49.0776C117.291 50.0937 118.212 50.6017 119.163 50.6017C119.656 50.6017 120.066 50.4941 120.395 50.2789C120.724 50.0518 120.888 49.7171 120.888 49.2749C120.888 48.8804 120.724 48.5696 120.395 48.3425C120.066 48.1154 119.591 48.0018 118.969 48.0018H117.843V45.3123H118.899C119.345 45.3123 119.709 45.2107 119.99 45.0075C120.272 44.8043 120.413 44.5234 120.413 44.1648C120.413 43.7823 120.289 43.4954 120.043 43.3041C119.808 43.1009 119.48 42.9993 119.057 42.9993C118.212 42.9993 117.485 43.4356 116.875 44.3082L115.255 42.3718C115.678 41.7502 116.259 41.2541 116.998 40.8836C117.749 40.5011 118.559 40.3098 119.427 40.3098C120.577 40.3098 121.498 40.6266 122.19 41.2601C122.883 41.8817 123.229 42.7423 123.229 43.842C123.229 44.9298 122.713 45.8203 121.68 46.5136V46.5674C123.029 46.9977 123.704 47.9958 123.704 49.5617C123.704 50.6734 123.258 51.5759 122.366 52.2692C121.475 52.9505 120.448 53.2912 119.286 53.2912Z" fill="white"/>
<path d="M138.75 53.076H135.934V48.0197H131.445V53.076H128.629V40.525H131.445V45.3302H135.934V40.525H138.75V53.076Z" fill="white"/>
<path d="M151.685 53.076H144.205V40.525H151.509V43.2145H147.021V45.4199H150.981V48.1094H147.021V50.3865H151.685V53.076Z" fill="white"/>
<path d="M165.157 48.8872V52.7379C164.038 53.1512 163.116 53.3578 162.391 53.3578C160.473 53.3578 158.887 52.7317 157.633 51.4794C157.043 50.8783 156.582 50.177 156.25 49.3756C155.931 48.5616 155.771 47.7414 155.771 46.9149C155.771 46.0509 155.937 45.2118 156.269 44.3979C156.613 43.5839 157.068 42.8826 157.633 42.2941C158.887 40.9917 160.436 40.3406 162.28 40.3406C163.178 40.3406 164.137 40.5534 165.157 40.9792V44.8675C164.432 43.9533 163.503 43.4962 162.372 43.4962C161.5 43.4962 160.762 43.7717 160.16 44.3227C159.447 44.999 159.09 45.8568 159.09 46.8961C159.09 47.8854 159.422 48.6994 160.086 49.338C160.688 49.9141 161.45 50.2021 162.372 50.2021C163.442 50.2021 164.37 49.7638 165.157 48.8872Z" fill="white"/>
<path d="M180.518 53.076H175.392V40.5472H180.15C181.367 40.5472 182.264 40.8728 182.842 41.5239C183.346 42.0875 183.598 42.8701 183.598 43.8719C183.598 44.4229 183.481 44.9363 183.248 45.4122C183.002 45.8755 182.67 46.2011 182.252 46.389C182.94 46.4641 183.5 46.7146 183.93 47.1403C184.483 47.6788 184.76 48.4427 184.76 49.432C184.76 50.4588 184.458 51.279 183.856 51.8926C183.106 52.6816 181.994 53.076 180.518 53.076ZM178.582 43.0454V45.4873H179.172C179.738 45.4873 180.143 45.3558 180.389 45.0929C180.586 44.8925 180.684 44.617 180.684 44.2664C180.684 43.9283 180.586 43.6465 180.389 43.4211C180.143 43.1707 179.738 43.0454 179.172 43.0454H178.582ZM178.582 47.9105V50.5402H179.301C180.334 50.5402 180.992 50.3711 181.274 50.033C181.447 49.8327 181.533 49.5634 181.533 49.2253C181.533 48.8371 181.428 48.5366 181.219 48.3237C180.949 48.0482 180.291 47.9105 179.246 47.9105H178.582Z" fill="white"/>
<path d="M205.239 53.076H202.422V43.2145H198.11V53.076H195.294V40.525H202.422C204.561 40.525 205.239 41.1226 205.239 43.2145V53.076Z" fill="white"/>
<path d="M220.431 53.076H217.615V43.2145H214.904L214.64 45.5813C214.394 47.7568 214.042 49.4243 213.584 50.5837C213.138 51.7313 212.593 52.4784 211.947 52.825C211.313 53.1717 210.486 53.2553 209.465 53.076L209.518 50.2072C209.776 50.255 209.987 50.255 210.152 50.2072C210.328 50.1474 210.516 49.998 210.715 49.759C210.914 49.5079 211.096 49.1314 211.261 48.6294C211.624 47.5536 211.9 45.6888 212.088 43.0352C212.088 41.6918 212.803 40.525 214.904 40.525H220.431V53.076Z" fill="white"/>
<path d="M228.711 53.076H225.895V40.525H228.711V45.3302H230.26C230.565 43.8241 231.252 42.6168 232.32 41.7084C233.387 40.776 234.719 40.3098 236.315 40.3098C238.216 40.3098 239.753 40.9015 240.927 42.0849C242.1 43.2444 242.687 44.8162 242.687 46.8005C242.687 48.6891 242.094 50.2491 240.909 51.4803C239.724 52.6875 238.193 53.2912 236.315 53.2912C234.766 53.2912 233.423 52.819 232.284 51.8747C231.146 50.9304 230.454 49.6454 230.207 48.0197H228.711V53.076ZM233.112 46.8005C233.112 47.8763 233.434 48.7788 234.08 49.5079C234.725 50.2371 235.5 50.6017 236.403 50.6017C237.494 50.6017 238.316 50.261 238.867 49.5797C239.419 48.8983 239.695 47.9719 239.695 46.8005C239.695 45.653 239.395 44.7326 238.797 44.0393C238.199 43.346 237.401 42.9993 236.403 42.9993C235.453 42.9993 234.666 43.3519 234.044 44.0572C233.423 44.7624 233.112 45.6769 233.112 46.8005Z" fill="white"/>
<path d="M255.803 48.8872V52.7379C254.684 53.1512 253.762 53.3578 253.037 53.3578C251.119 53.3578 249.533 52.7317 248.279 51.4794C247.689 50.8783 247.228 50.177 246.896 49.3756C246.576 48.5616 246.417 47.7414 246.417 46.9149C246.417 46.0509 246.583 45.2118 246.915 44.3979C247.259 43.5839 247.714 42.8826 248.279 42.2941C249.533 40.9917 251.082 40.3406 252.926 40.3406C253.823 40.3406 254.782 40.5534 255.803 40.9792V44.8675C255.077 43.9533 254.149 43.4962 253.018 43.4962C252.145 43.4962 251.408 43.7717 250.805 44.3227C250.092 44.999 249.736 45.8568 249.736 46.8961C249.736 47.8854 250.068 48.6994 250.732 49.338C251.334 49.9141 252.096 50.2021 253.018 50.2021C254.088 50.2021 255.016 49.7638 255.803 48.8872Z" fill="white"/>
<path d="M268 53.076H260.519V40.525H267.824V43.2145H263.335V45.4199H267.296V48.1094H263.335V50.3865H268V53.076Z" fill="white"/>
<path d="M157.719 69.2087H155.908V63.2767H153.139V69.1398H151.328V61.6777H156.03C157.313 61.6777 157.719 62.033 157.719 63.2767V69.2087Z" fill="#0CDBCE"/>
<path d="M91.5758 61.626H93.3912L90.7413 67.3695C90.4632 67.979 90.1362 68.4308 89.7603 68.7247C89.3919 69.0116 88.9484 69.155 88.4297 69.155C88.2117 69.155 87.9862 69.1227 87.7531 69.0582C87.5201 68.9865 87.3472 68.9076 87.2344 68.8215L87.8659 67.3588C88.0614 67.4807 88.2455 67.5416 88.4184 67.5416C88.7116 67.5416 88.9071 67.4412 89.0048 67.2405L89.1063 67.0146L85.7122 61.626H87.7531L89.9745 65.3044L91.5758 61.626Z" fill="#0CDBCE"/>
<path d="M104.727 66.5951V69.155H102.923V61.626C103.269 61.626 103.648 61.6224 104.062 61.6152C104.483 61.608 104.907 61.6045 105.336 61.6045C106.449 61.6045 107.26 61.8411 107.772 62.3143C108.275 62.7732 108.527 63.3684 108.527 64.0998C108.527 64.8025 108.26 65.4012 107.726 65.896C107.193 66.3836 106.486 66.6274 105.607 66.6274C105.216 66.6274 104.922 66.6166 104.727 66.5951ZM105.516 63.2178C105.509 63.2178 105.475 63.2214 105.415 63.2286C105.355 63.2286 105.261 63.2322 105.133 63.2393C105.005 63.2393 104.87 63.2393 104.727 63.2393V64.9602C105.043 64.9961 105.317 65.014 105.55 65.014C105.858 65.014 106.11 64.9387 106.306 64.7881C106.509 64.6304 106.61 64.3974 106.61 64.089C106.61 63.5082 106.246 63.2178 105.516 63.2178Z" fill="#0CDBCE"/>
<path d="M110.066 69.155H108.251L111.532 61.626H113.145L116.426 69.155H114.498L113.844 67.5739H110.72L110.066 69.155ZM113.167 65.9605L112.288 63.8309L111.397 65.9605H113.167Z" fill="#0CDBCE"/>
<path d="M120.494 69.155H117.241V61.7102H120.26C121.032 61.7102 121.602 61.9037 121.968 62.2906C122.288 62.6254 122.448 63.0905 122.448 63.6858C122.448 64.0132 122.374 64.3183 122.226 64.601C122.07 64.8764 121.859 65.0698 121.594 65.1814C122.031 65.2261 122.386 65.3749 122.659 65.6279C123.01 65.9479 123.185 66.4018 123.185 66.9896C123.185 67.5998 122.994 68.0872 122.612 68.4518C122.136 68.9206 121.43 69.155 120.494 69.155ZM119.265 63.1947V64.6457H119.64C119.998 64.6457 120.256 64.5676 120.412 64.4113C120.537 64.2922 120.599 64.1285 120.599 63.9202C120.599 63.7193 120.537 63.5519 120.412 63.4179C120.256 63.2691 119.998 63.1947 119.64 63.1947H119.265ZM119.265 66.0855V67.6482H119.722C120.377 67.6482 120.794 67.5477 120.974 67.3468C121.083 67.2277 121.137 67.0678 121.137 66.8668C121.137 66.6362 121.071 66.4576 120.938 66.3311C120.767 66.1674 120.35 66.0855 119.686 66.0855H119.265Z" fill="#0CDBCE"/>
<path d="M130.906 69.155H129.102V63.2393H127.365L127.196 64.6591C127.038 65.9641 126.813 66.9644 126.519 67.6599C126.234 68.3483 125.884 68.7964 125.471 69.0044C125.065 69.2123 124.535 69.2625 123.881 69.155L123.915 67.4341C124.08 67.4627 124.215 67.4627 124.321 67.4341C124.433 67.3982 124.554 67.3086 124.681 67.1652C124.809 67.0146 124.926 66.7887 125.031 66.4876C125.264 65.8422 125.441 64.7236 125.561 63.1318C125.636 62.1418 126.083 61.626 127.365 61.626H130.906V69.155Z" fill="#0CDBCE"/>
<path d="M138.161 69.155H136.357V66.7349H135.556L134.056 69.155H132.038L133.887 66.3585C133.075 65.8996 132.669 65.2148 132.669 64.3041C132.669 63.5226 132.948 62.8736 133.504 62.3574C134.053 61.8411 134.906 61.5829 136.063 61.5829C136.116 61.5829 136.188 61.5865 136.278 61.5937C136.368 61.5937 136.496 61.5973 136.661 61.6045C136.834 61.6045 136.988 61.6045 137.123 61.6045C137.266 61.6045 137.42 61.608 137.586 61.6152C137.751 61.6152 137.875 61.6188 137.958 61.626C138.048 61.626 138.116 61.626 138.161 61.626V69.155ZM135.409 65.1216H136.357V63.2393C136.229 63.2106 136.011 63.1963 135.703 63.1963C135.387 63.1963 135.12 63.2895 134.902 63.476C134.692 63.6552 134.586 63.8918 134.586 64.1858C134.586 64.4368 134.661 64.6447 134.812 64.8097C134.962 64.9674 135.161 65.0714 135.409 65.1216Z" fill="#0CDBCE"/>
<path d="M145.26 64.4762L141.764 69.155H140.186V61.626H141.99V66.3047L145.486 61.626H147.064V69.155H145.26V64.4762ZM141.426 59.6899H143.118C143.118 59.8907 143.17 60.0305 143.275 60.1094C143.381 60.1883 143.561 60.2277 143.817 60.2277C144.057 60.2277 144.226 60.1919 144.324 60.1202C144.422 60.0413 144.471 59.8979 144.471 59.6899H146.162C146.177 60.2062 145.963 60.6221 145.519 60.9376C145.083 61.2531 144.516 61.4109 143.817 61.4109C143.073 61.4109 142.486 61.2567 142.058 60.9484C141.637 60.6329 141.426 60.2134 141.426 59.6899Z" fill="#0CDBCE"/>
<path d="M159.19 65.3905C159.19 64.279 159.577 63.3541 160.352 62.6155C161.133 61.8698 162.144 61.4969 163.385 61.4969C164.618 61.4969 165.621 61.8518 166.396 62.5617C167.185 63.2716 167.58 64.2145 167.58 65.3905C167.58 66.5234 167.181 67.4556 166.384 68.187C165.595 68.9183 164.595 69.284 163.385 69.284C162.16 69.284 161.152 68.9291 160.363 68.2192C159.581 67.5093 159.19 66.5664 159.19 65.3905ZM161.107 65.3905C161.107 66.0286 161.329 66.57 161.772 67.0146C162.208 67.452 162.746 67.6707 163.385 67.6707C164.107 67.6707 164.667 67.4592 165.065 67.0361C165.463 66.5987 165.663 66.0502 165.663 65.3905C165.663 64.7093 165.445 64.1607 165.009 63.7448C164.565 63.3218 164.024 63.1103 163.385 63.1103C162.723 63.1103 162.178 63.3218 161.75 63.7448C161.321 64.1679 161.107 64.7164 161.107 65.3905Z" fill="#0CDBCE"/>
<path d="M171.849 66.95H168.872V65.4442H171.849V66.95Z" fill="#0CDBCE"/>
<path d="M179.914 69.155H178.11V66.1219H175.235V69.155H173.431V61.626H175.235V64.5085H178.11V61.626H179.914V69.155Z" fill="#0CDBCE"/>
<path d="M181.379 65.3905C181.379 64.279 181.766 63.3541 182.54 62.6155C183.322 61.8698 184.333 61.4969 185.574 61.4969C186.807 61.4969 187.81 61.8518 188.585 62.5617C189.374 63.2716 189.769 64.2145 189.769 65.3905C189.769 66.5234 189.37 67.4556 188.573 68.187C187.784 68.9183 186.784 69.284 185.574 69.284C184.348 69.284 183.341 68.9291 182.552 68.2192C181.77 67.5093 181.379 66.5664 181.379 65.3905ZM183.296 65.3905C183.296 66.0286 183.518 66.57 183.961 67.0146C184.397 67.452 184.935 67.6707 185.574 67.6707C186.295 67.6707 186.856 67.4592 187.254 67.0361C187.652 66.5987 187.852 66.0502 187.852 65.3905C187.852 64.7093 187.634 64.1607 187.198 63.7448C186.754 63.3218 186.213 63.1103 185.574 63.1103C184.912 63.1103 184.367 63.3218 183.939 63.7448C183.51 64.1679 183.296 64.7164 183.296 65.3905Z" fill="#0CDBCE"/>
<path d="M194.294 69.155H191.041V61.7102H194.06C194.833 61.7102 195.402 61.9037 195.769 62.2906C196.088 62.6254 196.248 63.0905 196.248 63.6858C196.248 64.0132 196.174 64.3183 196.026 64.601C195.87 64.8764 195.659 65.0698 195.394 65.1814C195.831 65.2261 196.186 65.3749 196.459 65.6279C196.81 65.9479 196.986 66.4018 196.986 66.9896C196.986 67.5998 196.794 68.0872 196.412 68.4518C195.936 68.9206 195.23 69.155 194.294 69.155ZM193.066 63.1947V64.6457H193.44C193.799 64.6457 194.056 64.5676 194.212 64.4113C194.337 64.2922 194.4 64.1285 194.4 63.9202C194.4 63.7193 194.337 63.5519 194.212 63.4179C194.056 63.2691 193.799 63.1947 193.44 63.1947H193.066ZM193.066 66.0855V67.6482H193.522C194.177 67.6482 194.595 67.5477 194.774 67.3468C194.883 67.2277 194.938 67.0678 194.938 66.8668C194.938 66.6362 194.872 66.4576 194.739 66.3311C194.567 66.1674 194.15 66.0855 193.487 66.0855H193.066Z" fill="#0CDBCE"/>
<path d="M197.907 65.3905C197.907 64.279 198.294 63.3541 199.068 62.6155C199.85 61.8698 200.861 61.4969 202.101 61.4969C203.334 61.4969 204.338 61.8518 205.112 62.5617C205.901 63.2716 206.296 64.2145 206.296 65.3905C206.296 66.5234 205.898 67.4556 205.101 68.187C204.312 68.9183 203.312 69.284 202.101 69.284C200.876 69.284 199.869 68.9291 199.079 68.2192C198.298 67.5093 197.907 66.5664 197.907 65.3905ZM199.824 65.3905C199.824 66.0286 200.045 66.57 200.489 67.0146C200.925 67.452 201.462 67.6707 202.101 67.6707C202.823 67.6707 203.383 67.4592 203.782 67.0361C204.18 66.5987 204.379 66.0502 204.379 65.3905C204.379 64.7093 204.161 64.1607 203.725 63.7448C203.282 63.3218 202.74 63.1103 202.101 63.1103C201.44 63.1103 200.895 63.3218 200.466 63.7448C200.038 64.1679 199.824 64.7164 199.824 65.3905Z" fill="#0CDBCE"/>
<path d="M209.569 69.155H207.764V61.626H209.58L212.016 64.7989L214.316 61.626H216.019V69.155H214.214V64.3579L212.016 67.2942H211.756L209.569 64.3902V69.155Z" fill="#0CDBCE"/>
<path d="M223.011 61.626H224.827L222.177 67.3695C221.898 67.979 221.571 68.4308 221.196 68.7247C220.827 69.0116 220.384 69.155 219.865 69.155C219.647 69.155 219.422 69.1227 219.188 69.0582C218.955 68.9865 218.783 68.9076 218.67 68.8215L219.301 67.3588C219.497 67.4807 219.681 67.5416 219.854 67.5416C220.147 67.5416 220.342 67.4412 220.44 67.2405L220.542 67.0146L217.147 61.626H219.188L221.41 65.3044L223.011 61.626Z" fill="#0CDBCE"/>
<path d="M100.944 69.2087H99.1336V63.2767H96.3641V69.1398H94.5533V61.6777H99.2552C100.538 61.6777 100.944 62.033 100.944 63.2767V69.2087Z" fill="#0CDBCE"/>
<path fill-rule="evenodd" clip-rule="evenodd" d="M53.4507 40.366L61.6516 40.366C66.1967 40.366 69.4022 43.5575 69.4022 48.011L69.4022 61.6954C69.4022 66.2547 65.9003 69.2281 61.6516 69.2281L15.5357 69.2281C12.1104 69.2281 8 65.9573 8.00001 61.6954L8.00001 48.011C8.00001 43.8019 11.4254 40.366 15.5357 40.366L23.809 40.366L23.809 44.575L15.5357 44.575C13.6518 44.575 12.1104 46.1212 12.1104 48.011L12.1104 61.6954C12.1104 63.4795 13.8297 65.1049 15.5357 65.1049L61.6516 65.1049C63.4301 65.1049 65.3074 63.4795 65.3074 61.6954L65.3074 48.011C65.3074 46.1344 63.5289 44.575 61.6516 44.575L53.4507 44.575L53.4507 40.366Z" fill="white"/>
<path d="M23.809 40.366L23.809 44.575L53.4507 44.575L53.4507 40.366L23.809 40.366Z" fill="white"/>
<g filter="url(#filter0_dddd_1134_1523)">
<path fill-rule="evenodd" clip-rule="evenodd" d="M53.0872 69.2342L53.0872 77.8192C53.0872 82.3784 49.9057 85.594 45.466 85.594L31.8242 85.594C27.2792 85.594 24.315 82.0811 24.315 77.8192L24.315 31.5591C24.315 28.1231 27.5756 23.9999 31.8242 23.9999L45.466 23.9999C49.6619 23.9999 53.0872 27.436 53.0872 31.5591L53.0872 40.3538L48.8913 40.3538L48.8913 31.5591C48.8913 29.6693 47.3499 28.1231 45.466 28.1231L31.8242 28.1231C30.0457 28.1231 28.4253 29.8478 28.4253 31.5591L28.4253 77.8192C28.4253 79.6032 30.0457 81.4864 31.8242 81.4864L45.466 81.4864C47.3367 81.4864 48.8913 79.7023 48.8913 77.8192L48.8913 69.2342L53.0872 69.2342Z" fill="#0CDBCE"/>
</g>
<g filter="url(#filter1_dddd_1134_1523)">
<path d="M61.2942 56.9524L61.2942 52.7433L32.5038 52.7433L32.5038 56.9524L61.2942 56.9524Z" fill="#83DA40"/>
</g>
<defs>
<filter id="filter0_dddd_1134_1523" x="0.315002" y="0" width="76.7722" height="109.594" filterUnits="userSpaceOnUse" color-interpolation-filters="sRGB">
<feFlood flood-opacity="0" result="BackgroundImageFix"/>
<feColorMatrix in="SourceAlpha" type="matrix" values="0 0 0 0 0 0 0 0 0 0 0 0 0 0 0 0 0 0 127 0" result="hardAlpha"/>
<feOffset dx="4" dy="4"/>
<feGaussianBlur stdDeviation="10"/>
<feComposite in2="hardAlpha" operator="out"/>
<feColorMatrix type="matrix" values="0 0 0 0 0.0117647 0 0 0 0 0.988235 0 0 0 0 0.929412 0 0 0 0.25 0"/>
<feBlend mode="normal" in2="BackgroundImageFix" result="effect1_dropShadow_1134_1523"/>
<feColorMatrix in="SourceAlpha" type="matrix" values="0 0 0 0 0 0 0 0 0 0 0 0 0 0 0 0 0 0 127 0" result="hardAlpha"/>
<feOffset dx="-4" dy="-4"/>
<feGaussianBlur stdDeviation="10"/>
<feComposite in2="hardAlpha" operator="out"/>
<feColorMatrix type="matrix" values="0 0 0 0 0.0117647 0 0 0 0 0.988235 0 0 0 0 0.929412 0 0 0 0.25 0"/>
<feBlend mode="normal" in2="effect1_dropShadow_1134_1523" result="effect2_dropShadow_1134_1523"/>
<feColorMatrix in="SourceAlpha" type="matrix" values="0 0 0 0 0 0 0 0 0 0 0 0 0 0 0 0 0 0 127 0" result="hardAlpha"/>
<feOffset dx="2" dy="2"/>
<feGaussianBlur stdDeviation="10"/>
<feComposite in2="hardAlpha" operator="out"/>
<feColorMatrix type="matrix" values="0 0 0 0 0.0117647 0 0 0 0 0.988235 0 0 0 0 0.929412 0 0 0 0.25 0"/>
<feBlend mode="normal" in2="effect2_dropShadow_1134_1523" result="effect3_dropShadow_1134_1523"/>
<feColorMatrix in="SourceAlpha" type="matrix" values="0 0 0 0 0 0 0 0 0 0 0 0 0 0 0 0 0 0 127 0" result="hardAlpha"/>
<feOffset dx="-2" dy="-2"/>
<feGaussianBlur stdDeviation="10"/>
<feComposite in2="hardAlpha" operator="out"/>
<feColorMatrix type="matrix" values="0 0 0 0 0.0117647 0 0 0 0 0.988235 0 0 0 0 0.929412 0 0 0 0.25 0"/>
<feBlend mode="normal" in2="effect3_dropShadow_1134_1523" result="effect4_dropShadow_1134_1523"/>
<feBlend mode="normal" in="SourceGraphic" in2="effect4_dropShadow_1134_1523" result="shape"/>
</filter>
<filter id="filter1_dddd_1134_1523" x="8.50385" y="28.7434" width="76.7904" height="52.209" filterUnits="userSpaceOnUse" color-interpolation-filters="sRGB">
<feFlood flood-opacity="0" result="BackgroundImageFix"/>
<feColorMatrix in="SourceAlpha" type="matrix" values="0 0 0 0 0 0 0 0 0 0 0 0 0 0 0 0 0 0 127 0" result="hardAlpha"/>
<feOffset dx="4" dy="4"/>
<feGaussianBlur stdDeviation="10"/>
<feComposite in2="hardAlpha" operator="out"/>
<feColorMatrix type="matrix" values="0 0 0 0 0.580392 0 0 0 0 0.945098 0 0 0 0 0.294118 0 0 0 0.25 0"/>
<feBlend mode="normal" in2="BackgroundImageFix" result="effect1_dropShadow_1134_1523"/>
<feColorMatrix in="SourceAlpha" type="matrix" values="0 0 0 0 0 0 0 0 0 0 0 0 0 0 0 0 0 0 127 0" result="hardAlpha"/>
<feOffset dx="-4" dy="-4"/>
<feGaussianBlur stdDeviation="10"/>
<feComposite in2="hardAlpha" operator="out"/>
<feColorMatrix type="matrix" values="0 0 0 0 0.580392 0 0 0 0 0.945098 0 0 0 0 0.294118 0 0 0 0.25 0"/>
<feBlend mode="normal" in2="effect1_dropShadow_1134_1523" result="effect2_dropShadow_1134_1523"/>
<feColorMatrix in="SourceAlpha" type="matrix" values="0 0 0 0 0 0 0 0 0 0 0 0 0 0 0 0 0 0 127 0" result="hardAlpha"/>
<feOffset dx="2" dy="2"/>
<feGaussianBlur stdDeviation="10"/>
<feComposite in2="hardAlpha" operator="out"/>
<feColorMatrix type="matrix" values="0 0 0 0 0.580392 0 0 0 0 0.945098 0 0 0 0 0.294118 0 0 0 0.25 0"/>
<feBlend mode="normal" in2="effect2_dropShadow_1134_1523" result="effect3_dropShadow_1134_1523"/>
<feColorMatrix in="SourceAlpha" type="matrix" values="0 0 0 0 0 0 0 0 0 0 0 0 0 0 0 0 0 0 127 0" result="hardAlpha"/>
<feOffset dx="-2" dy="-2"/>
<feGaussianBlur stdDeviation="10"/>
<feComposite in2="hardAlpha" operator="out"/>
<feColorMatrix type="matrix" values="0 0 0 0 0.580392 0 0 0 0 0.945098 0 0 0 0 0.294118 0 0 0 0.25 0"/>
<feBlend mode="normal" in2="effect3_dropShadow_1134_1523" result="effect4_dropShadow_1134_1523"/>
<feBlend mode="normal" in="SourceGraphic" in2="effect4_dropShadow_1134_1523" result="shape"/>
</filter>
</defs>
</svg>
