<svg width="56" height="53" viewBox="0 0 56 53" fill="none" xmlns="http://www.w3.org/2000/svg">
<rect width="56" height="53" fill="#F5F5F5"/>
<g clip-path="url(#clip0_990_868)">
<rect width="1920" height="3190" transform="translate(-622 -306)" fill="white"/>
<path d="M-246.5 -82H923V177H-246.5V-82Z" fill="url(#paint0_linear_990_868)"/>
<path d="M-255 177C-255 181.419 -251.418 185 -247 185C-242.582 185 -239 181.419 -239 177C-239 172.582 -242.582 169 -247 169C-251.418 169 -255 172.582 -255 177ZM960.497 -79.0999C960.442 -79.9265 959.727 -80.5519 958.9 -80.4968L945.43 -79.5987C944.604 -79.5436 943.978 -78.8289 944.033 -78.0023C944.088 -77.1757 944.803 -76.5503 945.63 -76.6054L957.603 -77.4037L958.401 -65.4303C958.457 -64.6037 959.171 -63.9783 959.998 -64.0334C960.824 -64.0885 961.45 -64.8032 961.395 -65.6298L960.497 -79.0999ZM-48.5 162.001L-48.387 163.497L-48.3532 163.494L-48.3195 163.49L-48.5 162.001ZM149.5 138L149.68 139.489L149.72 139.485L149.759 139.478L149.5 138ZM346.5 103.5L346.42 102.003L346.33 102.007L346.241 102.023L346.5 103.5ZM552.5 92.4999L552.58 93.9978L552.728 93.9899L552.871 93.9534L552.5 92.4999ZM725 48.5003L725.371 49.9538L725.483 49.9252L725.589 49.8797L725 48.5003ZM920.5 -34.9996L921.089 -33.6202L921.404 -33.7545L921.629 -34.0119L920.5 -34.9996ZM-246.887 178.496L-48.387 163.497L-48.613 160.505L-247.113 175.505L-246.887 178.496ZM-48.3195 163.49L149.68 139.489L149.319 136.511L-48.6805 160.512L-48.3195 163.49ZM149.759 139.478L346.759 104.978L346.241 102.023L149.241 136.523L149.759 139.478ZM346.58 104.998L552.58 93.9978L552.42 91.002L346.42 102.003L346.58 104.998ZM552.871 93.9534L725.371 49.9538L724.629 47.0468L552.129 91.0464L552.871 93.9534ZM725.589 49.8797L921.089 -33.6202L919.911 -36.3791L724.411 47.1209L725.589 49.8797ZM921.629 -34.0119L960.129 -78.0124L957.871 -79.9879L919.371 -35.9874L921.629 -34.0119Z" fill="#45A4CD"/>
<path d="M25.1715 15.9C25.1715 16.596 25.0995 17.268 24.9555 17.916C24.8115 18.564 24.5595 19.2 24.1995 19.824C23.8635 20.424 23.4075 21.024 22.8315 21.624C22.2795 22.224 21.5955 22.824 20.7795 23.424L15.7395 27.24H24.7755C25.0395 27.24 25.2675 27.336 25.4595 27.528C25.6515 27.72 25.7475 27.948 25.7475 28.212V32.028C25.7475 32.292 25.6515 32.52 25.4595 32.712C25.2675 32.904 25.0395 33 24.7755 33H5.76747C5.50347 33 5.27547 32.904 5.08347 32.712C4.89147 32.52 4.79547 32.292 4.79547 32.028V28.932C4.79547 28.548 4.86747 28.164 5.01147 27.78C5.17947 27.396 5.45547 27.072 5.83947 26.808L16.6035 19.104C17.4435 18.48 17.9715 17.916 18.1875 17.412C18.4035 16.884 18.5115 16.38 18.5115 15.9C18.5115 15.732 18.4755 15.504 18.4035 15.216C18.3555 14.904 18.2235 14.604 18.0075 14.316C17.7915 14.004 17.4795 13.74 17.0715 13.524C16.6875 13.308 16.1595 13.2 15.4875 13.2C14.8155 13.2 14.2635 13.32 13.8315 13.56C13.4235 13.776 13.0995 14.028 12.8595 14.316C12.6435 14.604 12.4755 14.904 12.3555 15.216C12.2595 15.504 12.1875 15.72 12.1395 15.864C12.0195 16.2 11.8275 16.428 11.5635 16.548C11.3235 16.644 11.0355 16.692 10.6995 16.692H6.27147C6.05547 16.692 5.86347 16.62 5.69547 16.476C5.55147 16.308 5.47947 16.116 5.47947 15.9C5.50347 14.892 5.71947 13.896 6.12747 12.912C6.53547 11.904 7.14747 10.992 7.96347 10.176C8.80347 9.36 9.83547 8.7 11.0595 8.196C12.3075 7.692 13.7715 7.44 15.4515 7.44C17.0355 7.44 18.4275 7.68 19.6275 8.16C20.8515 8.616 21.8715 9.24 22.6875 10.032C23.5035 10.8 24.1155 11.7 24.5235 12.732C24.9555 13.74 25.1715 14.796 25.1715 15.9ZM41.732 33C41.468 33 41.24 32.904 41.048 32.712C40.856 32.52 40.76 32.292 40.76 32.028V28.356H29.42C29.156 28.356 28.928 28.26 28.736 28.068C28.544 27.876 28.448 27.648 28.448 27.384V23.568C28.448 22.944 28.604 22.428 28.916 22.02L39.68 8.448C39.896 8.184 40.088 8.016 40.256 7.944C40.448 7.848 40.7 7.8 41.012 7.8H46.448C46.712 7.8 46.94 7.896 47.132 8.088C47.324 8.28 47.42 8.508 47.42 8.772V22.596H50.516C50.78 22.596 51.008 22.692 51.2 22.884C51.392 23.076 51.488 23.304 51.488 23.568V27.384C51.488 27.648 51.392 27.876 51.2 28.068C51.008 28.26 50.78 28.356 50.516 28.356H47.42V32.028C47.42 32.292 47.324 32.52 47.132 32.712C46.94 32.904 46.712 33 46.448 33H41.732ZM40.94 22.596V15.972L35.684 22.596H40.94Z" fill="#00C4B8"/>
<path d="M2.56326 44.52L5.47526 41.958C5.53126 41.9113 5.60126 41.86 5.68526 41.804C5.77859 41.748 5.89059 41.72 6.02126 41.72H6.69326C6.78659 41.72 6.86592 41.7527 6.93126 41.818C6.99659 41.8833 7.02926 41.9627 7.02926 42.056C7.02926 42.1027 7.01992 42.1493 7.00126 42.196C6.99192 42.2333 6.94992 42.28 6.87526 42.336L3.48726 45.304L7.21126 48.398C7.30459 48.4727 7.35126 48.5613 7.35126 48.664C7.35126 48.7573 7.31859 48.8367 7.25326 48.902C7.18792 48.9673 7.10859 49 7.01526 49H6.28726C6.14726 49 6.02592 48.972 5.92326 48.916C5.82992 48.86 5.75992 48.8087 5.71326 48.762L2.56326 46.144V48.622C2.56326 48.7247 2.52592 48.8133 2.45126 48.888C2.37659 48.9627 2.28792 49 2.18526 49H1.66726C1.56459 49 1.47592 48.9627 1.40126 48.888C1.32659 48.8133 1.28926 48.7247 1.28926 48.622V42.098C1.28926 41.9953 1.32659 41.9067 1.40126 41.832C1.47592 41.7573 1.56459 41.72 1.66726 41.72H2.18526C2.28792 41.72 2.37659 41.7573 2.45126 41.832C2.52592 41.9067 2.56326 41.9953 2.56326 42.098V44.52ZM9.41571 42.098C9.41571 41.9953 9.45304 41.9067 9.52771 41.832C9.60238 41.7573 9.69104 41.72 9.79371 41.72H14.5117C14.6144 41.72 14.703 41.7573 14.7777 41.832C14.8524 41.9067 14.8897 41.9953 14.8897 42.098V48.622C14.8897 48.7247 14.8524 48.8133 14.7777 48.888C14.703 48.9627 14.6144 49 14.5117 49H13.9937C13.891 49 13.8024 48.9627 13.7277 48.888C13.653 48.8133 13.6157 48.7247 13.6157 48.622V42.924H10.6897V46.578C10.6897 46.9607 10.6477 47.3107 10.5637 47.628C10.489 47.936 10.3584 48.202 10.1717 48.426C9.99438 48.65 9.75638 48.8273 9.45771 48.958C9.15904 49.0793 8.79038 49.14 8.35171 49.14H8.18371C8.08104 49.14 7.99238 49.1027 7.91771 49.028C7.84304 48.9533 7.80571 48.8647 7.80571 48.762V48.314C7.80571 48.2113 7.84304 48.1227 7.91771 48.048C7.99238 47.9733 8.08104 47.936 8.18371 47.936H8.35171C8.78104 47.936 9.06571 47.8147 9.20571 47.572C9.34571 47.32 9.41571 46.984 9.41571 46.564V42.098ZM22.5846 49C22.4819 49 22.3932 48.9627 22.3186 48.888C22.2439 48.8133 22.2066 48.7247 22.2066 48.622V43.932L18.1326 48.846C18.0579 48.9487 17.9552 49 17.8246 49H17.3486C17.2459 49 17.1572 48.9627 17.0826 48.888C17.0172 48.8133 16.9846 48.7247 16.9846 48.622V42.098C16.9846 41.9953 17.0219 41.9067 17.0966 41.832C17.1712 41.7573 17.2599 41.72 17.3626 41.72H17.8806C17.9832 41.72 18.0719 41.7573 18.1466 41.832C18.2212 41.9067 18.2586 41.9953 18.2586 42.098V46.83L22.3326 41.874C22.3792 41.8273 22.4212 41.79 22.4586 41.762C22.5052 41.734 22.5659 41.72 22.6406 41.72H23.1026C23.2052 41.72 23.2939 41.7573 23.3686 41.832C23.4432 41.9067 23.4806 41.9953 23.4806 42.098V48.622C23.4806 48.7247 23.4432 48.8133 23.3686 48.888C23.2939 48.9627 23.2052 49 23.1026 49H22.5846ZM25.2482 44.66C25.2855 44.2307 25.3882 43.8293 25.5562 43.456C25.7242 43.0827 25.9435 42.756 26.2142 42.476C26.4848 42.196 26.8068 41.9767 27.1802 41.818C27.5628 41.6593 27.9875 41.58 28.4542 41.58C28.9582 41.58 29.4062 41.664 29.7982 41.832C30.1995 41.9907 30.5402 42.224 30.8202 42.532C31.1002 42.84 31.3148 43.2133 31.4642 43.652C31.6135 44.0907 31.6882 44.5807 31.6882 45.122V45.5C31.6882 45.6027 31.6508 45.6913 31.5762 45.766C31.5015 45.8407 31.4128 45.878 31.3102 45.878H26.4942V45.962C26.5128 46.5967 26.7042 47.0867 27.0682 47.432C27.4415 47.768 27.9035 47.936 28.4542 47.936C28.9675 47.936 29.3502 47.866 29.6022 47.726C29.8635 47.5767 30.0735 47.4133 30.2322 47.236C30.3068 47.1613 30.3722 47.11 30.4282 47.082C30.4842 47.054 30.5682 47.04 30.6802 47.04H31.1002C31.2028 47.04 31.2962 47.0773 31.3802 47.152C31.4642 47.2267 31.4968 47.3153 31.4782 47.418C31.4502 47.586 31.3708 47.7727 31.2402 47.978C31.1095 48.174 30.9182 48.3607 30.6662 48.538C30.4235 48.706 30.1155 48.8507 29.7422 48.972C29.3782 49.084 28.9488 49.14 28.4542 49.14C27.9875 49.14 27.5675 49.0607 27.1942 48.902C26.8208 48.734 26.4942 48.51 26.2142 48.23C25.9435 47.9407 25.7242 47.6047 25.5562 47.222C25.3882 46.83 25.2855 46.4053 25.2482 45.948C25.2015 45.5187 25.2015 45.0893 25.2482 44.66ZM26.4942 44.702H30.4282V44.66C30.4282 44.0907 30.2462 43.638 29.8822 43.302C29.5275 42.9567 29.0515 42.784 28.4542 42.784C28.1835 42.784 27.9315 42.8307 27.6982 42.924C27.4648 43.008 27.2595 43.134 27.0822 43.302C26.9048 43.4607 26.7648 43.6567 26.6622 43.89C26.5595 44.1233 26.5035 44.38 26.4942 44.66V44.702ZM39.4951 41.72C39.5978 41.72 39.6865 41.7573 39.7611 41.832C39.8358 41.9067 39.8731 41.9953 39.8731 42.098V48.622C39.8731 48.7247 39.8358 48.8133 39.7611 48.888C39.6865 48.9627 39.5978 49 39.4951 49H38.9771C38.8745 49 38.7858 48.9627 38.7111 48.888C38.6365 48.8133 38.5991 48.7247 38.5991 48.622V45.892H34.6511V48.622C34.6511 48.7247 34.6138 48.8133 34.5391 48.888C34.4645 48.9627 34.3758 49 34.2731 49H33.7551C33.6525 49 33.5638 48.9673 33.4891 48.902C33.4145 48.8273 33.3771 48.734 33.3771 48.622V42.098C33.3771 41.9953 33.4145 41.9067 33.4891 41.832C33.5638 41.7573 33.6525 41.72 33.7551 41.72H34.2731C34.3758 41.72 34.4645 41.7573 34.5391 41.832C34.6138 41.9067 34.6511 41.9953 34.6511 42.098V44.688H38.5991V42.098C38.5991 41.9953 38.6365 41.9067 38.7111 41.832C38.7858 41.7573 38.8745 41.72 38.9771 41.72H39.4951ZM47.6328 41.72C47.7354 41.72 47.8241 41.7573 47.8988 41.832C47.9734 41.9067 48.0108 41.9953 48.0108 42.098V42.546C48.0108 42.6487 47.9734 42.7373 47.8988 42.812C47.8241 42.8867 47.7354 42.924 47.6328 42.924H45.2108V48.622C45.2108 48.7247 45.1734 48.8133 45.0988 48.888C45.0241 48.9627 44.9354 49 44.8328 49H44.3148C44.2121 49 44.1234 48.9627 44.0488 48.888C43.9741 48.8133 43.9368 48.7247 43.9368 48.622V42.924H41.5148C41.4121 42.924 41.3234 42.8867 41.2488 42.812C41.1741 42.7373 41.1368 42.6487 41.1368 42.546V42.098C41.1368 41.9953 41.1741 41.9067 41.2488 41.832C41.3234 41.7573 41.4121 41.72 41.5148 41.72H47.6328ZM48.6502 47.166C48.6502 46.7927 48.7248 46.466 48.8742 46.186C49.0235 45.906 49.2288 45.668 49.4902 45.472C49.7515 45.276 50.0548 45.1173 50.4002 44.996C50.7548 44.8747 51.1282 44.7813 51.5202 44.716L53.4942 44.394V44.212C53.4942 43.736 53.3355 43.3813 53.0182 43.148C52.7102 42.9053 52.3228 42.784 51.8562 42.784C51.4455 42.784 51.1328 42.8587 50.9182 43.008C50.7128 43.1573 50.5355 43.3347 50.3862 43.54C50.3302 43.6147 50.2695 43.666 50.2042 43.694C50.1388 43.722 50.0502 43.736 49.9382 43.736H49.5182C49.4155 43.736 49.3222 43.6987 49.2382 43.624C49.1635 43.5493 49.1308 43.4607 49.1402 43.358C49.1588 43.1527 49.2382 42.9427 49.3782 42.728C49.5275 42.5133 49.7235 42.322 49.9662 42.154C50.2182 41.986 50.5028 41.8507 50.8202 41.748C51.1468 41.636 51.4922 41.58 51.8562 41.58C52.2762 41.58 52.6635 41.6407 53.0182 41.762C53.3822 41.8833 53.6902 42.0607 53.9422 42.294C54.2035 42.5273 54.4042 42.8167 54.5442 43.162C54.6935 43.5073 54.7682 43.904 54.7682 44.352V48.622C54.7682 48.7247 54.7308 48.8133 54.6562 48.888C54.5815 48.9627 54.4928 49 54.3902 49H53.8722C53.7695 49 53.6808 48.9627 53.6062 48.888C53.5315 48.8133 53.4942 48.7247 53.4942 48.622V48.048C53.4102 48.2253 53.2795 48.384 53.1022 48.524C52.9248 48.6547 52.7195 48.7667 52.4862 48.86C52.2622 48.9533 52.0242 49.0233 51.7722 49.07C51.5295 49.1167 51.3008 49.14 51.0862 49.14C50.7222 49.14 50.3862 49.0887 50.0782 48.986C49.7795 48.8833 49.5228 48.748 49.3082 48.58C49.1028 48.4027 48.9395 48.1927 48.8182 47.95C48.7062 47.7073 48.6502 47.446 48.6502 47.166ZM51.2262 47.936C51.5622 47.936 51.8702 47.8847 52.1502 47.782C52.4302 47.6793 52.6682 47.5393 52.8642 47.362C53.0695 47.1753 53.2235 46.956 53.3262 46.704C53.4382 46.452 53.4942 46.172 53.4942 45.864V45.514L51.8422 45.78C51.2542 45.8733 50.7875 46.0227 50.4422 46.228C50.0968 46.4333 49.9242 46.6993 49.9242 47.026C49.9242 47.1287 49.9475 47.2313 49.9942 47.334C50.0408 47.4367 50.1155 47.5347 50.2182 47.628C50.3208 47.7213 50.4515 47.796 50.6102 47.852C50.7782 47.908 50.9835 47.936 51.2262 47.936Z" fill="#353744"/>
</g>
<defs>
<linearGradient id="paint0_linear_990_868" x1="923" y1="58" x2="-245" y2="58.0001" gradientUnits="userSpaceOnUse">
<stop stop-color="#83DA40"/>
<stop offset="0.96" stop-color="#0CDBCE" stop-opacity="0"/>
</linearGradient>
<clipPath id="clip0_990_868">
<rect width="1920" height="3190" fill="white" transform="translate(-622 -306)"/>
</clipPath>
</defs>
</svg>
