<svg width="127" height="53" viewBox="0 0 127 53" fill="none" xmlns="http://www.w3.org/2000/svg">
<rect width="127" height="53" fill="#F5F5F5"/>
<g clip-path="url(#clip0_990_868)">
<rect width="1920" height="3190" transform="translate(-587 -246)" fill="white"/>
<path d="M-211.5 -22H958V237H-211.5V-22Z" fill="url(#paint0_linear_990_868)"/>
<path d="M-220 237C-220 241.419 -216.418 245 -212 245C-207.582 245 -204 241.419 -204 237C-204 232.582 -207.582 229 -212 229C-216.418 229 -220 232.582 -220 237ZM995.497 -19.0999C995.442 -19.9265 994.727 -20.5519 993.9 -20.4968L980.43 -19.5987C979.604 -19.5436 978.978 -18.8289 979.033 -18.0023C979.088 -17.1757 979.803 -16.5503 980.63 -16.6054L992.603 -17.4037L993.401 -5.43026C993.457 -4.60366 994.171 -3.97826 994.998 -4.03337C995.824 -4.08848 996.45 -4.80324 996.395 -5.62983L995.497 -19.0999ZM-13.5 222.001L-13.387 223.497L-13.3532 223.494L-13.3195 223.49L-13.5 222.001ZM184.5 198L184.68 199.489L184.72 199.485L184.759 199.478L184.5 198ZM381.5 163.5L381.42 162.003L381.33 162.007L381.241 162.023L381.5 163.5ZM587.5 152.5L587.58 153.998L587.728 153.99L587.871 153.953L587.5 152.5ZM760 108.5L760.371 109.954L760.483 109.925L760.589 109.88L760 108.5ZM955.5 25.0004L956.089 26.3798L956.404 26.2455L956.629 25.9881L955.5 25.0004ZM-211.887 238.496L-13.387 223.497L-13.613 220.505L-212.113 235.505L-211.887 238.496ZM-13.3195 223.49L184.68 199.489L184.319 196.511L-13.6805 220.512L-13.3195 223.49ZM184.759 199.478L381.759 164.978L381.241 162.023L184.241 196.523L184.759 199.478ZM381.58 164.998L587.58 153.998L587.42 151.002L381.42 162.003L381.58 164.998ZM587.871 153.953L760.371 109.954L759.629 107.047L587.129 151.046L587.871 153.953ZM760.589 109.88L956.089 26.3798L954.911 23.6209L759.411 107.121L760.589 109.88ZM956.629 25.9881L995.129 -18.0124L992.871 -19.9879L954.371 24.0126L956.629 25.9881Z" fill="#45A4CD"/>
<path d="M53.3922 15.36C53.3922 14.184 53.6562 13.116 54.1842 12.156C54.7362 11.172 55.4682 10.332 56.3802 9.636C57.3162 8.94 58.3962 8.4 59.6202 8.016C60.8442 7.632 62.1402 7.44 63.5082 7.44C64.8762 7.44 66.1722 7.632 67.3962 8.016C68.6202 8.4 69.6882 8.94 70.6002 9.636C71.5362 10.332 72.2682 11.172 72.7962 12.156C73.3482 13.116 73.6242 14.184 73.6242 15.36C73.6242 16.32 73.4562 17.208 73.1202 18.024C72.7842 18.816 72.3042 19.536 71.6802 20.184C72.4482 20.856 73.0482 21.636 73.4802 22.524C73.9362 23.388 74.1642 24.36 74.1642 25.44C74.1642 26.616 73.8882 27.696 73.3362 28.68C72.7842 29.64 72.0282 30.468 71.0682 31.164C70.1082 31.86 68.9802 32.4 67.6842 32.784C66.3882 33.168 64.9962 33.36 63.5082 33.36C62.0202 33.36 60.6282 33.168 59.3322 32.784C58.0362 32.4 56.9082 31.86 55.9482 31.164C54.9882 30.468 54.2322 29.64 53.6802 28.68C53.1282 27.696 52.8522 26.616 52.8522 25.44C52.8522 24.36 53.0682 23.388 53.5002 22.524C53.9322 21.636 54.5322 20.856 55.3002 20.184C54.7002 19.536 54.2322 18.816 53.8962 18.024C53.5602 17.208 53.3922 16.32 53.3922 15.36ZM59.5122 25.512C59.5122 26.208 59.8362 26.796 60.4842 27.276C61.1562 27.732 62.1642 27.96 63.5082 27.96C64.8522 27.96 65.8482 27.732 66.4962 27.276C67.1682 26.796 67.5042 26.208 67.5042 25.512C67.5042 24.816 67.1682 24.24 66.4962 23.784C65.8482 23.304 64.8522 23.064 63.5082 23.064C62.1642 23.064 61.1562 23.304 60.4842 23.784C59.8362 24.24 59.5122 24.816 59.5122 25.512ZM60.0522 15.288C60.0522 15.984 60.3522 16.572 60.9522 17.052C61.5762 17.508 62.4282 17.736 63.5082 17.736C64.5882 17.736 65.4282 17.508 66.0282 17.052C66.6522 16.572 66.9642 15.984 66.9642 15.288C66.9642 14.592 66.6522 14.016 66.0282 13.56C65.4282 13.08 64.5882 12.84 63.5082 12.84C62.4282 12.84 61.5762 13.08 60.9522 13.56C60.3522 14.016 60.0522 14.592 60.0522 15.288Z" fill="#00C4B8"/>
<path d="M1.86817 43.274C1.86817 43.974 2.03617 44.4873 2.37217 44.814C2.70817 45.1313 3.19351 45.29 3.82817 45.29H5.81617V42.098C5.81617 41.9953 5.85351 41.9067 5.92817 41.832C6.00284 41.7573 6.09151 41.72 6.19417 41.72H6.71217C6.81484 41.72 6.90351 41.7573 6.97817 41.832C7.05284 41.9067 7.09017 41.9953 7.09017 42.098V48.622C7.09017 48.7247 7.05284 48.8133 6.97817 48.888C6.90351 48.9627 6.81484 49 6.71217 49H6.19417C6.09151 49 6.00284 48.9627 5.92817 48.888C5.85351 48.8133 5.81617 48.7247 5.81617 48.622V46.494H3.70217C2.71284 46.494 1.94751 46.2187 1.40617 45.668C0.864839 45.1173 0.594172 44.3427 0.594172 43.344V42.098C0.594172 41.9953 0.631505 41.9067 0.706172 41.832C0.780839 41.7573 0.869505 41.72 0.972172 41.72H1.49017C1.59284 41.72 1.68151 41.7573 1.75617 41.832C1.83084 41.9067 1.86817 41.9953 1.86817 42.098V43.274ZM8.85658 44.66C8.89391 44.2307 8.99658 43.8293 9.16458 43.456C9.33258 43.0827 9.55191 42.756 9.82258 42.476C10.0932 42.196 10.4152 41.9767 10.7886 41.818C11.1712 41.6593 11.5959 41.58 12.0626 41.58C12.5666 41.58 13.0146 41.664 13.4066 41.832C13.8079 41.9907 14.1486 42.224 14.4286 42.532C14.7086 42.84 14.9232 43.2133 15.0726 43.652C15.2219 44.0907 15.2966 44.5807 15.2966 45.122V45.5C15.2966 45.6027 15.2592 45.6913 15.1846 45.766C15.1099 45.8407 15.0212 45.878 14.9186 45.878H10.1026V45.962C10.1212 46.5967 10.3126 47.0867 10.6766 47.432C11.0499 47.768 11.5119 47.936 12.0626 47.936C12.5759 47.936 12.9586 47.866 13.2106 47.726C13.4719 47.5767 13.6819 47.4133 13.8406 47.236C13.9152 47.1613 13.9806 47.11 14.0366 47.082C14.0926 47.054 14.1766 47.04 14.2886 47.04H14.7086C14.8112 47.04 14.9046 47.0773 14.9886 47.152C15.0726 47.2267 15.1052 47.3153 15.0866 47.418C15.0586 47.586 14.9792 47.7727 14.8486 47.978C14.7179 48.174 14.5266 48.3607 14.2746 48.538C14.0319 48.706 13.7239 48.8507 13.3506 48.972C12.9866 49.084 12.5572 49.14 12.0626 49.14C11.5959 49.14 11.1759 49.0607 10.8026 48.902C10.4292 48.734 10.1026 48.51 9.82258 48.23C9.55191 47.9407 9.33258 47.6047 9.16458 47.222C8.99658 46.83 8.89391 46.4053 8.85658 45.948C8.80991 45.5187 8.80991 45.0893 8.85658 44.66ZM10.1026 44.702H14.0366V44.66C14.0366 44.0907 13.8546 43.638 13.4906 43.302C13.1359 42.9567 12.6599 42.784 12.0626 42.784C11.7919 42.784 11.5399 42.8307 11.3066 42.924C11.0732 43.008 10.8679 43.134 10.6906 43.302C10.5132 43.4607 10.3732 43.6567 10.2706 43.89C10.1679 44.1233 10.1119 44.38 10.1026 44.66V44.702ZM17.7975 42.098C17.7975 41.9953 17.8349 41.9067 17.9095 41.832C17.9842 41.7573 18.0729 41.72 18.1755 41.72H22.8935C22.9962 41.72 23.0849 41.7573 23.1595 41.832C23.2342 41.9067 23.2715 41.9953 23.2715 42.098V48.622C23.2715 48.7247 23.2342 48.8133 23.1595 48.888C23.0849 48.9627 22.9962 49 22.8935 49H22.3755C22.2729 49 22.1842 48.9627 22.1095 48.888C22.0349 48.8133 21.9975 48.7247 21.9975 48.622V42.924H19.0715V46.578C19.0715 46.9607 19.0295 47.3107 18.9455 47.628C18.8709 47.936 18.7402 48.202 18.5535 48.426C18.3762 48.65 18.1382 48.8273 17.8395 48.958C17.5409 49.0793 17.1722 49.14 16.7335 49.14H16.5655C16.4629 49.14 16.3742 49.1027 16.2995 49.028C16.2249 48.9533 16.1875 48.8647 16.1875 48.762V48.314C16.1875 48.2113 16.2249 48.1227 16.2995 48.048C16.3742 47.9733 16.4629 47.936 16.5655 47.936H16.7335C17.1629 47.936 17.4475 47.8147 17.5875 47.572C17.7275 47.32 17.7975 46.984 17.7975 46.564V42.098ZM28.3484 41.58C28.8524 41.58 29.3004 41.6593 29.6924 41.818C30.0844 41.9673 30.4204 42.1773 30.7004 42.448C30.9804 42.7187 31.1997 43.05 31.3584 43.442C31.5264 43.8247 31.6291 44.2447 31.6664 44.702C31.6757 44.786 31.6804 44.8887 31.6804 45.01C31.6804 45.122 31.6804 45.2433 31.6804 45.374C31.6804 45.4953 31.6804 45.6167 31.6804 45.738C31.6804 45.85 31.6757 45.9433 31.6664 46.018C31.6197 46.4847 31.5171 46.9093 31.3584 47.292C31.1997 47.6747 30.9804 48.0013 30.7004 48.272C30.4204 48.5427 30.0844 48.7573 29.6924 48.916C29.3004 49.0653 28.8524 49.14 28.3484 49.14C27.8444 49.14 27.3964 49.0653 27.0044 48.916C26.6124 48.7573 26.2764 48.5427 25.9964 48.272C25.7164 48.0013 25.4924 47.6747 25.3244 47.292C25.1657 46.9093 25.0677 46.4847 25.0304 46.018C25.0211 45.9433 25.0117 45.85 25.0024 45.738C25.0024 45.6167 25.0024 45.4953 25.0024 45.374C25.0024 45.2433 25.0024 45.122 25.0024 45.01C25.0117 44.8887 25.0211 44.786 25.0304 44.702C25.0677 44.2447 25.1657 43.8247 25.3244 43.442C25.4924 43.05 25.7164 42.7187 25.9964 42.448C26.2764 42.1773 26.6124 41.9673 27.0044 41.818C27.3964 41.6593 27.8444 41.58 28.3484 41.58ZM30.3924 45.948C30.4111 45.7893 30.4204 45.598 30.4204 45.374C30.4204 45.1407 30.4111 44.94 30.3924 44.772C30.3644 44.492 30.3037 44.2307 30.2104 43.988C30.1171 43.7453 29.9864 43.5353 29.8184 43.358C29.6504 43.1807 29.4451 43.0407 29.2024 42.938C28.9597 42.8353 28.6751 42.784 28.3484 42.784C28.0217 42.784 27.7371 42.8353 27.4944 42.938C27.2517 43.0407 27.0464 43.1807 26.8784 43.358C26.7104 43.5353 26.5797 43.7453 26.4864 43.988C26.3931 44.2307 26.3324 44.492 26.3044 44.772C26.2857 44.94 26.2764 45.1407 26.2764 45.374C26.2764 45.598 26.2857 45.7893 26.3044 45.948C26.3324 46.228 26.3931 46.4893 26.4864 46.732C26.5797 46.9747 26.7104 47.1847 26.8784 47.362C27.0464 47.5393 27.2517 47.6793 27.4944 47.782C27.7371 47.8847 28.0217 47.936 28.3484 47.936C28.6751 47.936 28.9597 47.8847 29.2024 47.782C29.4451 47.6793 29.6504 47.5393 29.8184 47.362C29.9864 47.1847 30.1171 46.9747 30.2104 46.732C30.3037 46.4893 30.3644 46.228 30.3924 45.948ZM34.7205 45.934V47.782H37.0865C37.5532 47.782 37.9265 47.7167 38.2065 47.586C38.4865 47.446 38.6265 47.1987 38.6265 46.844C38.6265 46.4893 38.4912 46.2513 38.2205 46.13C37.9592 45.9993 37.5952 45.934 37.1285 45.934H34.7205ZM34.7205 42.938V44.716H37.0165C37.4832 44.716 37.8425 44.6553 38.0945 44.534C38.3465 44.4033 38.4725 44.1607 38.4725 43.806C38.4725 43.4513 38.3325 43.218 38.0525 43.106C37.7818 42.994 37.4132 42.938 36.9465 42.938H34.7205ZM33.7265 49C33.6518 49 33.5865 48.972 33.5305 48.916C33.4745 48.86 33.4465 48.7947 33.4465 48.72V42C33.4465 41.9253 33.4745 41.86 33.5305 41.804C33.5865 41.748 33.6518 41.72 33.7265 41.72H37.1985C38.0012 41.72 38.6265 41.8973 39.0745 42.252C39.5225 42.6067 39.7465 43.078 39.7465 43.666C39.7465 43.8807 39.7185 44.0673 39.6625 44.226C39.6158 44.3847 39.5505 44.5247 39.4665 44.646C39.3918 44.7673 39.3032 44.8747 39.2005 44.968C39.1072 45.0613 39.0092 45.1453 38.9065 45.22C39.2892 45.4347 39.5505 45.682 39.6905 45.962C39.8305 46.242 39.9005 46.564 39.9005 46.928C39.9005 47.6 39.6672 48.1133 39.2005 48.468C38.7432 48.8227 38.1272 49 37.3525 49H33.7265ZM41.341 44.66C41.3783 44.2307 41.481 43.8293 41.649 43.456C41.817 43.0827 42.0363 42.756 42.307 42.476C42.5776 42.196 42.8996 41.9767 43.273 41.818C43.6556 41.6593 44.0803 41.58 44.547 41.58C45.051 41.58 45.499 41.664 45.891 41.832C46.2923 41.9907 46.633 42.224 46.913 42.532C47.193 42.84 47.4076 43.2133 47.557 43.652C47.7063 44.0907 47.781 44.5807 47.781 45.122V45.5C47.781 45.6027 47.7436 45.6913 47.669 45.766C47.5943 45.8407 47.5056 45.878 47.403 45.878H42.587V45.962C42.6056 46.5967 42.797 47.0867 43.161 47.432C43.5343 47.768 43.9963 47.936 44.547 47.936C45.0603 47.936 45.443 47.866 45.695 47.726C45.9563 47.5767 46.1663 47.4133 46.325 47.236C46.3996 47.1613 46.465 47.11 46.521 47.082C46.577 47.054 46.661 47.04 46.773 47.04H47.193C47.2956 47.04 47.389 47.0773 47.473 47.152C47.557 47.2267 47.5896 47.3153 47.571 47.418C47.543 47.586 47.4636 47.7727 47.333 47.978C47.2023 48.174 47.011 48.3607 46.759 48.538C46.5163 48.706 46.2083 48.8507 45.835 48.972C45.471 49.084 45.0416 49.14 44.547 49.14C44.0803 49.14 43.6603 49.0607 43.287 48.902C42.9136 48.734 42.587 48.51 42.307 48.23C42.0363 47.9407 41.817 47.6047 41.649 47.222C41.481 46.83 41.3783 46.4053 41.341 45.948C41.2943 45.5187 41.2943 45.0893 41.341 44.66ZM42.587 44.702H46.521V44.66C46.521 44.0907 46.339 43.638 45.975 43.302C45.6203 42.9567 45.1443 42.784 44.547 42.784C44.2763 42.784 44.0243 42.8307 43.791 42.924C43.5576 43.008 43.3523 43.134 43.175 43.302C42.9976 43.4607 42.8576 43.6567 42.755 43.89C42.6523 44.1233 42.5963 44.38 42.587 44.66V44.702ZM50.7439 44.52L53.6559 41.958C53.7119 41.9113 53.7819 41.86 53.8659 41.804C53.9593 41.748 54.0713 41.72 54.2019 41.72H54.8739C54.9673 41.72 55.0466 41.7527 55.1119 41.818C55.1773 41.8833 55.2099 41.9627 55.2099 42.056C55.2099 42.1027 55.2006 42.1493 55.1819 42.196C55.1726 42.2333 55.1306 42.28 55.0559 42.336L51.6679 45.304L55.3919 48.398C55.4853 48.4727 55.5319 48.5613 55.5319 48.664C55.5319 48.7573 55.4993 48.8367 55.4339 48.902C55.3686 48.9673 55.2893 49 55.1959 49H54.4679C54.3279 49 54.2066 48.972 54.1039 48.916C54.0106 48.86 53.9406 48.8087 53.8939 48.762L50.7439 46.144V48.622C50.7439 48.7247 50.7066 48.8133 50.6319 48.888C50.5573 48.9627 50.4686 49 50.3659 49H49.8479C49.7453 49 49.6566 48.9627 49.5819 48.888C49.5073 48.8133 49.4699 48.7247 49.4699 48.622V42.098C49.4699 41.9953 49.5073 41.9067 49.5819 41.832C49.6566 41.7573 49.7453 41.72 49.8479 41.72H50.3659C50.4686 41.72 50.5573 41.7573 50.6319 41.832C50.7066 41.9067 50.7439 41.9953 50.7439 42.098V44.52ZM61.4763 45.934V47.782H63.8423C64.309 47.782 64.6823 47.7167 64.9623 47.586C65.2423 47.446 65.3823 47.1987 65.3823 46.844C65.3823 46.4893 65.247 46.2513 64.9763 46.13C64.715 45.9993 64.351 45.934 63.8843 45.934H61.4763ZM61.4763 42.938V44.716H63.7723C64.239 44.716 64.5983 44.6553 64.8503 44.534C65.1023 44.4033 65.2283 44.1607 65.2283 43.806C65.2283 43.4513 65.0883 43.218 64.8083 43.106C64.5377 42.994 64.169 42.938 63.7023 42.938H61.4763ZM60.4823 49C60.4077 49 60.3423 48.972 60.2863 48.916C60.2303 48.86 60.2023 48.7947 60.2023 48.72V42C60.2023 41.9253 60.2303 41.86 60.2863 41.804C60.3423 41.748 60.4077 41.72 60.4823 41.72H63.9543C64.757 41.72 65.3823 41.8973 65.8303 42.252C66.2783 42.6067 66.5023 43.078 66.5023 43.666C66.5023 43.8807 66.4743 44.0673 66.4183 44.226C66.3717 44.3847 66.3063 44.5247 66.2223 44.646C66.1477 44.7673 66.059 44.8747 65.9563 44.968C65.863 45.0613 65.765 45.1453 65.6623 45.22C66.045 45.4347 66.3063 45.682 66.4463 45.962C66.5863 46.242 66.6563 46.564 66.6563 46.928C66.6563 47.6 66.423 48.1133 65.9563 48.468C65.499 48.8227 64.883 49 64.1083 49H60.4823ZM72.7888 45.85C72.8261 46.2233 72.9054 46.5407 73.0268 46.802C73.1574 47.0633 73.3114 47.278 73.4888 47.446C73.6754 47.614 73.8808 47.74 74.1048 47.824C74.3288 47.8987 74.5574 47.936 74.7908 47.936C75.2388 47.936 75.6214 47.852 75.9388 47.684C76.2561 47.516 76.5034 47.236 76.6808 46.844C76.7461 46.6947 76.8114 46.5967 76.8768 46.55C76.9514 46.494 77.0401 46.466 77.1428 46.466H77.5628C77.6654 46.466 77.7541 46.5033 77.8288 46.578C77.9128 46.6527 77.9501 46.7413 77.9408 46.844C77.9314 47.068 77.8568 47.3153 77.7168 47.586C77.5861 47.8473 77.3854 48.0947 77.1148 48.328C76.8534 48.552 76.5268 48.7433 76.1348 48.902C75.7521 49.0607 75.3041 49.14 74.7908 49.14C74.2774 49.14 73.8201 49.056 73.4188 48.888C73.0268 48.72 72.6908 48.4913 72.4108 48.202C72.1401 47.9127 71.9254 47.572 71.7668 47.18C71.6174 46.788 71.5334 46.368 71.5148 45.92C71.5054 45.7707 71.4961 45.5887 71.4868 45.374C71.4868 45.15 71.4961 44.9587 71.5148 44.8C71.5521 44.352 71.6454 43.932 71.7948 43.54C71.9534 43.148 72.1681 42.8073 72.4388 42.518C72.7094 42.2287 73.0408 42 73.4328 41.832C73.8248 41.664 74.2774 41.58 74.7908 41.58C75.3041 41.58 75.7521 41.6593 76.1348 41.818C76.5268 41.9767 76.8534 42.1727 77.1148 42.406C77.3854 42.63 77.5861 42.8773 77.7168 43.148C77.8568 43.4093 77.9314 43.652 77.9408 43.876C77.9501 43.9787 77.9128 44.0673 77.8288 44.142C77.7541 44.2167 77.6654 44.254 77.5628 44.254H77.1428C77.0401 44.254 76.9514 44.2307 76.8768 44.184C76.8114 44.128 76.7461 44.0253 76.6808 43.876C76.5034 43.484 76.2561 43.204 75.9388 43.036C75.6214 42.868 75.2388 42.784 74.7908 42.784C74.5574 42.784 74.3241 42.826 74.0908 42.91C73.8668 42.9847 73.6614 43.106 73.4748 43.274C73.2974 43.442 73.1434 43.6567 73.0128 43.918C72.8914 44.1793 72.8168 44.4967 72.7888 44.87C72.7608 45.2153 72.7608 45.542 72.7888 45.85ZM85.2164 49C85.1137 49 85.0251 48.9627 84.9504 48.888C84.8757 48.8133 84.8384 48.7247 84.8384 48.622V43.932L80.7644 48.846C80.6897 48.9487 80.5871 49 80.4564 49H79.9804C79.8777 49 79.7891 48.9627 79.7144 48.888C79.6491 48.8133 79.6164 48.7247 79.6164 48.622V42.098C79.6164 41.9953 79.6537 41.9067 79.7284 41.832C79.8031 41.7573 79.8917 41.72 79.9944 41.72H80.5124C80.6151 41.72 80.7037 41.7573 80.7784 41.832C80.8531 41.9067 80.8904 41.9953 80.8904 42.098V46.83L84.9644 41.874C85.0111 41.8273 85.0531 41.79 85.0904 41.762C85.1371 41.734 85.1977 41.72 85.2724 41.72H85.7344C85.8371 41.72 85.9257 41.7573 86.0004 41.832C86.0751 41.9067 86.1124 41.9953 86.1124 42.098V48.622C86.1124 48.7247 86.0751 48.8133 86.0004 48.888C85.9257 48.9627 85.8371 49 85.7344 49H85.2164ZM89.154 45.85C89.1913 46.2233 89.2707 46.5407 89.392 46.802C89.5227 47.0633 89.6767 47.278 89.854 47.446C90.0407 47.614 90.246 47.74 90.47 47.824C90.694 47.8987 90.9227 47.936 91.156 47.936C91.604 47.936 91.9867 47.852 92.304 47.684C92.6213 47.516 92.8687 47.236 93.046 46.844C93.1113 46.6947 93.1767 46.5967 93.242 46.55C93.3167 46.494 93.4053 46.466 93.508 46.466H93.928C94.0307 46.466 94.1193 46.5033 94.194 46.578C94.278 46.6527 94.3153 46.7413 94.306 46.844C94.2967 47.068 94.222 47.3153 94.082 47.586C93.9513 47.8473 93.7507 48.0947 93.48 48.328C93.2187 48.552 92.892 48.7433 92.5 48.902C92.1173 49.0607 91.6693 49.14 91.156 49.14C90.6427 49.14 90.1853 49.056 89.784 48.888C89.392 48.72 89.056 48.4913 88.776 48.202C88.5053 47.9127 88.2907 47.572 88.132 47.18C87.9827 46.788 87.8987 46.368 87.88 45.92C87.8707 45.7707 87.8613 45.5887 87.852 45.374C87.852 45.15 87.8613 44.9587 87.88 44.8C87.9173 44.352 88.0107 43.932 88.16 43.54C88.3187 43.148 88.5333 42.8073 88.804 42.518C89.0747 42.2287 89.406 42 89.798 41.832C90.19 41.664 90.6427 41.58 91.156 41.58C91.6693 41.58 92.1173 41.6593 92.5 41.818C92.892 41.9767 93.2187 42.1727 93.48 42.406C93.7507 42.63 93.9513 42.8773 94.082 43.148C94.222 43.4093 94.2967 43.652 94.306 43.876C94.3153 43.9787 94.278 44.0673 94.194 44.142C94.1193 44.2167 94.0307 44.254 93.928 44.254H93.508C93.4053 44.254 93.3167 44.2307 93.242 44.184C93.1767 44.128 93.1113 44.0253 93.046 43.876C92.8687 43.484 92.6213 43.204 92.304 43.036C91.9867 42.868 91.604 42.784 91.156 42.784C90.9227 42.784 90.6893 42.826 90.456 42.91C90.232 42.9847 90.0267 43.106 89.84 43.274C89.6627 43.442 89.5087 43.6567 89.378 43.918C89.2567 44.1793 89.182 44.4967 89.154 44.87C89.126 45.2153 89.126 45.542 89.154 45.85ZM101.638 41.72C101.74 41.72 101.829 41.7573 101.904 41.832C101.978 41.9067 102.016 41.9953 102.016 42.098V42.546C102.016 42.6487 101.978 42.7373 101.904 42.812C101.829 42.8867 101.74 42.924 101.638 42.924H99.2156V48.622C99.2156 48.7247 99.1783 48.8133 99.1036 48.888C99.029 48.9627 98.9403 49 98.8376 49H98.3196C98.217 49 98.1283 48.9627 98.0536 48.888C97.979 48.8133 97.9416 48.7247 97.9416 48.622V42.924H95.5196C95.417 42.924 95.3283 42.8867 95.2536 42.812C95.179 42.7373 95.1416 42.6487 95.1416 42.546V42.098C95.1416 41.9953 95.179 41.9067 95.2536 41.832C95.3283 41.7573 95.417 41.72 95.5196 41.72H101.638ZM102.782 44.66C102.82 44.2307 102.922 43.8293 103.09 43.456C103.258 43.0827 103.478 42.756 103.748 42.476C104.019 42.196 104.341 41.9767 104.714 41.818C105.097 41.6593 105.522 41.58 105.988 41.58C106.492 41.58 106.94 41.664 107.332 41.832C107.734 41.9907 108.074 42.224 108.354 42.532C108.634 42.84 108.849 43.2133 108.998 43.652C109.148 44.0907 109.222 44.5807 109.222 45.122V45.5C109.222 45.6027 109.185 45.6913 109.11 45.766C109.036 45.8407 108.947 45.878 108.844 45.878H104.028V45.962C104.047 46.5967 104.238 47.0867 104.602 47.432C104.976 47.768 105.438 47.936 105.988 47.936C106.502 47.936 106.884 47.866 107.136 47.726C107.398 47.5767 107.608 47.4133 107.766 47.236C107.841 47.1613 107.906 47.11 107.962 47.082C108.018 47.054 108.102 47.04 108.214 47.04H108.634C108.737 47.04 108.83 47.0773 108.914 47.152C108.998 47.2267 109.031 47.3153 109.012 47.418C108.984 47.586 108.905 47.7727 108.774 47.978C108.644 48.174 108.452 48.3607 108.2 48.538C107.958 48.706 107.65 48.8507 107.276 48.972C106.912 49.084 106.483 49.14 105.988 49.14C105.522 49.14 105.102 49.0607 104.728 48.902C104.355 48.734 104.028 48.51 103.748 48.23C103.478 47.9407 103.258 47.6047 103.09 47.222C102.922 46.83 102.82 46.4053 102.782 45.948C102.736 45.5187 102.736 45.0893 102.782 44.66ZM104.028 44.702H107.962V44.66C107.962 44.0907 107.78 43.638 107.416 43.302C107.062 42.9567 106.586 42.784 105.988 42.784C105.718 42.784 105.466 42.8307 105.232 42.924C104.999 43.008 104.794 43.134 104.616 43.302C104.439 43.4607 104.299 43.6567 104.196 43.89C104.094 44.1233 104.038 44.38 104.028 44.66V44.702ZM114.495 46.2L116.721 42C116.749 41.944 116.801 41.8833 116.875 41.818C116.959 41.7527 117.081 41.72 117.239 41.72H117.701C117.804 41.72 117.893 41.7573 117.967 41.832C118.042 41.9067 118.079 41.9953 118.079 42.098V48.622C118.079 48.7247 118.042 48.8133 117.967 48.888C117.893 48.9627 117.804 49 117.701 49H117.183C117.081 49 116.992 48.9627 116.917 48.888C116.843 48.8133 116.805 48.7247 116.805 48.622V44.408L115.153 47.46C115.107 47.544 115.046 47.6233 114.971 47.698C114.906 47.7727 114.803 47.81 114.663 47.81H114.327C114.187 47.81 114.08 47.7727 114.005 47.698C113.94 47.6233 113.884 47.544 113.837 47.46L112.185 44.408V48.622C112.185 48.7247 112.148 48.8133 112.073 48.888C111.999 48.9627 111.91 49 111.807 49H111.289C111.187 49 111.098 48.9627 111.023 48.888C110.949 48.8133 110.911 48.7247 110.911 48.622V42.098C110.911 41.9953 110.949 41.9067 111.023 41.832C111.098 41.7573 111.187 41.72 111.289 41.72H111.751C111.91 41.72 112.027 41.7527 112.101 41.818C112.185 41.8833 112.241 41.944 112.269 42L114.495 46.2ZM119.845 44.66C119.882 44.2307 119.985 43.8293 120.153 43.456C120.321 43.0827 120.54 42.756 120.811 42.476C121.082 42.196 121.404 41.9767 121.777 41.818C122.16 41.6593 122.584 41.58 123.051 41.58C123.555 41.58 124.003 41.664 124.395 41.832C124.796 41.9907 125.137 42.224 125.417 42.532C125.697 42.84 125.912 43.2133 126.061 43.652C126.21 44.0907 126.285 44.5807 126.285 45.122V45.5C126.285 45.6027 126.248 45.6913 126.173 45.766C126.098 45.8407 126.01 45.878 125.907 45.878H121.091V45.962C121.11 46.5967 121.301 47.0867 121.665 47.432C122.038 47.768 122.5 47.936 123.051 47.936C123.564 47.936 123.947 47.866 124.199 47.726C124.46 47.5767 124.67 47.4133 124.829 47.236C124.904 47.1613 124.969 47.11 125.025 47.082C125.081 47.054 125.165 47.04 125.277 47.04H125.697C125.8 47.04 125.893 47.0773 125.977 47.152C126.061 47.2267 126.094 47.3153 126.075 47.418C126.047 47.586 125.968 47.7727 125.837 47.978C125.706 48.174 125.515 48.3607 125.263 48.538C125.02 48.706 124.712 48.8507 124.339 48.972C123.975 49.084 123.546 49.14 123.051 49.14C122.584 49.14 122.164 49.0607 121.791 48.902C121.418 48.734 121.091 48.51 120.811 48.23C120.54 47.9407 120.321 47.6047 120.153 47.222C119.985 46.83 119.882 46.4053 119.845 45.948C119.798 45.5187 119.798 45.0893 119.845 44.66ZM121.091 44.702H125.025V44.66C125.025 44.0907 124.843 43.638 124.479 43.302C124.124 42.9567 123.648 42.784 123.051 42.784C122.78 42.784 122.528 42.8307 122.295 42.924C122.062 43.008 121.856 43.134 121.679 43.302C121.502 43.4607 121.362 43.6567 121.259 43.89C121.156 44.1233 121.1 44.38 121.091 44.66V44.702Z" fill="#353744"/>
</g>
<defs>
<linearGradient id="paint0_linear_990_868" x1="958" y1="118" x2="-210" y2="118" gradientUnits="userSpaceOnUse">
<stop stop-color="#83DA40"/>
<stop offset="0.96" stop-color="#0CDBCE" stop-opacity="0"/>
</linearGradient>
<clipPath id="clip0_990_868">
<rect width="1920" height="3190" fill="white" transform="translate(-587 -246)"/>
</clipPath>
</defs>
</svg>
