<svg width="16" height="16" viewBox="0 0 16 16" fill="none" xmlns="http://www.w3.org/2000/svg">
<rect width="16" height="16" fill="#F5F5F5"/>
<g clip-path="url(#clip0_990_868)">
<rect width="1920" height="3190" transform="translate(-967 -400)" fill="white"/>
<path d="M-591.5 -176H578V83H-591.5V-176Z" fill="url(#paint0_linear_990_868)"/>
<path d="M-600 83.0004C-600 87.4186 -596.418 91.0004 -592 91.0004C-587.582 91.0004 -584 87.4186 -584 83.0004C-584 78.5821 -587.582 75.0004 -592 75.0004C-596.418 75.0004 -600 78.5821 -600 83.0004ZM615.497 -173.1C615.442 -173.927 614.727 -174.552 613.9 -174.497L600.43 -173.599C599.604 -173.544 598.978 -172.829 599.033 -172.002C599.088 -171.176 599.803 -170.55 600.63 -170.605L612.603 -171.404L613.401 -159.43C613.457 -158.604 614.171 -157.978 614.998 -158.033C615.824 -158.088 616.45 -158.803 616.395 -159.63L615.497 -173.1ZM-393.5 68.0009L-393.387 69.4967L-393.353 69.4941L-393.32 69.49L-393.5 68.0009ZM-195.5 44.0002L-195.32 45.4893L-195.28 45.4845L-195.241 45.4777L-195.5 44.0002ZM1.49998 9.50039L1.41997 8.00252L1.33 8.00733L1.24126 8.02288L1.49998 9.50039ZM207.5 -1.5001L207.58 -0.00223418L207.728 -0.0101077L207.871 -0.0466372L207.5 -1.5001ZM380 -45.4997L380.371 -44.0462L380.483 -44.0748L380.589 -44.1203L380 -45.4997ZM575.5 -129L576.089 -127.62L576.404 -127.755L576.629 -128.012L575.5 -129ZM-591.887 84.4961L-393.387 69.4967L-393.613 66.5052L-592.113 81.5046L-591.887 84.4961ZM-393.32 69.49L-195.32 45.4893L-195.681 42.5111L-393.681 66.5118L-393.32 69.49ZM-195.241 45.4777L1.75871 10.9779L1.24126 8.02288L-195.759 42.5227L-195.241 45.4777ZM1.58 10.9983L207.58 -0.00223418L207.42 -2.99796L1.41997 8.00252L1.58 10.9983ZM207.871 -0.0466372L380.371 -44.0462L379.629 -46.9532L207.129 -2.95356L207.871 -0.0466372ZM380.589 -44.1203L576.089 -127.62L574.911 -130.379L379.411 -46.8791L380.589 -44.1203ZM576.629 -128.012L615.129 -172.012L612.871 -173.988L574.371 -129.987L576.629 -128.012Z" fill="#45A4CD"/>
<circle cx="8" cy="8" r="8" fill="#00C4B8"/>
</g>
<defs>
<linearGradient id="paint0_linear_990_868" x1="578" y1="-36" x2="-590" y2="-35.9999" gradientUnits="userSpaceOnUse">
<stop stop-color="#83DA40"/>
<stop offset="0.96" stop-color="#0CDBCE" stop-opacity="0"/>
</linearGradient>
<clipPath id="clip0_990_868">
<rect width="1920" height="3190" fill="white" transform="translate(-967 -400)"/>
</clipPath>
</defs>
</svg>
