<svg width="16" height="16" viewBox="0 0 16 16" fill="none" xmlns="http://www.w3.org/2000/svg">
<rect width="16" height="16" fill="#F5F5F5"/>
<g clip-path="url(#clip0_990_868)">
<rect width="1920" height="3190" transform="translate(-1167 -391)" fill="white"/>
<path d="M-791.5 -167H378V92H-791.5V-167Z" fill="url(#paint0_linear_990_868)"/>
<path d="M-800 92.0004C-800 96.4186 -796.418 100 -792 100C-787.582 100 -784 96.4186 -784 92.0004C-784 87.5821 -787.582 84.0004 -792 84.0004C-796.418 84.0004 -800 87.5821 -800 92.0004ZM415.497 -164.1C415.442 -164.927 414.727 -165.552 413.9 -165.497L400.43 -164.599C399.604 -164.544 398.978 -163.829 399.033 -163.002C399.088 -162.176 399.803 -161.55 400.63 -161.605L412.603 -162.404L413.401 -150.43C413.457 -149.604 414.171 -148.978 414.998 -149.033C415.824 -149.088 416.45 -149.803 416.395 -150.63L415.497 -164.1ZM-593.5 77.0009L-593.387 78.4967L-593.353 78.4941L-593.32 78.49L-593.5 77.0009ZM-395.5 53.0002L-395.32 54.4893L-395.28 54.4845L-395.241 54.4777L-395.5 53.0002ZM-198.5 18.5004L-198.58 17.0025L-198.67 17.0073L-198.759 17.0229L-198.5 18.5004ZM7.49999 7.4999L7.58 8.99777L7.72752 8.98989L7.87071 8.95336L7.49999 7.4999ZM180 -36.4997L180.371 -35.0462L180.483 -35.0748L180.589 -35.1203L180 -36.4997ZM375.5 -120L376.089 -118.62L376.404 -118.755L376.629 -119.012L375.5 -120ZM-791.887 93.4961L-593.387 78.4967L-593.613 75.5052L-792.113 90.5046L-791.887 93.4961ZM-593.32 78.49L-395.32 54.4893L-395.681 51.5111L-593.681 75.5118L-593.32 78.49ZM-395.241 54.4777L-198.241 19.9779L-198.759 17.0229L-395.759 51.5227L-395.241 54.4777ZM-198.42 19.9983L7.58 8.99777L7.41997 6.00204L-198.58 17.0025L-198.42 19.9983ZM7.87071 8.95336L180.371 -35.0462L179.629 -37.9532L7.12926 6.04644L7.87071 8.95336ZM180.589 -35.1203L376.089 -118.62L374.911 -121.379L179.411 -37.8791L180.589 -35.1203ZM376.629 -119.012L415.129 -163.012L412.871 -164.988L374.371 -120.987L376.629 -119.012Z" fill="#45A4CD"/>
<circle cx="8" cy="8" r="8" fill="#00C4B8"/>
</g>
<defs>
<linearGradient id="paint0_linear_990_868" x1="378" y1="-27" x2="-790" y2="-26.9999" gradientUnits="userSpaceOnUse">
<stop stop-color="#83DA40"/>
<stop offset="0.96" stop-color="#0CDBCE" stop-opacity="0"/>
</linearGradient>
<clipPath id="clip0_990_868">
<rect width="1920" height="3190" fill="white" transform="translate(-1167 -391)"/>
</clipPath>
</defs>
</svg>
