<svg width="34" height="34" viewBox="0 0 34 34" fill="none" xmlns="http://www.w3.org/2000/svg">
<rect width="34" height="34" fill="#F5F5F5"/>
<g clip-path="url(#clip0_990_868)">
<rect width="1920" height="3190" transform="translate(-558 -449)" fill="white"/>
<path d="M-182.5 -225H987V34H-182.5V-225Z" fill="url(#paint0_linear_990_868)"/>
<path d="M-191 34.0004C-191 38.4186 -187.418 42.0004 -183 42.0004C-178.582 42.0004 -175 38.4186 -175 34.0004C-175 29.5821 -178.582 26.0004 -183 26.0004C-187.418 26.0004 -191 29.5821 -191 34.0004ZM1024.5 -222.1C1024.44 -222.927 1023.73 -223.552 1022.9 -223.497L1009.43 -222.599C1008.6 -222.544 1007.98 -221.829 1008.03 -221.002C1008.09 -220.176 1008.8 -219.55 1009.63 -219.605L1021.6 -220.404L1022.4 -208.43C1022.46 -207.604 1023.17 -206.978 1024 -207.033C1024.82 -207.088 1025.45 -207.803 1025.39 -208.63L1024.5 -222.1ZM15.5 19.0009L15.613 20.4967L15.6468 20.4941L15.6805 20.49L15.5 19.0009ZM213.5 -4.9998L213.68 -3.51069L213.72 -3.51545L213.759 -3.52229L213.5 -4.9998ZM410.5 -39.4996L410.42 -40.9975L410.33 -40.9927L410.241 -40.9771L410.5 -39.4996ZM616.5 -50.5001L616.58 -49.0022L616.728 -49.0101L616.871 -49.0466L616.5 -50.5001ZM789 -94.4997L789.371 -93.0462L789.483 -93.0748L789.589 -93.1203L789 -94.4997ZM984.5 -178L985.089 -176.62L985.404 -176.755L985.629 -177.012L984.5 -178ZM-182.887 35.4961L15.613 20.4967L15.387 17.5052L-183.113 32.5046L-182.887 35.4961ZM15.6805 20.49L213.68 -3.51069L213.319 -6.4889L15.3195 17.5118L15.6805 20.49ZM213.759 -3.52229L410.759 -38.0221L410.241 -40.9771L213.241 -6.47731L213.759 -3.52229ZM410.58 -38.0017L616.58 -49.0022L616.42 -51.998L410.42 -40.9975L410.58 -38.0017ZM616.871 -49.0466L789.371 -93.0462L788.629 -95.9532L616.129 -51.9536L616.871 -49.0466ZM789.589 -93.1203L985.089 -176.62L983.911 -179.379L788.411 -95.8791L789.589 -93.1203ZM985.629 -177.012L1024.13 -221.012L1021.87 -222.988L983.371 -178.987L985.629 -177.012Z" fill="#45A4CD"/>
<circle cx="17" cy="17" r="17" fill="#83DA40"/>
</g>
<defs>
<linearGradient id="paint0_linear_990_868" x1="987" y1="-85" x2="-181" y2="-84.9999" gradientUnits="userSpaceOnUse">
<stop stop-color="#83DA40"/>
<stop offset="0.96" stop-color="#0CDBCE" stop-opacity="0"/>
</linearGradient>
<clipPath id="clip0_990_868">
<rect width="1920" height="3190" fill="white" transform="translate(-558 -449)"/>
</clipPath>
</defs>
</svg>
