<svg width="140" height="28" viewBox="0 0 140 28" fill="none" xmlns="http://www.w3.org/2000/svg">
<rect width="140" height="28" fill="#F5F5F5"/>
<g clip-path="url(#clip0_990_868)">
<rect width="1920" height="3190" transform="translate(-575 -488)" fill="white"/>
<path d="M-208 -4.99963C-208 -0.581361 -204.418 3.00037 -200 3.00037C-195.582 3.00037 -192 -0.581359 -192 -4.99963C-192 -9.41791 -195.582 -12.9996 -200 -12.9996C-204.418 -12.9996 -208 -9.41791 -208 -4.99963ZM1007.5 -261.1C1007.44 -261.927 1006.73 -262.552 1005.9 -262.497L992.43 -261.599C991.604 -261.544 990.978 -260.829 991.033 -260.002C991.088 -259.176 991.803 -258.55 992.63 -258.605L1004.6 -259.404L1005.4 -247.43C1005.46 -246.604 1006.17 -245.978 1007 -246.033C1007.82 -246.088 1008.45 -246.803 1008.39 -247.63L1007.5 -261.1ZM-1.50002 -19.9991L-1.387 -18.5033L-1.35319 -18.5059L-1.31952 -18.51L-1.50002 -19.9991ZM196.5 -43.9998L196.68 -42.5107L196.72 -42.5155L196.759 -42.5223L196.5 -43.9998ZM393.5 -78.4996L393.42 -79.9975L393.33 -79.9927L393.241 -79.9771L393.5 -78.4996ZM599.5 -89.5001L599.58 -88.0022L599.728 -88.0101L599.871 -88.0466L599.5 -89.5001ZM772 -133.5L772.371 -132.046L772.483 -132.075L772.589 -132.12L772 -133.5ZM967.5 -217L968.089 -215.62L968.404 -215.755L968.629 -216.012L967.5 -217ZM-199.887 -3.50391L-1.387 -18.5033L-1.61304 -21.4948L-200.113 -6.49538L-199.887 -3.50391ZM-1.31952 -18.51L196.68 -42.5107L196.319 -45.4889L-1.68052 -21.4882L-1.31952 -18.51ZM196.759 -42.5223L393.759 -77.0221L393.241 -79.9771L196.241 -45.4773L196.759 -42.5223ZM393.58 -77.0017L599.58 -88.0022L599.42 -90.998L393.42 -79.9975L393.58 -77.0017ZM599.871 -88.0466L772.371 -132.046L771.629 -134.953L599.129 -90.9536L599.871 -88.0466ZM772.589 -132.12L968.089 -215.62L966.911 -218.379L771.411 -134.879L772.589 -132.12ZM968.629 -216.012L1007.13 -260.012L1004.87 -261.988L966.371 -217.987L968.629 -216.012Z" fill="#45A4CD"/>
<path d="M0.504 10.6C0.392 10.456 0.352 10.296 0.384 10.12C0.416 9.944 0.504 9.8 0.648 9.688L5.808 5.728C5.936 5.632 6.088 5.52 6.264 5.392C6.456 5.264 6.672 5.2 6.912 5.2H9.84C10.016 5.2 10.168 5.264 10.296 5.392C10.424 5.52 10.488 5.672 10.488 5.848V21.352C10.488 21.528 10.424 21.68 10.296 21.808C10.168 21.936 10.016 22 9.84 22H6.696C6.52 22 6.368 21.936 6.24 21.808C6.112 21.68 6.048 21.528 6.048 21.352V10.864L3.192 13.024C3.048 13.136 2.888 13.184 2.712 13.168C2.536 13.136 2.392 13.048 2.28 12.904L0.504 10.6ZM26.6143 10.6C26.6143 11.064 26.5663 11.512 26.4703 11.944C26.3743 12.376 26.2063 12.8 25.9663 13.216C25.7423 13.616 25.4383 14.016 25.0543 14.416C24.6863 14.816 24.2303 15.216 23.6863 15.616L20.3263 18.16H26.3503C26.5263 18.16 26.6783 18.224 26.8063 18.352C26.9343 18.48 26.9983 18.632 26.9983 18.808V21.352C26.9983 21.528 26.9343 21.68 26.8063 21.808C26.6783 21.936 26.5263 22 26.3503 22H13.6783C13.5023 22 13.3503 21.936 13.2223 21.808C13.0943 21.68 13.0303 21.528 13.0303 21.352V19.288C13.0303 19.032 13.0783 18.776 13.1743 18.52C13.2863 18.264 13.4703 18.048 13.7263 17.872L20.9023 12.736C21.4623 12.32 21.8143 11.944 21.9583 11.608C22.1023 11.256 22.1743 10.92 22.1743 10.6C22.1743 10.488 22.1503 10.336 22.1023 10.144C22.0703 9.936 21.9823 9.736 21.8383 9.544C21.6943 9.336 21.4863 9.16 21.2143 9.016C20.9583 8.872 20.6063 8.8 20.1583 8.8C19.7103 8.8 19.3423 8.88 19.0543 9.04C18.7823 9.184 18.5663 9.352 18.4063 9.544C18.2623 9.736 18.1503 9.936 18.0703 10.144C18.0063 10.336 17.9583 10.48 17.9263 10.576C17.8463 10.8 17.7183 10.952 17.5423 11.032C17.3823 11.096 17.1903 11.128 16.9663 11.128H14.0143C13.8703 11.128 13.7423 11.08 13.6303 10.984C13.5343 10.872 13.4863 10.744 13.4863 10.6C13.5023 9.928 13.6463 9.264 13.9183 8.608C14.1903 7.936 14.5983 7.328 15.1423 6.784C15.7023 6.24 16.3903 5.8 17.2063 5.464C18.0383 5.128 19.0143 4.96 20.1343 4.96C21.1903 4.96 22.1183 5.12 22.9183 5.44C23.7343 5.744 24.4143 6.16 24.9583 6.688C25.5023 7.2 25.9103 7.8 26.1823 8.488C26.4703 9.16 26.6143 9.864 26.6143 10.6ZM33.7187 21.352C33.7187 21.528 33.6547 21.68 33.5267 21.808C33.3987 21.936 33.2467 22 33.0707 22H29.9267C29.7507 22 29.5987 21.936 29.4707 21.808C29.3427 21.68 29.2787 21.528 29.2787 21.352V18.208C29.2787 18.032 29.3427 17.88 29.4707 17.752C29.5987 17.624 29.7507 17.56 29.9267 17.56H33.0707C33.2467 17.56 33.3987 17.624 33.5267 17.752C33.6547 17.88 33.7187 18.032 33.7187 18.208V21.352ZM42.9669 4.96C44.1669 4.96 45.1989 5.136 46.0629 5.488C46.9269 5.84 47.6389 6.312 48.1989 6.904C48.7749 7.496 49.1989 8.192 49.4709 8.992C49.7589 9.776 49.9269 10.6 49.9749 11.464C50.0069 12.152 50.0229 12.872 50.0229 13.624C50.0229 14.376 50.0069 15.08 49.9749 15.736C49.9269 16.6 49.7589 17.432 49.4709 18.232C49.1989 19.016 48.7749 19.704 48.1989 20.296C47.6389 20.888 46.9269 21.36 46.0629 21.712C45.1989 22.064 44.1669 22.24 42.9669 22.24C41.7669 22.24 40.7349 22.064 39.8709 21.712C39.0069 21.36 38.2869 20.888 37.7109 20.296C37.1509 19.704 36.7269 19.016 36.4389 18.232C36.1669 17.432 36.0069 16.6 35.9589 15.736C35.9269 15.08 35.9109 14.376 35.9109 13.624C35.9109 12.872 35.9269 12.152 35.9589 11.464C36.0069 10.6 36.1669 9.776 36.4389 8.992C36.7269 8.192 37.1509 7.496 37.7109 6.904C38.2869 6.312 39.0069 5.84 39.8709 5.488C40.7349 5.136 41.7669 4.96 42.9669 4.96ZM45.5349 15.616C45.5989 14.256 45.5989 12.912 45.5349 11.584C45.5029 11.184 45.4389 10.816 45.3429 10.48C45.2629 10.144 45.1269 9.856 44.9349 9.616C44.7429 9.36 44.4869 9.16 44.1669 9.016C43.8469 8.872 43.4469 8.8 42.9669 8.8C42.4869 8.8 42.0869 8.872 41.7669 9.016C41.4469 9.16 41.1909 9.36 40.9989 9.616C40.8069 9.856 40.6629 10.144 40.5669 10.48C40.4709 10.816 40.4149 11.184 40.3989 11.584C40.3189 12.912 40.3189 14.256 40.3989 15.616C40.4149 16.016 40.4629 16.384 40.5429 16.72C40.6389 17.056 40.7829 17.352 40.9749 17.608C41.1829 17.848 41.4469 18.04 41.7669 18.184C42.0869 18.328 42.4869 18.4 42.9669 18.4C43.4469 18.4 43.8469 18.328 44.1669 18.184C44.4869 18.04 44.7429 17.848 44.9349 17.608C45.1429 17.352 45.2869 17.056 45.3669 16.72C45.4629 16.384 45.5189 16.016 45.5349 15.616ZM52.7224 10.24C52.7224 9.456 52.8984 8.744 53.2504 8.104C53.6184 7.448 54.1064 6.888 54.7144 6.424C55.3384 5.96 56.0584 5.6 56.8744 5.344C57.6904 5.088 58.5544 4.96 59.4664 4.96C60.3784 4.96 61.2424 5.088 62.0584 5.344C62.8744 5.6 63.5864 5.96 64.1944 6.424C64.8184 6.888 65.3064 7.448 65.6584 8.104C66.0264 8.744 66.2104 9.456 66.2104 10.24C66.2104 10.88 66.0984 11.472 65.8744 12.016C65.6504 12.544 65.3304 13.024 64.9144 13.456C65.4264 13.904 65.8264 14.424 66.1144 15.016C66.4184 15.592 66.5704 16.24 66.5704 16.96C66.5704 17.744 66.3864 18.464 66.0184 19.12C65.6504 19.76 65.1464 20.312 64.5064 20.776C63.8664 21.24 63.1144 21.6 62.2504 21.856C61.3864 22.112 60.4584 22.24 59.4664 22.24C58.4744 22.24 57.5464 22.112 56.6824 21.856C55.8184 21.6 55.0664 21.24 54.4264 20.776C53.7864 20.312 53.2824 19.76 52.9144 19.12C52.5464 18.464 52.3624 17.744 52.3624 16.96C52.3624 16.24 52.5064 15.592 52.7944 15.016C53.0824 14.424 53.4824 13.904 53.9944 13.456C53.5944 13.024 53.2824 12.544 53.0584 12.016C52.8344 11.472 52.7224 10.88 52.7224 10.24ZM56.8024 17.008C56.8024 17.472 57.0184 17.864 57.4504 18.184C57.8984 18.488 58.5704 18.64 59.4664 18.64C60.3624 18.64 61.0264 18.488 61.4584 18.184C61.9064 17.864 62.1304 17.472 62.1304 17.008C62.1304 16.544 61.9064 16.16 61.4584 15.856C61.0264 15.536 60.3624 15.376 59.4664 15.376C58.5704 15.376 57.8984 15.536 57.4504 15.856C57.0184 16.16 56.8024 16.544 56.8024 17.008ZM57.1624 10.192C57.1624 10.656 57.3624 11.048 57.7624 11.368C58.1784 11.672 58.7464 11.824 59.4664 11.824C60.1864 11.824 60.7464 11.672 61.1464 11.368C61.5624 11.048 61.7704 10.656 61.7704 10.192C61.7704 9.728 61.5624 9.344 61.1464 9.04C60.7464 8.72 60.1864 8.56 59.4664 8.56C58.7464 8.56 58.1784 8.72 57.7624 9.04C57.3624 9.344 57.1624 9.728 57.1624 10.192ZM73.3515 21.352C73.3515 21.528 73.2875 21.68 73.1595 21.808C73.0315 21.936 72.8795 22 72.7035 22H69.5595C69.3835 22 69.2315 21.936 69.1035 21.808C68.9755 21.68 68.9115 21.528 68.9115 21.352V18.208C68.9115 18.032 68.9755 17.88 69.1035 17.752C69.2315 17.624 69.3835 17.56 69.5595 17.56H72.7035C72.8795 17.56 73.0315 17.624 73.1595 17.752C73.2875 17.88 73.3515 18.032 73.3515 18.208V21.352ZM89.1221 10.6C89.1221 11.064 89.0741 11.512 88.9781 11.944C88.8821 12.376 88.7141 12.8 88.4741 13.216C88.2501 13.616 87.9461 14.016 87.5621 14.416C87.1941 14.816 86.7381 15.216 86.1941 15.616L82.8341 18.16H88.8581C89.0341 18.16 89.1861 18.224 89.3141 18.352C89.4421 18.48 89.5061 18.632 89.5061 18.808V21.352C89.5061 21.528 89.4421 21.68 89.3141 21.808C89.1861 21.936 89.0341 22 88.8581 22H76.1861C76.0101 22 75.8581 21.936 75.7301 21.808C75.6021 21.68 75.5381 21.528 75.5381 21.352V19.288C75.5381 19.032 75.5861 18.776 75.6821 18.52C75.7941 18.264 75.9781 18.048 76.2341 17.872L83.4101 12.736C83.9701 12.32 84.3221 11.944 84.4661 11.608C84.6101 11.256 84.6821 10.92 84.6821 10.6C84.6821 10.488 84.6581 10.336 84.6101 10.144C84.5781 9.936 84.4901 9.736 84.3461 9.544C84.2021 9.336 83.9941 9.16 83.7221 9.016C83.4661 8.872 83.1141 8.8 82.6661 8.8C82.2181 8.8 81.8501 8.88 81.5621 9.04C81.2901 9.184 81.0741 9.352 80.9141 9.544C80.7701 9.736 80.6581 9.936 80.5781 10.144C80.5141 10.336 80.4661 10.48 80.4341 10.576C80.3541 10.8 80.2261 10.952 80.0501 11.032C79.8901 11.096 79.6981 11.128 79.4741 11.128H76.5221C76.3781 11.128 76.2501 11.08 76.1381 10.984C76.0421 10.872 75.9941 10.744 75.9941 10.6C76.0101 9.928 76.1541 9.264 76.4261 8.608C76.6981 7.936 77.1061 7.328 77.6501 6.784C78.2101 6.24 78.8981 5.8 79.7141 5.464C80.5461 5.128 81.5221 4.96 82.6421 4.96C83.6981 4.96 84.6261 5.12 85.4261 5.44C86.2421 5.744 86.9221 6.16 87.4661 6.688C88.0101 7.2 88.4181 7.8 88.6901 8.488C88.9781 9.16 89.1221 9.864 89.1221 10.6ZM98.8185 4.96C100.019 4.96 101.051 5.136 101.915 5.488C102.779 5.84 103.491 6.312 104.051 6.904C104.627 7.496 105.051 8.192 105.323 8.992C105.611 9.776 105.779 10.6 105.827 11.464C105.859 12.152 105.875 12.872 105.875 13.624C105.875 14.376 105.859 15.08 105.827 15.736C105.779 16.6 105.611 17.432 105.323 18.232C105.051 19.016 104.627 19.704 104.051 20.296C103.491 20.888 102.779 21.36 101.915 21.712C101.051 22.064 100.019 22.24 98.8185 22.24C97.6185 22.24 96.5865 22.064 95.7225 21.712C94.8585 21.36 94.1385 20.888 93.5625 20.296C93.0025 19.704 92.5785 19.016 92.2905 18.232C92.0185 17.432 91.8585 16.6 91.8105 15.736C91.7785 15.08 91.7625 14.376 91.7625 13.624C91.7625 12.872 91.7785 12.152 91.8105 11.464C91.8585 10.6 92.0185 9.776 92.2905 8.992C92.5785 8.192 93.0025 7.496 93.5625 6.904C94.1385 6.312 94.8585 5.84 95.7225 5.488C96.5865 5.136 97.6185 4.96 98.8185 4.96ZM101.387 15.616C101.451 14.256 101.451 12.912 101.387 11.584C101.355 11.184 101.291 10.816 101.195 10.48C101.115 10.144 100.979 9.856 100.787 9.616C100.595 9.36 100.339 9.16 100.019 9.016C99.6985 8.872 99.2985 8.8 98.8185 8.8C98.3385 8.8 97.9385 8.872 97.6185 9.016C97.2985 9.16 97.0425 9.36 96.8505 9.616C96.6585 9.856 96.5145 10.144 96.4185 10.48C96.3225 10.816 96.2665 11.184 96.2505 11.584C96.1705 12.912 96.1705 14.256 96.2505 15.616C96.2665 16.016 96.3145 16.384 96.3945 16.72C96.4905 17.056 96.6345 17.352 96.8265 17.608C97.0345 17.848 97.2985 18.04 97.6185 18.184C97.9385 18.328 98.3385 18.4 98.8185 18.4C99.2985 18.4 99.6985 18.328 100.019 18.184C100.339 18.04 100.595 17.848 100.787 17.608C100.995 17.352 101.139 17.056 101.219 16.72C101.315 16.384 101.371 16.016 101.387 15.616ZM121.63 10.6C121.63 11.064 121.582 11.512 121.486 11.944C121.39 12.376 121.222 12.8 120.982 13.216C120.758 13.616 120.454 14.016 120.07 14.416C119.702 14.816 119.246 15.216 118.702 15.616L115.342 18.16H121.366C121.542 18.16 121.694 18.224 121.822 18.352C121.95 18.48 122.014 18.632 122.014 18.808V21.352C122.014 21.528 121.95 21.68 121.822 21.808C121.694 21.936 121.542 22 121.366 22H108.694C108.518 22 108.366 21.936 108.238 21.808C108.11 21.68 108.046 21.528 108.046 21.352V19.288C108.046 19.032 108.094 18.776 108.19 18.52C108.302 18.264 108.486 18.048 108.742 17.872L115.918 12.736C116.478 12.32 116.83 11.944 116.974 11.608C117.118 11.256 117.19 10.92 117.19 10.6C117.19 10.488 117.166 10.336 117.118 10.144C117.086 9.936 116.998 9.736 116.854 9.544C116.71 9.336 116.502 9.16 116.23 9.016C115.974 8.872 115.622 8.8 115.174 8.8C114.726 8.8 114.358 8.88 114.07 9.04C113.798 9.184 113.582 9.352 113.422 9.544C113.278 9.736 113.166 9.936 113.086 10.144C113.022 10.336 112.974 10.48 112.942 10.576C112.862 10.8 112.734 10.952 112.558 11.032C112.398 11.096 112.206 11.128 111.982 11.128H109.03C108.886 11.128 108.758 11.08 108.646 10.984C108.55 10.872 108.502 10.744 108.502 10.6C108.518 9.928 108.662 9.264 108.934 8.608C109.206 7.936 109.614 7.328 110.158 6.784C110.718 6.24 111.406 5.8 112.222 5.464C113.054 5.128 114.03 4.96 115.15 4.96C116.206 4.96 117.134 5.12 117.934 5.44C118.75 5.744 119.43 6.16 119.974 6.688C120.518 7.2 120.926 7.8 121.198 8.488C121.486 9.16 121.63 9.864 121.63 10.6ZM131.326 4.96C132.526 4.96 133.558 5.136 134.422 5.488C135.286 5.84 135.998 6.312 136.558 6.904C137.134 7.496 137.558 8.192 137.83 8.992C138.118 9.776 138.286 10.6 138.334 11.464C138.366 12.152 138.382 12.872 138.382 13.624C138.382 14.376 138.366 15.08 138.334 15.736C138.286 16.6 138.118 17.432 137.83 18.232C137.558 19.016 137.134 19.704 136.558 20.296C135.998 20.888 135.286 21.36 134.422 21.712C133.558 22.064 132.526 22.24 131.326 22.24C130.126 22.24 129.094 22.064 128.23 21.712C127.366 21.36 126.646 20.888 126.07 20.296C125.51 19.704 125.086 19.016 124.798 18.232C124.526 17.432 124.366 16.6 124.318 15.736C124.286 15.08 124.27 14.376 124.27 13.624C124.27 12.872 124.286 12.152 124.318 11.464C124.366 10.6 124.526 9.776 124.798 8.992C125.086 8.192 125.51 7.496 126.07 6.904C126.646 6.312 127.366 5.84 128.23 5.488C129.094 5.136 130.126 4.96 131.326 4.96ZM133.894 15.616C133.958 14.256 133.958 12.912 133.894 11.584C133.862 11.184 133.798 10.816 133.702 10.48C133.622 10.144 133.486 9.856 133.294 9.616C133.102 9.36 132.846 9.16 132.526 9.016C132.206 8.872 131.806 8.8 131.326 8.8C130.846 8.8 130.446 8.872 130.126 9.016C129.806 9.16 129.55 9.36 129.358 9.616C129.166 9.856 129.022 10.144 128.926 10.48C128.83 10.816 128.774 11.184 128.758 11.584C128.678 12.912 128.678 14.256 128.758 15.616C128.774 16.016 128.822 16.384 128.902 16.72C128.998 17.056 129.142 17.352 129.334 17.608C129.542 17.848 129.806 18.04 130.126 18.184C130.446 18.328 130.846 18.4 131.326 18.4C131.806 18.4 132.206 18.328 132.526 18.184C132.846 18.04 133.102 17.848 133.294 17.608C133.502 17.352 133.646 17.056 133.726 16.72C133.822 16.384 133.878 16.016 133.894 15.616Z" fill="#83DA40"/>
</g>
<defs>
<clipPath id="clip0_990_868">
<rect width="1920" height="3190" fill="white" transform="translate(-575 -488)"/>
</clipPath>
</defs>
</svg>
