<svg width="116" height="24" viewBox="0 0 116 24" fill="none" xmlns="http://www.w3.org/2000/svg">
<rect width="116" height="24" fill="#F5F5F5"/>
<g clip-path="url(#clip0_990_868)">
<rect width="1920" height="3190" transform="translate(-1345 -362)" fill="white"/>
<path d="M-969.5 -138H200V121H-969.5V-138Z" fill="url(#paint0_linear_990_868)"/>
<path d="M-978 121C-978 125.419 -974.418 129 -970 129C-965.582 129 -962 125.419 -962 121C-962 116.582 -965.582 113 -970 113C-974.418 113 -978 116.582 -978 121ZM237.497 -135.1C237.442 -135.927 236.727 -136.552 235.9 -136.497L222.43 -135.599C221.604 -135.544 220.978 -134.829 221.033 -134.002C221.088 -133.176 221.803 -132.55 222.63 -132.605L234.603 -133.404L235.401 -121.43C235.457 -120.604 236.171 -119.978 236.998 -120.033C237.824 -120.088 238.45 -120.803 238.395 -121.63L237.497 -135.1ZM-771.5 106.001L-771.387 107.497L-771.353 107.494L-771.32 107.49L-771.5 106.001ZM-573.5 82.0002L-573.32 83.4893L-573.28 83.4845L-573.241 83.4777L-573.5 82.0002ZM-376.5 47.5004L-376.58 46.0025L-376.67 46.0073L-376.759 46.0229L-376.5 47.5004ZM-170.5 36.4999L-170.42 37.9978L-170.272 37.9899L-170.129 37.9534L-170.5 36.4999ZM1.99999 -7.4997L2.37072 -6.04624L2.48278 -6.07482L2.58916 -6.12026L1.99999 -7.4997ZM197.5 -90.9996L198.089 -89.6202L198.404 -89.7545L198.629 -90.0119L197.5 -90.9996ZM-969.887 122.496L-771.387 107.497L-771.613 104.505L-970.113 119.505L-969.887 122.496ZM-771.32 107.49L-573.32 83.4893L-573.681 80.5111L-771.681 104.512L-771.32 107.49ZM-573.241 83.4777L-376.241 48.9779L-376.759 46.0229L-573.759 80.5227L-573.241 83.4777ZM-376.42 48.9983L-170.42 37.9978L-170.58 35.002L-376.58 46.0025L-376.42 48.9983ZM-170.129 37.9534L2.37072 -6.04624L1.62926 -8.95316L-170.871 35.0464L-170.129 37.9534ZM2.58916 -6.12026L198.089 -89.6202L196.911 -92.3791L1.41082 -8.87915L2.58916 -6.12026ZM198.629 -90.0119L237.129 -134.012L234.871 -135.988L196.371 -91.9874L198.629 -90.0119Z" fill="#45A4CD"/>
<path d="M0.42 9.5C0.326667 9.38 0.293333 9.24667 0.32 9.1C0.346667 8.95333 0.42 8.83333 0.54 8.74L4.84 5.44C4.94667 5.36 5.07333 5.26667 5.22 5.16C5.38 5.05333 5.56 5 5.76 5H8.2C8.34667 5 8.47333 5.05333 8.58 5.16C8.68667 5.26667 8.74 5.39333 8.74 5.54V18.46C8.74 18.6067 8.68667 18.7333 8.58 18.84C8.47333 18.9467 8.34667 19 8.2 19H5.58C5.43333 19 5.30667 18.9467 5.2 18.84C5.09333 18.7333 5.04 18.6067 5.04 18.46V9.72L2.66 11.52C2.54 11.6133 2.40667 11.6533 2.26 11.64C2.11333 11.6133 1.99333 11.54 1.9 11.42L0.42 9.5ZM22.1786 9.5C22.1786 9.88667 22.1386 10.26 22.0586 10.62C21.9786 10.98 21.8386 11.3333 21.6386 11.68C21.4519 12.0133 21.1986 12.3467 20.8786 12.68C20.5719 13.0133 20.1919 13.3467 19.7386 13.68L16.9386 15.8H21.9586C22.1053 15.8 22.2319 15.8533 22.3386 15.96C22.4453 16.0667 22.4986 16.1933 22.4986 16.34V18.46C22.4986 18.6067 22.4453 18.7333 22.3386 18.84C22.2319 18.9467 22.1053 19 21.9586 19H11.3986C11.2519 19 11.1253 18.9467 11.0186 18.84C10.9119 18.7333 10.8586 18.6067 10.8586 18.46V16.74C10.8586 16.5267 10.8986 16.3133 10.9786 16.1C11.0719 15.8867 11.2253 15.7067 11.4386 15.56L17.4186 11.28C17.8853 10.9333 18.1786 10.62 18.2986 10.34C18.4186 10.0467 18.4786 9.76667 18.4786 9.5C18.4786 9.40667 18.4586 9.28 18.4186 9.12C18.3919 8.94667 18.3186 8.78 18.1986 8.62C18.0786 8.44667 17.9053 8.3 17.6786 8.18C17.4653 8.06 17.1719 8 16.7986 8C16.4253 8 16.1186 8.06667 15.8786 8.2C15.6519 8.32 15.4719 8.46 15.3386 8.62C15.2186 8.78 15.1253 8.94667 15.0586 9.12C15.0053 9.28 14.9653 9.4 14.9386 9.48C14.8719 9.66667 14.7653 9.79333 14.6186 9.86C14.4853 9.91333 14.3253 9.94 14.1386 9.94H11.6786C11.5586 9.94 11.4519 9.9 11.3586 9.82C11.2786 9.72667 11.2386 9.62 11.2386 9.5C11.2519 8.94 11.3719 8.38667 11.5986 7.84C11.8253 7.28 12.1653 6.77333 12.6186 6.32C13.0853 5.86667 13.6586 5.5 14.3386 5.22C15.0319 4.94 15.8453 4.8 16.7786 4.8C17.6586 4.8 18.4319 4.93333 19.0986 5.2C19.7786 5.45333 20.3453 5.8 20.7986 6.24C21.2519 6.66667 21.5919 7.16667 21.8186 7.74C22.0586 8.3 22.1786 8.88667 22.1786 9.5ZM28.0989 18.46C28.0989 18.6067 28.0456 18.7333 27.9389 18.84C27.8322 18.9467 27.7056 19 27.5589 19H24.9389C24.7922 19 24.6656 18.9467 24.5589 18.84C24.4522 18.7333 24.3989 18.6067 24.3989 18.46V15.84C24.3989 15.6933 24.4522 15.5667 24.5589 15.46C24.6656 15.3533 24.7922 15.3 24.9389 15.3H27.5589C27.7056 15.3 27.8322 15.3533 27.9389 15.46C28.0456 15.5667 28.0989 15.6933 28.0989 15.84V18.46ZM35.8058 4.8C36.8058 4.8 37.6658 4.94667 38.3858 5.24C39.1058 5.53333 39.6991 5.92667 40.1658 6.42C40.6458 6.91333 40.9991 7.49333 41.2258 8.16C41.4658 8.81333 41.6058 9.5 41.6458 10.22C41.6724 10.7933 41.6858 11.3933 41.6858 12.02C41.6858 12.6467 41.6724 13.2333 41.6458 13.78C41.6058 14.5 41.4658 15.1933 41.2258 15.86C40.9991 16.5133 40.6458 17.0867 40.1658 17.58C39.6991 18.0733 39.1058 18.4667 38.3858 18.76C37.6658 19.0533 36.8058 19.2 35.8058 19.2C34.8058 19.2 33.9458 19.0533 33.2258 18.76C32.5058 18.4667 31.9058 18.0733 31.4258 17.58C30.9591 17.0867 30.6058 16.5133 30.3658 15.86C30.1391 15.1933 30.0058 14.5 29.9658 13.78C29.9391 13.2333 29.9258 12.6467 29.9258 12.02C29.9258 11.3933 29.9391 10.7933 29.9658 10.22C30.0058 9.5 30.1391 8.81333 30.3658 8.16C30.6058 7.49333 30.9591 6.91333 31.4258 6.42C31.9058 5.92667 32.5058 5.53333 33.2258 5.24C33.9458 4.94667 34.8058 4.8 35.8058 4.8ZM37.9458 13.68C37.9991 12.5467 37.9991 11.4267 37.9458 10.32C37.9191 9.98667 37.8658 9.68 37.7858 9.4C37.7191 9.12 37.6058 8.88 37.4458 8.68C37.2858 8.46667 37.0724 8.3 36.8058 8.18C36.5391 8.06 36.2058 8 35.8058 8C35.4058 8 35.0724 8.06 34.8058 8.18C34.5391 8.3 34.3258 8.46667 34.1658 8.68C34.0058 8.88 33.8858 9.12 33.8058 9.4C33.7258 9.68 33.6791 9.98667 33.6658 10.32C33.5991 11.4267 33.5991 12.5467 33.6658 13.68C33.6791 14.0133 33.7191 14.32 33.7858 14.6C33.8658 14.88 33.9858 15.1267 34.1458 15.34C34.3191 15.54 34.5391 15.7 34.8058 15.82C35.0724 15.94 35.4058 16 35.8058 16C36.2058 16 36.5391 15.94 36.8058 15.82C37.0724 15.7 37.2858 15.54 37.4458 15.34C37.6191 15.1267 37.7391 14.88 37.8058 14.6C37.8858 14.32 37.9324 14.0133 37.9458 13.68ZM54.0953 5C54.242 5 54.3686 5.05333 54.4753 5.16C54.582 5.26667 54.6353 5.39333 54.6353 5.54V7.66C54.6353 7.80667 54.5886 7.94 54.4953 8.06C54.402 8.18 54.3153 8.28 54.2353 8.36L51.8153 10.8C52.8553 11.0667 53.702 11.52 54.3553 12.16C55.0086 12.7867 55.3353 13.62 55.3353 14.66C55.3353 16.1667 54.8153 17.3 53.7753 18.06C52.7353 18.82 51.282 19.2 49.4153 19.2C48.4553 19.2 47.602 19.0867 46.8553 18.86C46.122 18.6333 45.502 18.3333 44.9953 17.96C44.4886 17.5867 44.0953 17.1667 43.8153 16.7C43.5486 16.22 43.4086 15.7333 43.3953 15.24C43.3953 15.12 43.4353 15.02 43.5153 14.94C43.6086 14.8467 43.7153 14.8 43.8353 14.8H46.3553C46.6353 14.8 46.8486 14.8667 46.9953 15C47.142 15.12 47.302 15.2533 47.4753 15.4C47.662 15.5467 47.8953 15.6867 48.1753 15.82C48.4686 15.94 48.882 16 49.4153 16C50.0553 16 50.582 15.8933 50.9953 15.68C51.422 15.4667 51.6353 15.1267 51.6353 14.66C51.6353 14.1933 51.422 13.8533 50.9953 13.64C50.582 13.4267 50.0553 13.32 49.4153 13.32H47.7553C47.6086 13.32 47.482 13.2667 47.3753 13.16C47.2686 13.0533 47.2153 12.9267 47.2153 12.78V11.06C47.2153 10.9133 47.262 10.78 47.3553 10.66C47.4486 10.54 47.542 10.4333 47.6353 10.34L49.7553 8.2H44.5353C44.3886 8.2 44.262 8.14667 44.1553 8.04C44.0486 7.93333 43.9953 7.80667 43.9953 7.66V5.54C43.9953 5.39333 44.0486 5.26667 44.1553 5.16C44.262 5.05333 44.3886 5 44.5353 5H54.0953ZM60.9309 18.46C60.9309 18.6067 60.8776 18.7333 60.7709 18.84C60.6643 18.9467 60.5376 19 60.3909 19H57.7709C57.6243 19 57.4976 18.9467 57.3909 18.84C57.2843 18.7333 57.2309 18.6067 57.2309 18.46V15.84C57.2309 15.6933 57.2843 15.5667 57.3909 15.46C57.4976 15.3533 57.6243 15.3 57.7709 15.3H60.3909C60.5376 15.3 60.6643 15.3533 60.7709 15.46C60.8776 15.5667 60.9309 15.6933 60.9309 15.84V18.46ZM74.0731 9.5C74.0731 9.88667 74.0331 10.26 73.9531 10.62C73.8731 10.98 73.7331 11.3333 73.5331 11.68C73.3465 12.0133 73.0931 12.3467 72.7731 12.68C72.4665 13.0133 72.0865 13.3467 71.6331 13.68L68.8331 15.8H73.8531C73.9998 15.8 74.1265 15.8533 74.2331 15.96C74.3398 16.0667 74.3931 16.1933 74.3931 16.34V18.46C74.3931 18.6067 74.3398 18.7333 74.2331 18.84C74.1265 18.9467 73.9998 19 73.8531 19H63.2931C63.1465 19 63.0198 18.9467 62.9131 18.84C62.8065 18.7333 62.7531 18.6067 62.7531 18.46V16.74C62.7531 16.5267 62.7931 16.3133 62.8731 16.1C62.9665 15.8867 63.1198 15.7067 63.3331 15.56L69.3131 11.28C69.7798 10.9333 70.0731 10.62 70.1931 10.34C70.3131 10.0467 70.3731 9.76667 70.3731 9.5C70.3731 9.40667 70.3531 9.28 70.3131 9.12C70.2865 8.94667 70.2131 8.78 70.0931 8.62C69.9731 8.44667 69.7998 8.3 69.5731 8.18C69.3598 8.06 69.0665 8 68.6931 8C68.3198 8 68.0131 8.06667 67.7731 8.2C67.5465 8.32 67.3665 8.46 67.2331 8.62C67.1131 8.78 67.0198 8.94667 66.9531 9.12C66.8998 9.28 66.8598 9.4 66.8331 9.48C66.7665 9.66667 66.6598 9.79333 66.5131 9.86C66.3798 9.91333 66.2198 9.94 66.0331 9.94H63.5731C63.4531 9.94 63.3465 9.9 63.2531 9.82C63.1731 9.72667 63.1331 9.62 63.1331 9.5C63.1465 8.94 63.2665 8.38667 63.4931 7.84C63.7198 7.28 64.0598 6.77333 64.5131 6.32C64.9798 5.86667 65.5531 5.5 66.2331 5.22C66.9265 4.94 67.7398 4.8 68.6731 4.8C69.5531 4.8 70.3265 4.93333 70.9931 5.2C71.6731 5.45333 72.2398 5.8 72.6931 6.24C73.1465 6.66667 73.4865 7.16667 73.7131 7.74C73.9531 8.3 74.0731 8.88667 74.0731 9.5ZM82.1534 4.8C83.1534 4.8 84.0134 4.94667 84.7334 5.24C85.4534 5.53333 86.0468 5.92667 86.5134 6.42C86.9934 6.91333 87.3468 7.49333 87.5734 8.16C87.8134 8.81333 87.9534 9.5 87.9934 10.22C88.0201 10.7933 88.0334 11.3933 88.0334 12.02C88.0334 12.6467 88.0201 13.2333 87.9934 13.78C87.9534 14.5 87.8134 15.1933 87.5734 15.86C87.3468 16.5133 86.9934 17.0867 86.5134 17.58C86.0468 18.0733 85.4534 18.4667 84.7334 18.76C84.0134 19.0533 83.1534 19.2 82.1534 19.2C81.1534 19.2 80.2934 19.0533 79.5734 18.76C78.8534 18.4667 78.2534 18.0733 77.7734 17.58C77.3068 17.0867 76.9534 16.5133 76.7134 15.86C76.4868 15.1933 76.3534 14.5 76.3134 13.78C76.2868 13.2333 76.2734 12.6467 76.2734 12.02C76.2734 11.3933 76.2868 10.7933 76.3134 10.22C76.3534 9.5 76.4868 8.81333 76.7134 8.16C76.9534 7.49333 77.3068 6.91333 77.7734 6.42C78.2534 5.92667 78.8534 5.53333 79.5734 5.24C80.2934 4.94667 81.1534 4.8 82.1534 4.8ZM84.2934 13.68C84.3468 12.5467 84.3468 11.4267 84.2934 10.32C84.2668 9.98667 84.2134 9.68 84.1334 9.4C84.0668 9.12 83.9534 8.88 83.7934 8.68C83.6334 8.46667 83.4201 8.3 83.1534 8.18C82.8868 8.06 82.5534 8 82.1534 8C81.7534 8 81.4201 8.06 81.1534 8.18C80.8868 8.3 80.6734 8.46667 80.5134 8.68C80.3534 8.88 80.2334 9.12 80.1534 9.4C80.0734 9.68 80.0268 9.98667 80.0134 10.32C79.9468 11.4267 79.9468 12.5467 80.0134 13.68C80.0268 14.0133 80.0668 14.32 80.1334 14.6C80.2134 14.88 80.3334 15.1267 80.4934 15.34C80.6668 15.54 80.8868 15.7 81.1534 15.82C81.4201 15.94 81.7534 16 82.1534 16C82.5534 16 82.8868 15.94 83.1534 15.82C83.4201 15.7 83.6334 15.54 83.7934 15.34C83.9668 15.1267 84.0868 14.88 84.1534 14.6C84.2334 14.32 84.2801 14.0133 84.2934 13.68ZM101.163 9.5C101.163 9.88667 101.123 10.26 101.043 10.62C100.963 10.98 100.823 11.3333 100.623 11.68C100.436 12.0133 100.183 12.3467 99.863 12.68C99.5563 13.0133 99.1763 13.3467 98.723 13.68L95.923 15.8H100.943C101.09 15.8 101.216 15.8533 101.323 15.96C101.43 16.0667 101.483 16.1933 101.483 16.34V18.46C101.483 18.6067 101.43 18.7333 101.323 18.84C101.216 18.9467 101.09 19 100.943 19H90.383C90.2363 19 90.1096 18.9467 90.003 18.84C89.8963 18.7333 89.843 18.6067 89.843 18.46V16.74C89.843 16.5267 89.883 16.3133 89.963 16.1C90.0563 15.8867 90.2096 15.7067 90.423 15.56L96.403 11.28C96.8696 10.9333 97.163 10.62 97.283 10.34C97.403 10.0467 97.463 9.76667 97.463 9.5C97.463 9.40667 97.443 9.28 97.403 9.12C97.3763 8.94667 97.303 8.78 97.183 8.62C97.063 8.44667 96.8896 8.3 96.663 8.18C96.4496 8.06 96.1563 8 95.783 8C95.4096 8 95.103 8.06667 94.863 8.2C94.6363 8.32 94.4563 8.46 94.323 8.62C94.203 8.78 94.1096 8.94667 94.043 9.12C93.9896 9.28 93.9496 9.4 93.923 9.48C93.8563 9.66667 93.7496 9.79333 93.603 9.86C93.4696 9.91333 93.3096 9.94 93.123 9.94H90.663C90.543 9.94 90.4363 9.9 90.343 9.82C90.263 9.72667 90.223 9.62 90.223 9.5C90.2363 8.94 90.3563 8.38667 90.583 7.84C90.8096 7.28 91.1496 6.77333 91.603 6.32C92.0696 5.86667 92.643 5.5 93.323 5.22C94.0163 4.94 94.8296 4.8 95.763 4.8C96.643 4.8 97.4163 4.93333 98.083 5.2C98.763 5.45333 99.3296 5.8 99.783 6.24C100.236 6.66667 100.576 7.16667 100.803 7.74C101.043 8.3 101.163 8.88667 101.163 9.5ZM114.483 9.5C114.483 9.88667 114.443 10.26 114.363 10.62C114.283 10.98 114.143 11.3333 113.943 11.68C113.757 12.0133 113.503 12.3467 113.183 12.68C112.877 13.0133 112.497 13.3467 112.043 13.68L109.243 15.8H114.263C114.41 15.8 114.537 15.8533 114.643 15.96C114.75 16.0667 114.803 16.1933 114.803 16.34V18.46C114.803 18.6067 114.75 18.7333 114.643 18.84C114.537 18.9467 114.41 19 114.263 19H103.703C103.557 19 103.43 18.9467 103.323 18.84C103.217 18.7333 103.163 18.6067 103.163 18.46V16.74C103.163 16.5267 103.203 16.3133 103.283 16.1C103.377 15.8867 103.53 15.7067 103.743 15.56L109.723 11.28C110.19 10.9333 110.483 10.62 110.603 10.34C110.723 10.0467 110.783 9.76667 110.783 9.5C110.783 9.40667 110.763 9.28 110.723 9.12C110.697 8.94667 110.623 8.78 110.503 8.62C110.383 8.44667 110.21 8.3 109.983 8.18C109.77 8.06 109.477 8 109.103 8C108.73 8 108.423 8.06667 108.183 8.2C107.957 8.32 107.777 8.46 107.643 8.62C107.523 8.78 107.43 8.94667 107.363 9.12C107.31 9.28 107.27 9.4 107.243 9.48C107.177 9.66667 107.07 9.79333 106.923 9.86C106.79 9.91333 106.63 9.94 106.443 9.94H103.983C103.863 9.94 103.757 9.9 103.663 9.82C103.583 9.72667 103.543 9.62 103.543 9.5C103.557 8.94 103.677 8.38667 103.903 7.84C104.13 7.28 104.47 6.77333 104.923 6.32C105.39 5.86667 105.963 5.5 106.643 5.22C107.337 4.94 108.15 4.8 109.083 4.8C109.963 4.8 110.737 4.93333 111.403 5.2C112.083 5.45333 112.65 5.8 113.103 6.24C113.557 6.66667 113.897 7.16667 114.123 7.74C114.363 8.3 114.483 8.88667 114.483 9.5Z" fill="#202125"/>
</g>
<defs>
<linearGradient id="paint0_linear_990_868" x1="200" y1="2.00005" x2="-968" y2="2.00005" gradientUnits="userSpaceOnUse">
<stop stop-color="#83DA40"/>
<stop offset="0.96" stop-color="#0CDBCE" stop-opacity="0"/>
</linearGradient>
<clipPath id="clip0_990_868">
<rect width="1920" height="3190" fill="white" transform="translate(-1345 -362)"/>
</clipPath>
</defs>
</svg>
