<svg width="110" height="24" viewBox="0 0 110 24" fill="none" xmlns="http://www.w3.org/2000/svg">
<rect width="110" height="24" fill="#F5F5F5"/>
<g clip-path="url(#clip0_990_868)">
<rect width="1920" height="3190" transform="translate(-775 -454)" fill="white"/>
<path d="M-399.5 -230H770V29H-399.5V-230Z" fill="url(#paint0_linear_990_868)"/>
<path d="M-408 29.0004C-408 33.4186 -404.418 37.0004 -400 37.0004C-395.582 37.0004 -392 33.4186 -392 29.0004C-392 24.5821 -395.582 21.0004 -400 21.0004C-404.418 21.0004 -408 24.5821 -408 29.0004ZM807.497 -227.1C807.442 -227.927 806.727 -228.552 805.9 -228.497L792.43 -227.599C791.604 -227.544 790.978 -226.829 791.033 -226.002C791.088 -225.176 791.803 -224.55 792.63 -224.605L804.603 -225.404L805.401 -213.43C805.457 -212.604 806.171 -211.978 806.998 -212.033C807.824 -212.088 808.45 -212.803 808.395 -213.63L807.497 -227.1ZM-201.5 14.0009L-201.387 15.4967L-201.353 15.4941L-201.32 15.49L-201.5 14.0009ZM-3.50002 -9.9998L-3.31951 -8.51069L-3.28023 -8.51545L-3.24126 -8.52229L-3.50002 -9.9998ZM193.5 -44.4996L193.42 -45.9975L193.33 -45.9927L193.241 -45.9771L193.5 -44.4996ZM399.5 -55.5001L399.58 -54.0022L399.728 -54.0101L399.871 -54.0466L399.5 -55.5001ZM572 -99.4997L572.371 -98.0462L572.483 -98.0748L572.589 -98.1203L572 -99.4997ZM767.5 -183L768.089 -181.62L768.404 -181.755L768.629 -182.012L767.5 -183ZM-399.887 30.4961L-201.387 15.4967L-201.613 12.5052L-400.113 27.5046L-399.887 30.4961ZM-201.32 15.49L-3.31951 -8.51069L-3.68053 -11.4889L-201.681 12.5118L-201.32 15.49ZM-3.24126 -8.52229L193.759 -43.0221L193.241 -45.9771L-3.75878 -11.4773L-3.24126 -8.52229ZM193.58 -43.0017L399.58 -54.0022L399.42 -56.998L193.42 -45.9975L193.58 -43.0017ZM399.871 -54.0466L572.371 -98.0462L571.629 -100.953L399.129 -56.9536L399.871 -54.0466ZM572.589 -98.1203L768.089 -181.62L766.911 -184.379L571.411 -100.879L572.589 -98.1203ZM768.629 -182.012L807.129 -226.012L804.871 -227.988L766.371 -183.987L768.629 -182.012Z" fill="#45A4CD"/>
<path d="M0.42 9.5C0.326667 9.38 0.293333 9.24667 0.32 9.1C0.346667 8.95333 0.42 8.83333 0.54 8.74L4.84 5.44C4.94667 5.36 5.07333 5.26667 5.22 5.16C5.38 5.05333 5.56 5 5.76 5H8.2C8.34667 5 8.47333 5.05333 8.58 5.16C8.68667 5.26667 8.74 5.39333 8.74 5.54V18.46C8.74 18.6067 8.68667 18.7333 8.58 18.84C8.47333 18.9467 8.34667 19 8.2 19H5.58C5.43333 19 5.30667 18.9467 5.2 18.84C5.09333 18.7333 5.04 18.6067 5.04 18.46V9.72L2.66 11.52C2.54 11.6133 2.40667 11.6533 2.26 11.64C2.11333 11.6133 1.99333 11.54 1.9 11.42L0.42 9.5ZM11.2986 9.2C11.2986 8.54667 11.4453 7.95333 11.7386 7.42C12.0453 6.87333 12.4519 6.40667 12.9586 6.02C13.4786 5.63333 14.0786 5.33333 14.7586 5.12C15.4386 4.90667 16.1586 4.8 16.9186 4.8C17.6786 4.8 18.3986 4.90667 19.0786 5.12C19.7586 5.33333 20.3519 5.63333 20.8586 6.02C21.3786 6.40667 21.7853 6.87333 22.0786 7.42C22.3853 7.95333 22.5386 8.54667 22.5386 9.2C22.5386 9.73333 22.4453 10.2267 22.2586 10.68C22.0719 11.12 21.8053 11.52 21.4586 11.88C21.8853 12.2533 22.2186 12.6867 22.4586 13.18C22.7119 13.66 22.8386 14.2 22.8386 14.8C22.8386 15.4533 22.6853 16.0533 22.3786 16.6C22.0719 17.1333 21.6519 17.5933 21.1186 17.98C20.5853 18.3667 19.9586 18.6667 19.2386 18.88C18.5186 19.0933 17.7453 19.2 16.9186 19.2C16.0919 19.2 15.3186 19.0933 14.5986 18.88C13.8786 18.6667 13.2519 18.3667 12.7186 17.98C12.1853 17.5933 11.7653 17.1333 11.4586 16.6C11.1519 16.0533 10.9986 15.4533 10.9986 14.8C10.9986 14.2 11.1186 13.66 11.3586 13.18C11.5986 12.6867 11.9319 12.2533 12.3586 11.88C12.0253 11.52 11.7653 11.12 11.5786 10.68C11.3919 10.2267 11.2986 9.73333 11.2986 9.2ZM14.6986 14.84C14.6986 15.2267 14.8786 15.5533 15.2386 15.82C15.6119 16.0733 16.1719 16.2 16.9186 16.2C17.6653 16.2 18.2186 16.0733 18.5786 15.82C18.9519 15.5533 19.1386 15.2267 19.1386 14.84C19.1386 14.4533 18.9519 14.1333 18.5786 13.88C18.2186 13.6133 17.6653 13.48 16.9186 13.48C16.1719 13.48 15.6119 13.6133 15.2386 13.88C14.8786 14.1333 14.6986 14.4533 14.6986 14.84ZM14.9986 9.16C14.9986 9.54667 15.1653 9.87333 15.4986 10.14C15.8453 10.3933 16.3186 10.52 16.9186 10.52C17.5186 10.52 17.9853 10.3933 18.3186 10.14C18.6653 9.87333 18.8386 9.54667 18.8386 9.16C18.8386 8.77333 18.6653 8.45333 18.3186 8.2C17.9853 7.93333 17.5186 7.8 16.9186 7.8C16.3186 7.8 15.8453 7.93333 15.4986 8.2C15.1653 8.45333 14.9986 8.77333 14.9986 9.16ZM28.4895 18.46C28.4895 18.6067 28.4362 18.7333 28.3295 18.84C28.2229 18.9467 28.0962 19 27.9495 19H25.3295C25.1829 19 25.0562 18.9467 24.9495 18.84C24.8429 18.7333 24.7895 18.6067 24.7895 18.46V15.84C24.7895 15.6933 24.8429 15.5667 24.9495 15.46C25.0562 15.3533 25.1829 15.3 25.3295 15.3H27.9495C28.0962 15.3 28.2229 15.3533 28.3295 15.46C28.4362 15.5667 28.4895 15.6933 28.4895 15.84V18.46ZM36.1964 4.8C37.1964 4.8 38.0564 4.94667 38.7764 5.24C39.4964 5.53333 40.0897 5.92667 40.5564 6.42C41.0364 6.91333 41.3897 7.49333 41.6164 8.16C41.8564 8.81333 41.9964 9.5 42.0364 10.22C42.0631 10.7933 42.0764 11.3933 42.0764 12.02C42.0764 12.6467 42.0631 13.2333 42.0364 13.78C41.9964 14.5 41.8564 15.1933 41.6164 15.86C41.3897 16.5133 41.0364 17.0867 40.5564 17.58C40.0897 18.0733 39.4964 18.4667 38.7764 18.76C38.0564 19.0533 37.1964 19.2 36.1964 19.2C35.1964 19.2 34.3364 19.0533 33.6164 18.76C32.8964 18.4667 32.2964 18.0733 31.8164 17.58C31.3497 17.0867 30.9964 16.5133 30.7564 15.86C30.5297 15.1933 30.3964 14.5 30.3564 13.78C30.3297 13.2333 30.3164 12.6467 30.3164 12.02C30.3164 11.3933 30.3297 10.7933 30.3564 10.22C30.3964 9.5 30.5297 8.81333 30.7564 8.16C30.9964 7.49333 31.3497 6.91333 31.8164 6.42C32.2964 5.92667 32.8964 5.53333 33.6164 5.24C34.3364 4.94667 35.1964 4.8 36.1964 4.8ZM38.3364 13.68C38.3897 12.5467 38.3897 11.4267 38.3364 10.32C38.3097 9.98667 38.2564 9.68 38.1764 9.4C38.1097 9.12 37.9964 8.88 37.8364 8.68C37.6764 8.46667 37.4631 8.3 37.1964 8.18C36.9297 8.06 36.5964 8 36.1964 8C35.7964 8 35.4631 8.06 35.1964 8.18C34.9297 8.3 34.7164 8.46667 34.5564 8.68C34.3964 8.88 34.2764 9.12 34.1964 9.4C34.1164 9.68 34.0697 9.98667 34.0564 10.32C33.9897 11.4267 33.9897 12.5467 34.0564 13.68C34.0697 14.0133 34.1097 14.32 34.1764 14.6C34.2564 14.88 34.3764 15.1267 34.5364 15.34C34.7097 15.54 34.9297 15.7 35.1964 15.82C35.4631 15.94 35.7964 16 36.1964 16C36.5964 16 36.9297 15.94 37.1964 15.82C37.4631 15.7 37.6764 15.54 37.8364 15.34C38.0097 15.1267 38.1297 14.88 38.1964 14.6C38.2764 14.32 38.3231 14.0133 38.3364 13.68ZM43.5059 9.5C43.4126 9.38 43.3793 9.24667 43.4059 9.1C43.4326 8.95333 43.5059 8.83333 43.6259 8.74L47.9259 5.44C48.0326 5.36 48.1593 5.26667 48.3059 5.16C48.4659 5.05333 48.6459 5 48.8459 5H51.2859C51.4326 5 51.5593 5.05333 51.6659 5.16C51.7726 5.26667 51.8259 5.39333 51.8259 5.54V18.46C51.8259 18.6067 51.7726 18.7333 51.6659 18.84C51.5593 18.9467 51.4326 19 51.2859 19H48.6659C48.5193 19 48.3926 18.9467 48.2859 18.84C48.1793 18.7333 48.1259 18.6067 48.1259 18.46V9.72L45.7459 11.52C45.6259 11.6133 45.4926 11.6533 45.3459 11.64C45.1993 11.6133 45.0793 11.54 44.9859 11.42L43.5059 9.5ZM57.8645 18.46C57.8645 18.6067 57.8112 18.7333 57.7045 18.84C57.5979 18.9467 57.4712 19 57.3245 19H54.7045C54.5579 19 54.4312 18.9467 54.3245 18.84C54.2179 18.7333 54.1645 18.6067 54.1645 18.46V15.84C54.1645 15.6933 54.2179 15.5667 54.3245 15.46C54.4312 15.3533 54.5579 15.3 54.7045 15.3H57.3245C57.4712 15.3 57.5979 15.3533 57.7045 15.46C57.8112 15.5667 57.8645 15.6933 57.8645 15.84V18.46ZM71.0067 9.5C71.0067 9.88667 70.9667 10.26 70.8867 10.62C70.8067 10.98 70.6667 11.3333 70.4667 11.68C70.2801 12.0133 70.0267 12.3467 69.7067 12.68C69.4001 13.0133 69.0201 13.3467 68.5667 13.68L65.7667 15.8H70.7867C70.9334 15.8 71.0601 15.8533 71.1667 15.96C71.2734 16.0667 71.3267 16.1933 71.3267 16.34V18.46C71.3267 18.6067 71.2734 18.7333 71.1667 18.84C71.0601 18.9467 70.9334 19 70.7867 19H60.2267C60.0801 19 59.9534 18.9467 59.8467 18.84C59.7401 18.7333 59.6867 18.6067 59.6867 18.46V16.74C59.6867 16.5267 59.7267 16.3133 59.8067 16.1C59.9001 15.8867 60.0534 15.7067 60.2667 15.56L66.2467 11.28C66.7134 10.9333 67.0067 10.62 67.1267 10.34C67.2467 10.0467 67.3067 9.76667 67.3067 9.5C67.3067 9.40667 67.2867 9.28 67.2467 9.12C67.2201 8.94667 67.1467 8.78 67.0267 8.62C66.9067 8.44667 66.7334 8.3 66.5067 8.18C66.2934 8.06 66.0001 8 65.6267 8C65.2534 8 64.9467 8.06667 64.7067 8.2C64.4801 8.32 64.3001 8.46 64.1667 8.62C64.0467 8.78 63.9534 8.94667 63.8867 9.12C63.8334 9.28 63.7934 9.4 63.7667 9.48C63.7001 9.66667 63.5934 9.79333 63.4467 9.86C63.3134 9.91333 63.1534 9.94 62.9667 9.94H60.5067C60.3867 9.94 60.2801 9.9 60.1867 9.82C60.1067 9.72667 60.0667 9.62 60.0667 9.5C60.0801 8.94 60.2001 8.38667 60.4267 7.84C60.6534 7.28 60.9934 6.77333 61.4467 6.32C61.9134 5.86667 62.4867 5.5 63.1667 5.22C63.8601 4.94 64.6734 4.8 65.6067 4.8C66.4867 4.8 67.2601 4.93333 67.9267 5.2C68.6067 5.45333 69.1734 5.8 69.6267 6.24C70.0801 6.66667 70.4201 7.16667 70.6467 7.74C70.8867 8.3 71.0067 8.88667 71.0067 9.5ZM79.087 4.8C80.087 4.8 80.947 4.94667 81.667 5.24C82.387 5.53333 82.9804 5.92667 83.447 6.42C83.927 6.91333 84.2804 7.49333 84.507 8.16C84.747 8.81333 84.887 9.5 84.927 10.22C84.9537 10.7933 84.967 11.3933 84.967 12.02C84.967 12.6467 84.9537 13.2333 84.927 13.78C84.887 14.5 84.747 15.1933 84.507 15.86C84.2804 16.5133 83.927 17.0867 83.447 17.58C82.9804 18.0733 82.387 18.4667 81.667 18.76C80.947 19.0533 80.087 19.2 79.087 19.2C78.087 19.2 77.227 19.0533 76.507 18.76C75.787 18.4667 75.187 18.0733 74.707 17.58C74.2404 17.0867 73.887 16.5133 73.647 15.86C73.4204 15.1933 73.287 14.5 73.247 13.78C73.2204 13.2333 73.207 12.6467 73.207 12.02C73.207 11.3933 73.2204 10.7933 73.247 10.22C73.287 9.5 73.4204 8.81333 73.647 8.16C73.887 7.49333 74.2404 6.91333 74.707 6.42C75.187 5.92667 75.787 5.53333 76.507 5.24C77.227 4.94667 78.087 4.8 79.087 4.8ZM81.227 13.68C81.2804 12.5467 81.2804 11.4267 81.227 10.32C81.2004 9.98667 81.147 9.68 81.067 9.4C81.0004 9.12 80.887 8.88 80.727 8.68C80.567 8.46667 80.3537 8.3 80.087 8.18C79.8204 8.06 79.487 8 79.087 8C78.687 8 78.3537 8.06 78.087 8.18C77.8204 8.3 77.607 8.46667 77.447 8.68C77.287 8.88 77.167 9.12 77.087 9.4C77.007 9.68 76.9604 9.98667 76.947 10.32C76.8804 11.4267 76.8804 12.5467 76.947 13.68C76.9604 14.0133 77.0004 14.32 77.067 14.6C77.147 14.88 77.267 15.1267 77.427 15.34C77.6004 15.54 77.8204 15.7 78.087 15.82C78.3537 15.94 78.687 16 79.087 16C79.487 16 79.8204 15.94 80.087 15.82C80.3537 15.7 80.567 15.54 80.727 15.34C80.9004 15.1267 81.0204 14.88 81.087 14.6C81.167 14.32 81.2137 14.0133 81.227 13.68ZM98.0966 9.5C98.0966 9.88667 98.0566 10.26 97.9766 10.62C97.8966 10.98 97.7566 11.3333 97.5566 11.68C97.3699 12.0133 97.1166 12.3467 96.7966 12.68C96.4899 13.0133 96.1099 13.3467 95.6566 13.68L92.8566 15.8H97.8766C98.0232 15.8 98.1499 15.8533 98.2566 15.96C98.3632 16.0667 98.4166 16.1933 98.4166 16.34V18.46C98.4166 18.6067 98.3632 18.7333 98.2566 18.84C98.1499 18.9467 98.0232 19 97.8766 19H87.3166C87.1699 19 87.0432 18.9467 86.9366 18.84C86.8299 18.7333 86.7766 18.6067 86.7766 18.46V16.74C86.7766 16.5267 86.8166 16.3133 86.8966 16.1C86.9899 15.8867 87.1432 15.7067 87.3566 15.56L93.3366 11.28C93.8032 10.9333 94.0966 10.62 94.2166 10.34C94.3366 10.0467 94.3966 9.76667 94.3966 9.5C94.3966 9.40667 94.3766 9.28 94.3366 9.12C94.3099 8.94667 94.2366 8.78 94.1166 8.62C93.9966 8.44667 93.8232 8.3 93.5966 8.18C93.3832 8.06 93.0899 8 92.7166 8C92.3432 8 92.0366 8.06667 91.7966 8.2C91.5699 8.32 91.3899 8.46 91.2566 8.62C91.1366 8.78 91.0432 8.94667 90.9766 9.12C90.9232 9.28 90.8832 9.4 90.8566 9.48C90.7899 9.66667 90.6832 9.79333 90.5366 9.86C90.4032 9.91333 90.2432 9.94 90.0566 9.94H87.5966C87.4766 9.94 87.3699 9.9 87.2766 9.82C87.1966 9.72667 87.1566 9.62 87.1566 9.5C87.1699 8.94 87.2899 8.38667 87.5166 7.84C87.7432 7.28 88.0832 6.77333 88.5366 6.32C89.0032 5.86667 89.5766 5.5 90.2566 5.22C90.9499 4.94 91.7632 4.8 92.6966 4.8C93.5766 4.8 94.3499 4.93333 95.0166 5.2C95.6966 5.45333 96.2632 5.8 96.7166 6.24C97.1699 6.66667 97.5099 7.16667 97.7366 7.74C97.9766 8.3 98.0966 8.88667 98.0966 9.5ZM99.7169 9.5C99.6235 9.38 99.5902 9.24667 99.6169 9.1C99.6435 8.95333 99.7169 8.83333 99.8369 8.74L104.137 5.44C104.244 5.36 104.37 5.26667 104.517 5.16C104.677 5.05333 104.857 5 105.057 5H107.497C107.644 5 107.77 5.05333 107.877 5.16C107.984 5.26667 108.037 5.39333 108.037 5.54V18.46C108.037 18.6067 107.984 18.7333 107.877 18.84C107.77 18.9467 107.644 19 107.497 19H104.877C104.73 19 104.604 18.9467 104.497 18.84C104.39 18.7333 104.337 18.6067 104.337 18.46V9.72L101.957 11.52C101.837 11.6133 101.704 11.6533 101.557 11.64C101.41 11.6133 101.29 11.54 101.197 11.42L99.7169 9.5Z" fill="#202125"/>
</g>
<defs>
<linearGradient id="paint0_linear_990_868" x1="770" y1="-90" x2="-398" y2="-89.9999" gradientUnits="userSpaceOnUse">
<stop stop-color="#83DA40"/>
<stop offset="0.96" stop-color="#0CDBCE" stop-opacity="0"/>
</linearGradient>
<clipPath id="clip0_990_868">
<rect width="1920" height="3190" fill="white" transform="translate(-775 -454)"/>
</clipPath>
</defs>
</svg>
