<svg width="116" height="24" viewBox="0 0 116 24" fill="none" xmlns="http://www.w3.org/2000/svg">
<rect width="116" height="24" fill="#F5F5F5"/>
<g clip-path="url(#clip0_990_868)">
<rect width="1920" height="3190" transform="translate(-1175 -408)" fill="white"/>
<path d="M-799.5 -184H370V75H-799.5V-184Z" fill="url(#paint0_linear_990_868)"/>
<path d="M-808 75.0004C-808 79.4186 -804.418 83.0004 -800 83.0004C-795.582 83.0004 -792 79.4186 -792 75.0004C-792 70.5821 -795.582 67.0004 -800 67.0004C-804.418 67.0004 -808 70.5821 -808 75.0004ZM407.497 -181.1C407.442 -181.927 406.727 -182.552 405.9 -182.497L392.43 -181.599C391.604 -181.544 390.978 -180.829 391.033 -180.002C391.088 -179.176 391.803 -178.55 392.63 -178.605L404.603 -179.404L405.401 -167.43C405.457 -166.604 406.171 -165.978 406.998 -166.033C407.824 -166.088 408.45 -166.803 408.395 -167.63L407.497 -181.1ZM-601.5 60.0009L-601.387 61.4967L-601.353 61.4941L-601.32 61.49L-601.5 60.0009ZM-403.5 36.0002L-403.32 37.4893L-403.28 37.4845L-403.241 37.4777L-403.5 36.0002ZM-206.5 1.50039L-206.58 0.0025238L-206.67 0.00733031L-206.759 0.022879L-206.5 1.50039ZM-0.500015 -9.5001L-0.419998 -8.00223L-0.272476 -8.01011L-0.129288 -8.04664L-0.500015 -9.5001ZM172 -53.4997L172.371 -52.0462L172.483 -52.0748L172.589 -52.1203L172 -53.4997ZM367.5 -137L368.089 -135.62L368.404 -135.755L368.629 -136.012L367.5 -137ZM-799.887 76.4961L-601.387 61.4967L-601.613 58.5052L-800.113 73.5046L-799.887 76.4961ZM-601.32 61.49L-403.32 37.4893L-403.681 34.5111L-601.681 58.5118L-601.32 61.49ZM-403.241 37.4777L-206.241 2.9779L-206.759 0.022879L-403.759 34.5227L-403.241 37.4777ZM-206.42 2.99825L-0.419998 -8.00223L-0.580032 -10.998L-206.58 0.0025238L-206.42 2.99825ZM-0.129288 -8.04664L172.371 -52.0462L171.629 -54.9532L-0.870742 -10.9536L-0.129288 -8.04664ZM172.589 -52.1203L368.089 -135.62L366.911 -138.379L171.411 -54.8791L172.589 -52.1203ZM368.629 -136.012L407.129 -180.012L404.871 -181.988L366.371 -137.987L368.629 -136.012Z" fill="#45A4CD"/>
<path d="M12.12 9.5C12.12 9.88667 12.08 10.26 12 10.62C11.92 10.98 11.78 11.3333 11.58 11.68C11.3933 12.0133 11.14 12.3467 10.82 12.68C10.5133 13.0133 10.1333 13.3467 9.68 13.68L6.88 15.8H11.9C12.0467 15.8 12.1733 15.8533 12.28 15.96C12.3867 16.0667 12.44 16.1933 12.44 16.34V18.46C12.44 18.6067 12.3867 18.7333 12.28 18.84C12.1733 18.9467 12.0467 19 11.9 19H1.34C1.19333 19 1.06667 18.9467 0.96 18.84C0.853333 18.7333 0.8 18.6067 0.8 18.46V16.74C0.8 16.5267 0.84 16.3133 0.92 16.1C1.01333 15.8867 1.16667 15.7067 1.38 15.56L7.36 11.28C7.82667 10.9333 8.12 10.62 8.24 10.34C8.36 10.0467 8.42 9.76667 8.42 9.5C8.42 9.40667 8.4 9.28 8.36 9.12C8.33333 8.94667 8.26 8.78 8.14 8.62C8.02 8.44667 7.84667 8.3 7.62 8.18C7.40667 8.06 7.11333 8 6.74 8C6.36667 8 6.06 8.06667 5.82 8.2C5.59333 8.32 5.41333 8.46 5.28 8.62C5.16 8.78 5.06667 8.94667 5 9.12C4.94667 9.28 4.90667 9.4 4.88 9.48C4.81333 9.66667 4.70667 9.79333 4.56 9.86C4.42667 9.91333 4.26667 9.94 4.08 9.94H1.62C1.5 9.94 1.39333 9.9 1.3 9.82C1.22 9.72667 1.18 9.62 1.18 9.5C1.19333 8.94 1.31333 8.38667 1.54 7.84C1.76667 7.28 2.10667 6.77333 2.56 6.32C3.02667 5.86667 3.6 5.5 4.28 5.22C4.97333 4.94 5.78667 4.8 6.72 4.8C7.6 4.8 8.37333 4.93333 9.04 5.2C9.72 5.45333 10.2867 5.8 10.74 6.24C11.1933 6.66667 11.5333 7.16667 11.76 7.74C12 8.3 12.12 8.88667 12.12 9.5ZM25.4403 9.5C25.4403 9.88667 25.4003 10.26 25.3203 10.62C25.2403 10.98 25.1003 11.3333 24.9003 11.68C24.7136 12.0133 24.4603 12.3467 24.1403 12.68C23.8336 13.0133 23.4536 13.3467 23.0003 13.68L20.2003 15.8H25.2203C25.367 15.8 25.4936 15.8533 25.6003 15.96C25.707 16.0667 25.7603 16.1933 25.7603 16.34V18.46C25.7603 18.6067 25.707 18.7333 25.6003 18.84C25.4936 18.9467 25.367 19 25.2203 19H14.6603C14.5136 19 14.387 18.9467 14.2803 18.84C14.1736 18.7333 14.1203 18.6067 14.1203 18.46V16.74C14.1203 16.5267 14.1603 16.3133 14.2403 16.1C14.3336 15.8867 14.487 15.7067 14.7003 15.56L20.6803 11.28C21.147 10.9333 21.4403 10.62 21.5603 10.34C21.6803 10.0467 21.7403 9.76667 21.7403 9.5C21.7403 9.40667 21.7203 9.28 21.6803 9.12C21.6536 8.94667 21.5803 8.78 21.4603 8.62C21.3403 8.44667 21.167 8.3 20.9403 8.18C20.727 8.06 20.4336 8 20.0603 8C19.687 8 19.3803 8.06667 19.1403 8.2C18.9136 8.32 18.7336 8.46 18.6003 8.62C18.4803 8.78 18.387 8.94667 18.3203 9.12C18.267 9.28 18.227 9.4 18.2003 9.48C18.1336 9.66667 18.027 9.79333 17.8803 9.86C17.747 9.91333 17.587 9.94 17.4003 9.94H14.9403C14.8203 9.94 14.7136 9.9 14.6203 9.82C14.5403 9.72667 14.5003 9.62 14.5003 9.5C14.5136 8.94 14.6336 8.38667 14.8603 7.84C15.087 7.28 15.427 6.77333 15.8803 6.32C16.347 5.86667 16.9203 5.5 17.6003 5.22C18.2936 4.94 19.107 4.8 20.0403 4.8C20.9203 4.8 21.6936 4.93333 22.3603 5.2C23.0403 5.45333 23.607 5.8 24.0603 6.24C24.5136 6.66667 24.8536 7.16667 25.0803 7.74C25.3203 8.3 25.4403 8.88667 25.4403 9.5ZM31.3606 18.46C31.3606 18.6067 31.3073 18.7333 31.2006 18.84C31.094 18.9467 30.9673 19 30.8206 19H28.2006C28.054 19 27.9273 18.9467 27.8206 18.84C27.714 18.7333 27.6606 18.6067 27.6606 18.46V15.84C27.6606 15.6933 27.714 15.5667 27.8206 15.46C27.9273 15.3533 28.054 15.3 28.2006 15.3H30.8206C30.9673 15.3 31.094 15.3533 31.2006 15.46C31.3073 15.5667 31.3606 15.6933 31.3606 15.84V18.46ZM39.0675 4.8C40.0675 4.8 40.9275 4.94667 41.6475 5.24C42.3675 5.53333 42.9608 5.92667 43.4275 6.42C43.9075 6.91333 44.2608 7.49333 44.4875 8.16C44.7275 8.81333 44.8675 9.5 44.9075 10.22C44.9342 10.7933 44.9475 11.3933 44.9475 12.02C44.9475 12.6467 44.9342 13.2333 44.9075 13.78C44.8675 14.5 44.7275 15.1933 44.4875 15.86C44.2608 16.5133 43.9075 17.0867 43.4275 17.58C42.9608 18.0733 42.3675 18.4667 41.6475 18.76C40.9275 19.0533 40.0675 19.2 39.0675 19.2C38.0675 19.2 37.2075 19.0533 36.4875 18.76C35.7675 18.4667 35.1675 18.0733 34.6875 17.58C34.2208 17.0867 33.8675 16.5133 33.6275 15.86C33.4008 15.1933 33.2675 14.5 33.2275 13.78C33.2008 13.2333 33.1875 12.6467 33.1875 12.02C33.1875 11.3933 33.2008 10.7933 33.2275 10.22C33.2675 9.5 33.4008 8.81333 33.6275 8.16C33.8675 7.49333 34.2208 6.91333 34.6875 6.42C35.1675 5.92667 35.7675 5.53333 36.4875 5.24C37.2075 4.94667 38.0675 4.8 39.0675 4.8ZM41.2075 13.68C41.2608 12.5467 41.2608 11.4267 41.2075 10.32C41.1808 9.98667 41.1275 9.68 41.0475 9.4C40.9808 9.12 40.8675 8.88 40.7075 8.68C40.5475 8.46667 40.3342 8.3 40.0675 8.18C39.8008 8.06 39.4675 8 39.0675 8C38.6675 8 38.3342 8.06 38.0675 8.18C37.8008 8.3 37.5875 8.46667 37.4275 8.68C37.2675 8.88 37.1475 9.12 37.0675 9.4C36.9875 9.68 36.9408 9.98667 36.9275 10.32C36.8608 11.4267 36.8608 12.5467 36.9275 13.68C36.9408 14.0133 36.9808 14.32 37.0475 14.6C37.1275 14.88 37.2475 15.1267 37.4075 15.34C37.5808 15.54 37.8008 15.7 38.0675 15.82C38.3342 15.94 38.6675 16 39.0675 16C39.4675 16 39.8008 15.94 40.0675 15.82C40.3342 15.7 40.5475 15.54 40.7075 15.34C40.8808 15.1267 41.0008 14.88 41.0675 14.6C41.1475 14.32 41.1942 14.0133 41.2075 13.68ZM50.357 14.84C50.4504 14.96 50.5504 15.0867 50.657 15.22C50.777 15.3533 50.917 15.48 51.077 15.6C51.237 15.7067 51.4304 15.8 51.657 15.88C51.8837 15.96 52.1504 16 52.457 16C52.737 16 53.0037 15.9667 53.257 15.9C53.5104 15.82 53.737 15.7067 53.937 15.56C54.137 15.4133 54.2904 15.2333 54.397 15.02C54.517 14.8067 54.577 14.5533 54.577 14.26C54.577 13.8067 54.397 13.44 54.037 13.16C53.6904 12.8667 53.2104 12.72 52.597 12.72C52.4104 12.72 52.2304 12.7467 52.057 12.8C51.897 12.8533 51.7437 12.9133 51.597 12.98C51.4637 13.0333 51.337 13.0867 51.217 13.14C51.097 13.1933 50.997 13.22 50.917 13.22H47.797C47.637 13.22 47.5037 13.1667 47.397 13.06C47.2904 12.9533 47.2437 12.8267 47.257 12.68L47.857 5.54C47.8704 5.39333 47.9237 5.26667 48.017 5.16C48.1237 5.05333 48.2504 5 48.397 5H56.957C57.1037 5 57.2304 5.05333 57.337 5.16C57.4437 5.26667 57.497 5.39333 57.497 5.54V7.66C57.497 7.80667 57.4437 7.93333 57.337 8.04C57.2304 8.14667 57.1037 8.2 56.957 8.2H51.137L50.997 9.98C51.237 9.84667 51.5104 9.74 51.817 9.66C52.137 9.56667 52.4837 9.52 52.857 9.52C53.6304 9.52 54.3437 9.62667 54.997 9.84C55.6637 10.0533 56.237 10.36 56.717 10.76C57.2104 11.16 57.5904 11.6533 57.857 12.24C58.137 12.8267 58.277 13.5 58.277 14.26C58.277 15.06 58.1237 15.7667 57.817 16.38C57.5237 16.9933 57.1104 17.5133 56.577 17.94C56.057 18.3533 55.4437 18.6667 54.737 18.88C54.0304 19.0933 53.2704 19.2 52.457 19.2C51.5504 19.2 50.737 19.0867 50.017 18.86C49.3104 18.62 48.7104 18.3067 48.217 17.92C47.7237 17.52 47.3437 17.0667 47.077 16.56C46.8104 16.04 46.6704 15.5067 46.657 14.96C46.657 14.84 46.697 14.74 46.777 14.66C46.8704 14.5667 46.977 14.52 47.097 14.52H49.637C49.8504 14.52 50.0104 14.56 50.117 14.64C50.237 14.72 50.317 14.7867 50.357 14.84ZM63.763 18.46C63.763 18.6067 63.7096 18.7333 63.603 18.84C63.4963 18.9467 63.3696 19 63.223 19H60.603C60.4563 19 60.3296 18.9467 60.223 18.84C60.1163 18.7333 60.063 18.6067 60.063 18.46V15.84C60.063 15.6933 60.1163 15.5667 60.223 15.46C60.3296 15.3533 60.4563 15.3 60.603 15.3H63.223C63.3696 15.3 63.4963 15.3533 63.603 15.46C63.7096 15.5667 63.763 15.6933 63.763 15.84V18.46ZM76.9052 9.5C76.9052 9.88667 76.8652 10.26 76.7852 10.62C76.7052 10.98 76.5652 11.3333 76.3652 11.68C76.1785 12.0133 75.9252 12.3467 75.6052 12.68C75.2985 13.0133 74.9185 13.3467 74.4652 13.68L71.6652 15.8H76.6852C76.8318 15.8 76.9585 15.8533 77.0652 15.96C77.1718 16.0667 77.2252 16.1933 77.2252 16.34V18.46C77.2252 18.6067 77.1718 18.7333 77.0652 18.84C76.9585 18.9467 76.8318 19 76.6852 19H66.1252C65.9785 19 65.8518 18.9467 65.7452 18.84C65.6385 18.7333 65.5852 18.6067 65.5852 18.46V16.74C65.5852 16.5267 65.6252 16.3133 65.7052 16.1C65.7985 15.8867 65.9518 15.7067 66.1652 15.56L72.1452 11.28C72.6118 10.9333 72.9052 10.62 73.0252 10.34C73.1452 10.0467 73.2052 9.76667 73.2052 9.5C73.2052 9.40667 73.1852 9.28 73.1452 9.12C73.1185 8.94667 73.0452 8.78 72.9252 8.62C72.8052 8.44667 72.6318 8.3 72.4052 8.18C72.1918 8.06 71.8985 8 71.5252 8C71.1518 8 70.8452 8.06667 70.6052 8.2C70.3785 8.32 70.1985 8.46 70.0652 8.62C69.9452 8.78 69.8518 8.94667 69.7852 9.12C69.7318 9.28 69.6918 9.4 69.6652 9.48C69.5985 9.66667 69.4918 9.79333 69.3452 9.86C69.2118 9.91333 69.0518 9.94 68.8652 9.94H66.4052C66.2852 9.94 66.1785 9.9 66.0852 9.82C66.0052 9.72667 65.9652 9.62 65.9652 9.5C65.9785 8.94 66.0985 8.38667 66.3252 7.84C66.5518 7.28 66.8918 6.77333 67.3452 6.32C67.8118 5.86667 68.3852 5.5 69.0652 5.22C69.7585 4.94 70.5718 4.8 71.5052 4.8C72.3852 4.8 73.1585 4.93333 73.8252 5.2C74.5052 5.45333 75.0718 5.8 75.5252 6.24C75.9785 6.66667 76.3185 7.16667 76.5452 7.74C76.7852 8.3 76.9052 8.88667 76.9052 9.5ZM84.9855 4.8C85.9855 4.8 86.8455 4.94667 87.5655 5.24C88.2855 5.53333 88.8788 5.92667 89.3455 6.42C89.8255 6.91333 90.1788 7.49333 90.4055 8.16C90.6455 8.81333 90.7855 9.5 90.8255 10.22C90.8521 10.7933 90.8655 11.3933 90.8655 12.02C90.8655 12.6467 90.8521 13.2333 90.8255 13.78C90.7855 14.5 90.6455 15.1933 90.4055 15.86C90.1788 16.5133 89.8255 17.0867 89.3455 17.58C88.8788 18.0733 88.2855 18.4667 87.5655 18.76C86.8455 19.0533 85.9855 19.2 84.9855 19.2C83.9855 19.2 83.1255 19.0533 82.4055 18.76C81.6855 18.4667 81.0855 18.0733 80.6055 17.58C80.1388 17.0867 79.7855 16.5133 79.5455 15.86C79.3188 15.1933 79.1855 14.5 79.1455 13.78C79.1188 13.2333 79.1055 12.6467 79.1055 12.02C79.1055 11.3933 79.1188 10.7933 79.1455 10.22C79.1855 9.5 79.3188 8.81333 79.5455 8.16C79.7855 7.49333 80.1388 6.91333 80.6055 6.42C81.0855 5.92667 81.6855 5.53333 82.4055 5.24C83.1255 4.94667 83.9855 4.8 84.9855 4.8ZM87.1255 13.68C87.1788 12.5467 87.1788 11.4267 87.1255 10.32C87.0988 9.98667 87.0455 9.68 86.9655 9.4C86.8988 9.12 86.7855 8.88 86.6255 8.68C86.4655 8.46667 86.2521 8.3 85.9855 8.18C85.7188 8.06 85.3855 8 84.9855 8C84.5855 8 84.2521 8.06 83.9855 8.18C83.7188 8.3 83.5055 8.46667 83.3455 8.68C83.1855 8.88 83.0655 9.12 82.9855 9.4C82.9055 9.68 82.8588 9.98667 82.8455 10.32C82.7788 11.4267 82.7788 12.5467 82.8455 13.68C82.8588 14.0133 82.8988 14.32 82.9655 14.6C83.0455 14.88 83.1655 15.1267 83.3255 15.34C83.4988 15.54 83.7188 15.7 83.9855 15.82C84.2521 15.94 84.5855 16 84.9855 16C85.3855 16 85.7188 15.94 85.9855 15.82C86.2521 15.7 86.4655 15.54 86.6255 15.34C86.7988 15.1267 86.9188 14.88 86.9855 14.6C87.0655 14.32 87.1121 14.0133 87.1255 13.68ZM103.995 9.5C103.995 9.88667 103.955 10.26 103.875 10.62C103.795 10.98 103.655 11.3333 103.455 11.68C103.268 12.0133 103.015 12.3467 102.695 12.68C102.388 13.0133 102.008 13.3467 101.555 13.68L98.755 15.8H103.775C103.922 15.8 104.048 15.8533 104.155 15.96C104.262 16.0667 104.315 16.1933 104.315 16.34V18.46C104.315 18.6067 104.262 18.7333 104.155 18.84C104.048 18.9467 103.922 19 103.775 19H93.215C93.0683 19 92.9417 18.9467 92.835 18.84C92.7283 18.7333 92.675 18.6067 92.675 18.46V16.74C92.675 16.5267 92.715 16.3133 92.795 16.1C92.8883 15.8867 93.0417 15.7067 93.255 15.56L99.235 11.28C99.7017 10.9333 99.995 10.62 100.115 10.34C100.235 10.0467 100.295 9.76667 100.295 9.5C100.295 9.40667 100.275 9.28 100.235 9.12C100.208 8.94667 100.135 8.78 100.015 8.62C99.895 8.44667 99.7217 8.3 99.495 8.18C99.2817 8.06 98.9883 8 98.615 8C98.2417 8 97.935 8.06667 97.695 8.2C97.4683 8.32 97.2883 8.46 97.155 8.62C97.035 8.78 96.9417 8.94667 96.875 9.12C96.8217 9.28 96.7817 9.4 96.755 9.48C96.6883 9.66667 96.5817 9.79333 96.435 9.86C96.3017 9.91333 96.1417 9.94 95.955 9.94H93.495C93.375 9.94 93.2683 9.9 93.175 9.82C93.095 9.72667 93.055 9.62 93.055 9.5C93.0683 8.94 93.1883 8.38667 93.415 7.84C93.6417 7.28 93.9817 6.77333 94.435 6.32C94.9017 5.86667 95.475 5.5 96.155 5.22C96.8483 4.94 97.6617 4.8 98.595 4.8C99.475 4.8 100.248 4.93333 100.915 5.2C101.595 5.45333 102.162 5.8 102.615 6.24C103.068 6.66667 103.408 7.16667 103.635 7.74C103.875 8.3 103.995 8.88667 103.995 9.5ZM105.615 9.5C105.522 9.38 105.489 9.24667 105.515 9.1C105.542 8.95333 105.615 8.83333 105.735 8.74L110.035 5.44C110.142 5.36 110.269 5.26667 110.415 5.16C110.575 5.05333 110.755 5 110.955 5H113.395C113.542 5 113.669 5.05333 113.775 5.16C113.882 5.26667 113.935 5.39333 113.935 5.54V18.46C113.935 18.6067 113.882 18.7333 113.775 18.84C113.669 18.9467 113.542 19 113.395 19H110.775C110.629 19 110.502 18.9467 110.395 18.84C110.289 18.7333 110.235 18.6067 110.235 18.46V9.72L107.855 11.52C107.735 11.6133 107.602 11.6533 107.455 11.64C107.309 11.6133 107.189 11.54 107.095 11.42L105.615 9.5Z" fill="#202125"/>
</g>
<defs>
<linearGradient id="paint0_linear_990_868" x1="370" y1="-44" x2="-798" y2="-43.9999" gradientUnits="userSpaceOnUse">
<stop stop-color="#83DA40"/>
<stop offset="0.96" stop-color="#0CDBCE" stop-opacity="0"/>
</linearGradient>
<clipPath id="clip0_990_868">
<rect width="1920" height="3190" fill="white" transform="translate(-1175 -408)"/>
</clipPath>
</defs>
</svg>
