<svg width="16" height="16" viewBox="0 0 16 16" fill="none" xmlns="http://www.w3.org/2000/svg">
<rect width="16" height="16" fill="#F5F5F5"/>
<g clip-path="url(#clip0_990_868)">
<rect width="1920" height="3190" transform="translate(-1337 -345)" fill="white"/>
<path d="M-961.5 -121H208V138H-961.5V-121Z" fill="url(#paint0_linear_990_868)"/>
<path d="M-970 138C-970 142.419 -966.418 146 -962 146C-957.582 146 -954 142.419 -954 138C-954 133.582 -957.582 130 -962 130C-966.418 130 -970 133.582 -970 138ZM245.497 -118.1C245.442 -118.927 244.727 -119.552 243.9 -119.497L230.43 -118.599C229.604 -118.544 228.978 -117.829 229.033 -117.002C229.088 -116.176 229.803 -115.55 230.63 -115.605L242.603 -116.404L243.401 -104.43C243.457 -103.604 244.171 -102.978 244.998 -103.033C245.824 -103.088 246.45 -103.803 246.395 -104.63L245.497 -118.1ZM-763.5 123.001L-763.387 124.497L-763.353 124.494L-763.32 124.49L-763.5 123.001ZM-565.5 99.0002L-565.32 100.489L-565.28 100.485L-565.241 100.478L-565.5 99.0002ZM-368.5 64.5004L-368.58 63.0025L-368.67 63.0073L-368.759 63.0229L-368.5 64.5004ZM-162.5 53.4999L-162.42 54.9978L-162.272 54.9899L-162.129 54.9534L-162.5 53.4999ZM9.99999 9.5003L10.3707 10.9538L10.4828 10.9252L10.5892 10.8797L9.99999 9.5003ZM205.5 -73.9996L206.089 -72.6202L206.404 -72.7545L206.629 -73.0119L205.5 -73.9996ZM-961.887 139.496L-763.387 124.497L-763.613 121.505L-962.113 136.505L-961.887 139.496ZM-763.32 124.49L-565.32 100.489L-565.681 97.5111L-763.681 121.512L-763.32 124.49ZM-565.241 100.478L-368.241 65.9779L-368.759 63.0229L-565.759 97.5227L-565.241 100.478ZM-368.42 65.9983L-162.42 54.9978L-162.58 52.002L-368.58 63.0025L-368.42 65.9983ZM-162.129 54.9534L10.3707 10.9538L9.62926 8.04684L-162.871 52.0464L-162.129 54.9534ZM10.5892 10.8797L206.089 -72.6202L204.911 -75.3791L9.41082 8.12085L10.5892 10.8797ZM206.629 -73.0119L245.129 -117.012L242.871 -118.988L204.371 -74.9874L206.629 -73.0119Z" fill="#45A4CD"/>
<circle cx="8" cy="8" r="8" fill="#00C4B8"/>
</g>
<defs>
<linearGradient id="paint0_linear_990_868" x1="208" y1="19" x2="-960" y2="19.0001" gradientUnits="userSpaceOnUse">
<stop stop-color="#83DA40"/>
<stop offset="0.96" stop-color="#0CDBCE" stop-opacity="0"/>
</linearGradient>
<clipPath id="clip0_990_868">
<rect width="1920" height="3190" fill="white" transform="translate(-1337 -345)"/>
</clipPath>
</defs>
</svg>
