<svg width="16" height="16" viewBox="0 0 16 16" fill="none" xmlns="http://www.w3.org/2000/svg">
<rect width="16" height="16" fill="#F5F5F5"/>
<g clip-path="url(#clip0_990_868)">
<rect width="1920" height="3190" transform="translate(-1537 -261)" fill="white"/>
<path d="M-1161.5 -37H8V222H-1161.5V-37Z" fill="url(#paint0_linear_990_868)"/>
<path d="M-1170 222C-1170 226.419 -1166.42 230 -1162 230C-1157.58 230 -1154 226.419 -1154 222C-1154 217.582 -1157.58 214 -1162 214C-1166.42 214 -1170 217.582 -1170 222ZM45.4967 -34.0999C45.4415 -34.9265 44.7268 -35.5519 43.9003 -35.4968L30.4302 -34.5987C29.6035 -34.5436 28.9781 -33.8289 29.0332 -33.0023C29.0884 -32.1757 29.8031 -31.5503 30.6296 -31.6054L42.6031 -32.4037L43.4014 -20.4303C43.4565 -19.6037 44.1713 -18.9783 44.9979 -19.0334C45.8245 -19.0885 46.4498 -19.8032 46.3948 -20.6298L45.4967 -34.0999ZM-963.5 207.001L-963.387 208.497L-963.353 208.494L-963.32 208.49L-963.5 207.001ZM-765.5 183L-765.32 184.489L-765.28 184.485L-765.241 184.478L-765.5 183ZM-568.5 148.5L-568.58 147.003L-568.67 147.007L-568.759 147.023L-568.5 148.5ZM-362.5 137.5L-362.42 138.998L-362.272 138.99L-362.129 138.953L-362.5 137.5ZM-190 93.5003L-189.629 94.9538L-189.517 94.9252L-189.411 94.8797L-190 93.5003ZM5.5 10.0004L6.08923 11.3798L6.40368 11.2455L6.6289 10.9881L5.5 10.0004ZM-1161.89 223.496L-963.387 208.497L-963.613 205.505L-1162.11 220.505L-1161.89 223.496ZM-963.32 208.49L-765.32 184.489L-765.681 181.511L-963.681 205.512L-963.32 208.49ZM-765.241 184.478L-568.241 149.978L-568.759 147.023L-765.759 181.523L-765.241 184.478ZM-568.42 149.998L-362.42 138.998L-362.58 136.002L-568.58 147.003L-568.42 149.998ZM-362.129 138.953L-189.629 94.9538L-190.371 92.0468L-362.871 136.046L-362.129 138.953ZM-189.411 94.8797L6.08923 11.3798L4.91076 8.62092L-190.589 92.1209L-189.411 94.8797ZM6.6289 10.9881L45.1289 -33.0124L42.8711 -34.9879L4.37109 9.01261L6.6289 10.9881Z" fill="#45A4CD"/>
<circle cx="8" cy="8" r="8" fill="#00C4B8"/>
</g>
<defs>
<linearGradient id="paint0_linear_990_868" x1="8" y1="103" x2="-1160" y2="103" gradientUnits="userSpaceOnUse">
<stop stop-color="#83DA40"/>
<stop offset="0.96" stop-color="#0CDBCE" stop-opacity="0"/>
</linearGradient>
<clipPath id="clip0_990_868">
<rect width="1920" height="3190" fill="white" transform="translate(-1537 -261)"/>
</clipPath>
</defs>
</svg>
