<svg height="209" viewBox="0 0 0 209" fill="none" xmlns="http://www.w3.org/2000/svg">
<rect width="0" height="209" fill="#F5F5F5"/>
<g clip-path="url(#clip0_990_868)">
<rect width="1920" height="3190" transform="translate(-574 -240)" fill="white"/>
<path d="M-198.5 -16H971V243H-198.5V-16Z" fill="url(#paint0_linear_990_868)"/>
<path d="M-207 243C-207 247.419 -203.418 251 -199 251C-194.582 251 -191 247.419 -191 243C-191 238.582 -194.582 235 -199 235C-203.418 235 -207 238.582 -207 243ZM1008.5 -13.0999C1008.44 -13.9265 1007.73 -14.5519 1006.9 -14.4968L993.43 -13.5987C992.604 -13.5436 991.978 -12.8289 992.033 -12.0023C992.088 -11.1757 992.803 -10.5503 993.63 -10.6054L1005.6 -11.4037L1006.4 0.569743C1006.46 1.39634 1007.17 2.02174 1008 1.96663C1008.82 1.91152 1009.45 1.19676 1009.39 0.370168L1008.5 -13.0999ZM-0.500021 228.001L-0.386999 229.497L-0.353186 229.494L-0.319525 229.49L-0.500021 228.001ZM197.5 204L197.68 205.489L197.72 205.485L197.759 205.478L197.5 204ZM394.5 169.5L394.42 168.003L394.33 168.007L394.241 168.023L394.5 169.5ZM600.5 158.5L600.58 159.998L600.728 159.99L600.871 159.953L600.5 158.5ZM773 114.5L773.371 115.954L773.483 115.925L773.589 115.88L773 114.5ZM968.5 31.0004L969.089 32.3798L969.404 32.2455L969.629 31.9881L968.5 31.0004ZM-198.887 244.496L-0.386999 229.497L-0.613043 226.505L-199.113 241.505L-198.887 244.496ZM-0.319525 229.49L197.68 205.489L197.319 202.511L-0.680517 226.512L-0.319525 229.49ZM197.759 205.478L394.759 170.978L394.241 168.023L197.241 202.523L197.759 205.478ZM394.58 170.998L600.58 159.998L600.42 157.002L394.42 168.003L394.58 170.998ZM600.871 159.953L773.371 115.954L772.629 113.047L600.129 157.046L600.871 159.953ZM773.589 115.88L969.089 32.3798L967.911 29.6209L772.411 113.121L773.589 115.88ZM969.629 31.9881L1008.13 -12.0124L1005.87 -13.9879L967.371 30.0126L969.629 31.9881Z" fill="#45A4CD"/>
<path d="M9.13568e-06 209L0 0" stroke="#BACFD2"/>
</g>
<defs>
<linearGradient id="paint0_linear_990_868" x1="971" y1="124" x2="-197" y2="124" gradientUnits="userSpaceOnUse">
<stop stop-color="#83DA40"/>
<stop offset="0.96" stop-color="#0CDBCE" stop-opacity="0"/>
</linearGradient>
<clipPath id="clip0_990_868">
<rect width="1920" height="3190" fill="white" transform="translate(-574 -240)"/>
</clipPath>
</defs>
</svg>
